%FSTAX44Y44*%
%MOMM*%
G71*
G01*
G75*
G04 Layer_Color=65280*
G04:AMPARAMS|DCode=10|XSize=0.8mm|YSize=1mm|CornerRadius=0.2mm|HoleSize=0mm|Usage=FLASHONLY|Rotation=270.000|XOffset=0mm|YOffset=0mm|HoleType=Round|Shape=RoundedRectangle|*
%AMROUNDEDRECTD10*
21,1,0.8000,0.6000,0,0,270.0*
21,1,0.4000,1.0000,0,0,270.0*
1,1,0.4000,-0.3000,-0.2000*
1,1,0.4000,-0.3000,0.2000*
1,1,0.4000,0.3000,0.2000*
1,1,0.4000,0.3000,-0.2000*
%
%ADD10ROUNDEDRECTD10*%
G04:AMPARAMS|DCode=11|XSize=0.8mm|YSize=1mm|CornerRadius=0.2mm|HoleSize=0mm|Usage=FLASHONLY|Rotation=0.000|XOffset=0mm|YOffset=0mm|HoleType=Round|Shape=RoundedRectangle|*
%AMROUNDEDRECTD11*
21,1,0.8000,0.6000,0,0,0.0*
21,1,0.4000,1.0000,0,0,0.0*
1,1,0.4000,0.2000,-0.3000*
1,1,0.4000,-0.2000,-0.3000*
1,1,0.4000,-0.2000,0.3000*
1,1,0.4000,0.2000,0.3000*
%
%ADD11ROUNDEDRECTD11*%
G04:AMPARAMS|DCode=12|XSize=0.9mm|YSize=0.8mm|CornerRadius=0.2mm|HoleSize=0mm|Usage=FLASHONLY|Rotation=90.000|XOffset=0mm|YOffset=0mm|HoleType=Round|Shape=RoundedRectangle|*
%AMROUNDEDRECTD12*
21,1,0.9000,0.4000,0,0,90.0*
21,1,0.5000,0.8000,0,0,90.0*
1,1,0.4000,0.2000,0.2500*
1,1,0.4000,0.2000,-0.2500*
1,1,0.4000,-0.2000,-0.2500*
1,1,0.4000,-0.2000,0.2500*
%
%ADD12ROUNDEDRECTD12*%
G04:AMPARAMS|DCode=13|XSize=0.45mm|YSize=0.8mm|CornerRadius=0.1125mm|HoleSize=0mm|Usage=FLASHONLY|Rotation=180.000|XOffset=0mm|YOffset=0mm|HoleType=Round|Shape=RoundedRectangle|*
%AMROUNDEDRECTD13*
21,1,0.4500,0.5750,0,0,180.0*
21,1,0.2250,0.8000,0,0,180.0*
1,1,0.2250,-0.1125,0.2875*
1,1,0.2250,0.1125,0.2875*
1,1,0.2250,0.1125,-0.2875*
1,1,0.2250,-0.1125,-0.2875*
%
%ADD13ROUNDEDRECTD13*%
G04:AMPARAMS|DCode=14|XSize=1mm|YSize=0.8mm|CornerRadius=0.2mm|HoleSize=0mm|Usage=FLASHONLY|Rotation=180.000|XOffset=0mm|YOffset=0mm|HoleType=Round|Shape=RoundedRectangle|*
%AMROUNDEDRECTD14*
21,1,1.0000,0.4000,0,0,180.0*
21,1,0.6000,0.8000,0,0,180.0*
1,1,0.4000,-0.3000,0.2000*
1,1,0.4000,0.3000,0.2000*
1,1,0.4000,0.3000,-0.2000*
1,1,0.4000,-0.3000,-0.2000*
%
%ADD14ROUNDEDRECTD14*%
G04:AMPARAMS|DCode=15|XSize=1.9mm|YSize=0.4mm|CornerRadius=0.1mm|HoleSize=0mm|Usage=FLASHONLY|Rotation=180.000|XOffset=0mm|YOffset=0mm|HoleType=Round|Shape=RoundedRectangle|*
%AMROUNDEDRECTD15*
21,1,1.9000,0.2000,0,0,180.0*
21,1,1.7000,0.4000,0,0,180.0*
1,1,0.2000,-0.8500,0.1000*
1,1,0.2000,0.8500,0.1000*
1,1,0.2000,0.8500,-0.1000*
1,1,0.2000,-0.8500,-0.1000*
%
%ADD15ROUNDEDRECTD15*%
G04:AMPARAMS|DCode=16|XSize=0.8mm|YSize=0.85mm|CornerRadius=0.2mm|HoleSize=0mm|Usage=FLASHONLY|Rotation=90.000|XOffset=0mm|YOffset=0mm|HoleType=Round|Shape=RoundedRectangle|*
%AMROUNDEDRECTD16*
21,1,0.8000,0.4500,0,0,90.0*
21,1,0.4000,0.8500,0,0,90.0*
1,1,0.4000,0.2250,0.2000*
1,1,0.4000,0.2250,-0.2000*
1,1,0.4000,-0.2250,-0.2000*
1,1,0.4000,-0.2250,0.2000*
%
%ADD16ROUNDEDRECTD16*%
G04:AMPARAMS|DCode=17|XSize=1.6mm|YSize=1.3mm|CornerRadius=0.325mm|HoleSize=0mm|Usage=FLASHONLY|Rotation=0.000|XOffset=0mm|YOffset=0mm|HoleType=Round|Shape=RoundedRectangle|*
%AMROUNDEDRECTD17*
21,1,1.6000,0.6500,0,0,0.0*
21,1,0.9500,1.3000,0,0,0.0*
1,1,0.6500,0.4750,-0.3250*
1,1,0.6500,-0.4750,-0.3250*
1,1,0.6500,-0.4750,0.3250*
1,1,0.6500,0.4750,0.3250*
%
%ADD17ROUNDEDRECTD17*%
G04:AMPARAMS|DCode=18|XSize=2mm|YSize=1.6mm|CornerRadius=0.4mm|HoleSize=0mm|Usage=FLASHONLY|Rotation=90.000|XOffset=0mm|YOffset=0mm|HoleType=Round|Shape=RoundedRectangle|*
%AMROUNDEDRECTD18*
21,1,2.0000,0.8000,0,0,90.0*
21,1,1.2000,1.6000,0,0,90.0*
1,1,0.8000,0.4000,0.6000*
1,1,0.8000,0.4000,-0.6000*
1,1,0.8000,-0.4000,-0.6000*
1,1,0.8000,-0.4000,0.6000*
%
%ADD18ROUNDEDRECTD18*%
G04:AMPARAMS|DCode=19|XSize=2mm|YSize=2.6mm|CornerRadius=0.5mm|HoleSize=0mm|Usage=FLASHONLY|Rotation=90.000|XOffset=0mm|YOffset=0mm|HoleType=Round|Shape=RoundedRectangle|*
%AMROUNDEDRECTD19*
21,1,2.0000,1.6000,0,0,90.0*
21,1,1.0000,2.6000,0,0,90.0*
1,1,1.0000,0.8000,0.5000*
1,1,1.0000,0.8000,-0.5000*
1,1,1.0000,-0.8000,-0.5000*
1,1,1.0000,-0.8000,0.5000*
%
%ADD19ROUNDEDRECTD19*%
G04:AMPARAMS|DCode=20|XSize=1.25mm|YSize=1mm|CornerRadius=0.25mm|HoleSize=0mm|Usage=FLASHONLY|Rotation=180.000|XOffset=0mm|YOffset=0mm|HoleType=Round|Shape=RoundedRectangle|*
%AMROUNDEDRECTD20*
21,1,1.2500,0.5000,0,0,180.0*
21,1,0.7500,1.0000,0,0,180.0*
1,1,0.5000,-0.3750,0.2500*
1,1,0.5000,0.3750,0.2500*
1,1,0.5000,0.3750,-0.2500*
1,1,0.5000,-0.3750,-0.2500*
%
%ADD20ROUNDEDRECTD20*%
G04:AMPARAMS|DCode=21|XSize=1.8mm|YSize=2.8mm|CornerRadius=0.18mm|HoleSize=0mm|Usage=FLASHONLY|Rotation=90.000|XOffset=0mm|YOffset=0mm|HoleType=Round|Shape=RoundedRectangle|*
%AMROUNDEDRECTD21*
21,1,1.8000,2.4400,0,0,90.0*
21,1,1.4400,2.8000,0,0,90.0*
1,1,0.3600,1.2200,0.7200*
1,1,0.3600,1.2200,-0.7200*
1,1,0.3600,-1.2200,-0.7200*
1,1,0.3600,-1.2200,0.7200*
%
%ADD21ROUNDEDRECTD21*%
G04:AMPARAMS|DCode=22|XSize=0.7mm|YSize=1mm|CornerRadius=0.175mm|HoleSize=0mm|Usage=FLASHONLY|Rotation=270.000|XOffset=0mm|YOffset=0mm|HoleType=Round|Shape=RoundedRectangle|*
%AMROUNDEDRECTD22*
21,1,0.7000,0.6500,0,0,270.0*
21,1,0.3500,1.0000,0,0,270.0*
1,1,0.3500,-0.3250,-0.1750*
1,1,0.3500,-0.3250,0.1750*
1,1,0.3500,0.3250,0.1750*
1,1,0.3500,0.3250,-0.1750*
%
%ADD22ROUNDEDRECTD22*%
G04:AMPARAMS|DCode=23|XSize=2mm|YSize=1.6mm|CornerRadius=0.4mm|HoleSize=0mm|Usage=FLASHONLY|Rotation=0.000|XOffset=0mm|YOffset=0mm|HoleType=Round|Shape=RoundedRectangle|*
%AMROUNDEDRECTD23*
21,1,2.0000,0.8000,0,0,0.0*
21,1,1.2000,1.6000,0,0,0.0*
1,1,0.8000,0.6000,-0.4000*
1,1,0.8000,-0.6000,-0.4000*
1,1,0.8000,-0.6000,0.4000*
1,1,0.8000,0.6000,0.4000*
%
%ADD23ROUNDEDRECTD23*%
G04:AMPARAMS|DCode=24|XSize=2mm|YSize=2.6mm|CornerRadius=0.5mm|HoleSize=0mm|Usage=FLASHONLY|Rotation=0.000|XOffset=0mm|YOffset=0mm|HoleType=Round|Shape=RoundedRectangle|*
%AMROUNDEDRECTD24*
21,1,2.0000,1.6000,0,0,0.0*
21,1,1.0000,2.6000,0,0,0.0*
1,1,1.0000,0.5000,-0.8000*
1,1,1.0000,-0.5000,-0.8000*
1,1,1.0000,-0.5000,0.8000*
1,1,1.0000,0.5000,0.8000*
%
%ADD24ROUNDEDRECTD24*%
G04:AMPARAMS|DCode=25|XSize=2.4mm|YSize=3mm|CornerRadius=0.24mm|HoleSize=0mm|Usage=FLASHONLY|Rotation=270.000|XOffset=0mm|YOffset=0mm|HoleType=Round|Shape=RoundedRectangle|*
%AMROUNDEDRECTD25*
21,1,2.4000,2.5200,0,0,270.0*
21,1,1.9200,3.0000,0,0,270.0*
1,1,0.4800,-1.2600,-0.9600*
1,1,0.4800,-1.2600,0.9600*
1,1,0.4800,1.2600,0.9600*
1,1,0.4800,1.2600,-0.9600*
%
%ADD25ROUNDEDRECTD25*%
G04:AMPARAMS|DCode=26|XSize=2.65mm|YSize=1.75mm|CornerRadius=0.4375mm|HoleSize=0mm|Usage=FLASHONLY|Rotation=180.000|XOffset=0mm|YOffset=0mm|HoleType=Round|Shape=RoundedRectangle|*
%AMROUNDEDRECTD26*
21,1,2.6500,0.8750,0,0,180.0*
21,1,1.7750,1.7500,0,0,180.0*
1,1,0.8750,-0.8875,0.4375*
1,1,0.8750,0.8875,0.4375*
1,1,0.8750,0.8875,-0.4375*
1,1,0.8750,-0.8875,-0.4375*
%
%ADD26ROUNDEDRECTD26*%
G04:AMPARAMS|DCode=27|XSize=1.8mm|YSize=2.8mm|CornerRadius=0.18mm|HoleSize=0mm|Usage=FLASHONLY|Rotation=180.000|XOffset=0mm|YOffset=0mm|HoleType=Round|Shape=RoundedRectangle|*
%AMROUNDEDRECTD27*
21,1,1.8000,2.4400,0,0,180.0*
21,1,1.4400,2.8000,0,0,180.0*
1,1,0.3600,-0.7200,1.2200*
1,1,0.3600,0.7200,1.2200*
1,1,0.3600,0.7200,-1.2200*
1,1,0.3600,-0.7200,-1.2200*
%
%ADD27ROUNDEDRECTD27*%
G04:AMPARAMS|DCode=28|XSize=1.25mm|YSize=1mm|CornerRadius=0.25mm|HoleSize=0mm|Usage=FLASHONLY|Rotation=90.000|XOffset=0mm|YOffset=0mm|HoleType=Round|Shape=RoundedRectangle|*
%AMROUNDEDRECTD28*
21,1,1.2500,0.5000,0,0,90.0*
21,1,0.7500,1.0000,0,0,90.0*
1,1,0.5000,0.2500,0.3750*
1,1,0.5000,0.2500,-0.3750*
1,1,0.5000,-0.2500,-0.3750*
1,1,0.5000,-0.2500,0.3750*
%
%ADD28ROUNDEDRECTD28*%
%ADD29O,0.4000X1.9000*%
G04:AMPARAMS|DCode=30|XSize=0.9mm|YSize=0.8mm|CornerRadius=0.2mm|HoleSize=0mm|Usage=FLASHONLY|Rotation=180.000|XOffset=0mm|YOffset=0mm|HoleType=Round|Shape=RoundedRectangle|*
%AMROUNDEDRECTD30*
21,1,0.9000,0.4000,0,0,180.0*
21,1,0.5000,0.8000,0,0,180.0*
1,1,0.4000,-0.2500,0.2000*
1,1,0.4000,0.2500,0.2000*
1,1,0.4000,0.2500,-0.2000*
1,1,0.4000,-0.2500,-0.2000*
%
%ADD30ROUNDEDRECTD30*%
G04:AMPARAMS|DCode=31|XSize=0.7mm|YSize=1mm|CornerRadius=0.175mm|HoleSize=0mm|Usage=FLASHONLY|Rotation=0.000|XOffset=0mm|YOffset=0mm|HoleType=Round|Shape=RoundedRectangle|*
%AMROUNDEDRECTD31*
21,1,0.7000,0.6500,0,0,0.0*
21,1,0.3500,1.0000,0,0,0.0*
1,1,0.3500,0.1750,-0.3250*
1,1,0.3500,-0.1750,-0.3250*
1,1,0.3500,-0.1750,0.3250*
1,1,0.3500,0.1750,0.3250*
%
%ADD31ROUNDEDRECTD31*%
G04:AMPARAMS|DCode=32|XSize=0.8mm|YSize=0.85mm|CornerRadius=0.2mm|HoleSize=0mm|Usage=FLASHONLY|Rotation=180.000|XOffset=0mm|YOffset=0mm|HoleType=Round|Shape=RoundedRectangle|*
%AMROUNDEDRECTD32*
21,1,0.8000,0.4500,0,0,180.0*
21,1,0.4000,0.8500,0,0,180.0*
1,1,0.4000,-0.2000,0.2250*
1,1,0.4000,0.2000,0.2250*
1,1,0.4000,0.2000,-0.2250*
1,1,0.4000,-0.2000,-0.2250*
%
%ADD32ROUNDEDRECTD32*%
G04:AMPARAMS|DCode=33|XSize=0.6mm|YSize=2.2mm|CornerRadius=0.15mm|HoleSize=0mm|Usage=FLASHONLY|Rotation=0.000|XOffset=0mm|YOffset=0mm|HoleType=Round|Shape=RoundedRectangle|*
%AMROUNDEDRECTD33*
21,1,0.6000,1.9000,0,0,0.0*
21,1,0.3000,2.2000,0,0,0.0*
1,1,0.3000,0.1500,-0.9500*
1,1,0.3000,-0.1500,-0.9500*
1,1,0.3000,-0.1500,0.9500*
1,1,0.3000,0.1500,0.9500*
%
%ADD33ROUNDEDRECTD33*%
G04:AMPARAMS|DCode=34|XSize=2.2mm|YSize=2.8mm|CornerRadius=0.33mm|HoleSize=0mm|Usage=FLASHONLY|Rotation=90.000|XOffset=0mm|YOffset=0mm|HoleType=Round|Shape=RoundedRectangle|*
%AMROUNDEDRECTD34*
21,1,2.2000,2.1400,0,0,90.0*
21,1,1.5400,2.8000,0,0,90.0*
1,1,0.6600,1.0700,0.7700*
1,1,0.6600,1.0700,-0.7700*
1,1,0.6600,-1.0700,-0.7700*
1,1,0.6600,-1.0700,0.7700*
%
%ADD34ROUNDEDRECTD34*%
G04:AMPARAMS|DCode=35|XSize=1mm|YSize=0.8mm|CornerRadius=0.2mm|HoleSize=0mm|Usage=FLASHONLY|Rotation=90.000|XOffset=0mm|YOffset=0mm|HoleType=Round|Shape=RoundedRectangle|*
%AMROUNDEDRECTD35*
21,1,1.0000,0.4000,0,0,90.0*
21,1,0.6000,0.8000,0,0,90.0*
1,1,0.4000,0.2000,0.3000*
1,1,0.4000,0.2000,-0.3000*
1,1,0.4000,-0.2000,-0.3000*
1,1,0.4000,-0.2000,0.3000*
%
%ADD35ROUNDEDRECTD35*%
G04:AMPARAMS|DCode=36|XSize=0.5mm|YSize=0.65mm|CornerRadius=0.125mm|HoleSize=0mm|Usage=FLASHONLY|Rotation=180.000|XOffset=0mm|YOffset=0mm|HoleType=Round|Shape=RoundedRectangle|*
%AMROUNDEDRECTD36*
21,1,0.5000,0.4000,0,0,180.0*
21,1,0.2500,0.6500,0,0,180.0*
1,1,0.2500,-0.1250,0.2000*
1,1,0.2500,0.1250,0.2000*
1,1,0.2500,0.1250,-0.2000*
1,1,0.2500,-0.1250,-0.2000*
%
%ADD36ROUNDEDRECTD36*%
G04:AMPARAMS|DCode=37|XSize=0.3mm|YSize=1.9mm|CornerRadius=0.075mm|HoleSize=0mm|Usage=FLASHONLY|Rotation=270.000|XOffset=0mm|YOffset=0mm|HoleType=Round|Shape=RoundedRectangle|*
%AMROUNDEDRECTD37*
21,1,0.3000,1.7500,0,0,270.0*
21,1,0.1500,1.9000,0,0,270.0*
1,1,0.1500,-0.8750,-0.0750*
1,1,0.1500,-0.8750,0.0750*
1,1,0.1500,0.8750,0.0750*
1,1,0.1500,0.8750,-0.0750*
%
%ADD37ROUNDEDRECTD37*%
G04:AMPARAMS|DCode=38|XSize=0.3mm|YSize=1.9mm|CornerRadius=0.075mm|HoleSize=0mm|Usage=FLASHONLY|Rotation=180.000|XOffset=0mm|YOffset=0mm|HoleType=Round|Shape=RoundedRectangle|*
%AMROUNDEDRECTD38*
21,1,0.3000,1.7500,0,0,180.0*
21,1,0.1500,1.9000,0,0,180.0*
1,1,0.1500,-0.0750,0.8750*
1,1,0.1500,0.0750,0.8750*
1,1,0.1500,0.0750,-0.8750*
1,1,0.1500,-0.0750,-0.8750*
%
%ADD38ROUNDEDRECTD38*%
G04:AMPARAMS|DCode=39|XSize=6mm|YSize=6mm|CornerRadius=0.3mm|HoleSize=0mm|Usage=FLASHONLY|Rotation=270.000|XOffset=0mm|YOffset=0mm|HoleType=Round|Shape=RoundedRectangle|*
%AMROUNDEDRECTD39*
21,1,6.0000,5.4000,0,0,270.0*
21,1,5.4000,6.0000,0,0,270.0*
1,1,0.6000,-2.7000,-2.7000*
1,1,0.6000,-2.7000,2.7000*
1,1,0.6000,2.7000,2.7000*
1,1,0.6000,2.7000,-2.7000*
%
%ADD39ROUNDEDRECTD39*%
%ADD40C,0.3000*%
%ADD41C,0.2540*%
%ADD42C,1.0000*%
%ADD43C,0.4000*%
%ADD44C,0.7000*%
%ADD45C,0.5000*%
%ADD46C,0.2500*%
%ADD47C,0.2000*%
%ADD48C,2.0000*%
%ADD49C,1.6000*%
%ADD50C,2.5000*%
%ADD51C,2.0000*%
%ADD52C,1.3000*%
%ADD53C,2.2000*%
%ADD54C,0.6000*%
%ADD55C,1.0000*%
%ADD56C,0.7000*%
%ADD57C,1.0160*%
%ADD58C,2.0160*%
G04:AMPARAMS|DCode=59|XSize=2.524mm|YSize=2.524mm|CornerRadius=0mm|HoleSize=0mm|Usage=FLASHONLY|Rotation=0.000|XOffset=0mm|YOffset=0mm|HoleType=Round|Shape=Relief|Width=0.254mm|Gap=0.254mm|Entries=4|*
%AMTHD59*
7,0,0,2.5240,2.0160,0.2540,45*
%
%ADD59THD59*%
%ADD60C,2.6160*%
%ADD61C,2.2160*%
%ADD62C,2.6160*%
G04:AMPARAMS|DCode=63|XSize=3.124mm|YSize=3.124mm|CornerRadius=0mm|HoleSize=0mm|Usage=FLASHONLY|Rotation=0.000|XOffset=0mm|YOffset=0mm|HoleType=Round|Shape=Relief|Width=0.254mm|Gap=0.254mm|Entries=4|*
%AMTHD63*
7,0,0,3.1240,2.6160,0.2540,45*
%
%ADD63THD63*%
%ADD64C,2.3160*%
G04:AMPARAMS|DCode=65|XSize=2.824mm|YSize=2.824mm|CornerRadius=0mm|HoleSize=0mm|Usage=FLASHONLY|Rotation=0.000|XOffset=0mm|YOffset=0mm|HoleType=Round|Shape=Relief|Width=0.254mm|Gap=0.254mm|Entries=4|*
%AMTHD65*
7,0,0,2.8240,2.3160,0.2540,45*
%
%ADD65THD65*%
%ADD66C,1.8160*%
G04:AMPARAMS|DCode=67|XSize=2.324mm|YSize=2.324mm|CornerRadius=0mm|HoleSize=0mm|Usage=FLASHONLY|Rotation=0.000|XOffset=0mm|YOffset=0mm|HoleType=Round|Shape=Relief|Width=0.254mm|Gap=0.254mm|Entries=4|*
%AMTHD67*
7,0,0,2.3240,1.8160,0.2540,45*
%
%ADD67THD67*%
%ADD68C,6.0960*%
G04:AMPARAMS|DCode=69|XSize=1.824mm|YSize=1.824mm|CornerRadius=0mm|HoleSize=0mm|Usage=FLASHONLY|Rotation=0.000|XOffset=0mm|YOffset=0mm|HoleType=Round|Shape=Relief|Width=0.254mm|Gap=0.254mm|Entries=4|*
%AMTHD69*
7,0,0,1.8240,1.3160,0.2540,45*
%
%ADD69THD69*%
%ADD70C,1.3160*%
G04:AMPARAMS|DCode=71|XSize=2.124mm|YSize=2.124mm|CornerRadius=0mm|HoleSize=0mm|Usage=FLASHONLY|Rotation=0.000|XOffset=0mm|YOffset=0mm|HoleType=Round|Shape=Relief|Width=0.254mm|Gap=0.254mm|Entries=4|*
%AMTHD71*
7,0,0,2.1240,1.6160,0.2540,45*
%
%ADD71THD71*%
%ADD72C,1.6160*%
%ADD73C,0.0254*%
%ADD74C,0.3500*%
G04:AMPARAMS|DCode=75|XSize=1mm|YSize=1.2mm|CornerRadius=0.3mm|HoleSize=0mm|Usage=FLASHONLY|Rotation=270.000|XOffset=0mm|YOffset=0mm|HoleType=Round|Shape=RoundedRectangle|*
%AMROUNDEDRECTD75*
21,1,1.0000,0.6000,0,0,270.0*
21,1,0.4000,1.2000,0,0,270.0*
1,1,0.6000,-0.3000,-0.2000*
1,1,0.6000,-0.3000,0.2000*
1,1,0.6000,0.3000,0.2000*
1,1,0.6000,0.3000,-0.2000*
%
%ADD75ROUNDEDRECTD75*%
G04:AMPARAMS|DCode=76|XSize=1mm|YSize=1.2mm|CornerRadius=0.3mm|HoleSize=0mm|Usage=FLASHONLY|Rotation=0.000|XOffset=0mm|YOffset=0mm|HoleType=Round|Shape=RoundedRectangle|*
%AMROUNDEDRECTD76*
21,1,1.0000,0.6000,0,0,0.0*
21,1,0.4000,1.2000,0,0,0.0*
1,1,0.6000,0.2000,-0.3000*
1,1,0.6000,-0.2000,-0.3000*
1,1,0.6000,-0.2000,0.3000*
1,1,0.6000,0.2000,0.3000*
%
%ADD76ROUNDEDRECTD76*%
G04:AMPARAMS|DCode=77|XSize=1.1032mm|YSize=1.0032mm|CornerRadius=0.3016mm|HoleSize=0mm|Usage=FLASHONLY|Rotation=90.000|XOffset=0mm|YOffset=0mm|HoleType=Round|Shape=RoundedRectangle|*
%AMROUNDEDRECTD77*
21,1,1.1032,0.4000,0,0,90.0*
21,1,0.5000,1.0032,0,0,90.0*
1,1,0.6032,0.2000,0.2500*
1,1,0.6032,0.2000,-0.2500*
1,1,0.6032,-0.2000,-0.2500*
1,1,0.6032,-0.2000,0.2500*
%
%ADD77ROUNDEDRECTD77*%
G04:AMPARAMS|DCode=78|XSize=0.6532mm|YSize=1.0032mm|CornerRadius=0.2141mm|HoleSize=0mm|Usage=FLASHONLY|Rotation=180.000|XOffset=0mm|YOffset=0mm|HoleType=Round|Shape=RoundedRectangle|*
%AMROUNDEDRECTD78*
21,1,0.6532,0.5750,0,0,180.0*
21,1,0.2250,1.0032,0,0,180.0*
1,1,0.4282,-0.1125,0.2875*
1,1,0.4282,0.1125,0.2875*
1,1,0.4282,0.1125,-0.2875*
1,1,0.4282,-0.1125,-0.2875*
%
%ADD78ROUNDEDRECTD78*%
G04:AMPARAMS|DCode=79|XSize=1.2032mm|YSize=1.0032mm|CornerRadius=0.3016mm|HoleSize=0mm|Usage=FLASHONLY|Rotation=180.000|XOffset=0mm|YOffset=0mm|HoleType=Round|Shape=RoundedRectangle|*
%AMROUNDEDRECTD79*
21,1,1.2032,0.4000,0,0,180.0*
21,1,0.6000,1.0032,0,0,180.0*
1,1,0.6032,-0.3000,0.2000*
1,1,0.6032,0.3000,0.2000*
1,1,0.6032,0.3000,-0.2000*
1,1,0.6032,-0.3000,-0.2000*
%
%ADD79ROUNDEDRECTD79*%
G04:AMPARAMS|DCode=80|XSize=2mm|YSize=0.5mm|CornerRadius=0.15mm|HoleSize=0mm|Usage=FLASHONLY|Rotation=180.000|XOffset=0mm|YOffset=0mm|HoleType=Round|Shape=RoundedRectangle|*
%AMROUNDEDRECTD80*
21,1,2.0000,0.2000,0,0,180.0*
21,1,1.7000,0.5000,0,0,180.0*
1,1,0.3000,-0.8500,0.1000*
1,1,0.3000,0.8500,0.1000*
1,1,0.3000,0.8500,-0.1000*
1,1,0.3000,-0.8500,-0.1000*
%
%ADD80ROUNDEDRECTD80*%
G04:AMPARAMS|DCode=81|XSize=1.0032mm|YSize=1.0532mm|CornerRadius=0.3016mm|HoleSize=0mm|Usage=FLASHONLY|Rotation=90.000|XOffset=0mm|YOffset=0mm|HoleType=Round|Shape=RoundedRectangle|*
%AMROUNDEDRECTD81*
21,1,1.0032,0.4500,0,0,90.0*
21,1,0.4000,1.0532,0,0,90.0*
1,1,0.6032,0.2250,0.2000*
1,1,0.6032,0.2250,-0.2000*
1,1,0.6032,-0.2250,-0.2000*
1,1,0.6032,-0.2250,0.2000*
%
%ADD81ROUNDEDRECTD81*%
G04:AMPARAMS|DCode=82|XSize=1.8032mm|YSize=1.5032mm|CornerRadius=0.4266mm|HoleSize=0mm|Usage=FLASHONLY|Rotation=0.000|XOffset=0mm|YOffset=0mm|HoleType=Round|Shape=RoundedRectangle|*
%AMROUNDEDRECTD82*
21,1,1.8032,0.6500,0,0,0.0*
21,1,0.9500,1.5032,0,0,0.0*
1,1,0.8532,0.4750,-0.3250*
1,1,0.8532,-0.4750,-0.3250*
1,1,0.8532,-0.4750,0.3250*
1,1,0.8532,0.4750,0.3250*
%
%ADD82ROUNDEDRECTD82*%
G04:AMPARAMS|DCode=83|XSize=2.2mm|YSize=1.8mm|CornerRadius=0.5mm|HoleSize=0mm|Usage=FLASHONLY|Rotation=90.000|XOffset=0mm|YOffset=0mm|HoleType=Round|Shape=RoundedRectangle|*
%AMROUNDEDRECTD83*
21,1,2.2000,0.8000,0,0,90.0*
21,1,1.2000,1.8000,0,0,90.0*
1,1,1.0000,0.4000,0.6000*
1,1,1.0000,0.4000,-0.6000*
1,1,1.0000,-0.4000,-0.6000*
1,1,1.0000,-0.4000,0.6000*
%
%ADD83ROUNDEDRECTD83*%
G04:AMPARAMS|DCode=84|XSize=2.2mm|YSize=2.8mm|CornerRadius=0.6mm|HoleSize=0mm|Usage=FLASHONLY|Rotation=90.000|XOffset=0mm|YOffset=0mm|HoleType=Round|Shape=RoundedRectangle|*
%AMROUNDEDRECTD84*
21,1,2.2000,1.6000,0,0,90.0*
21,1,1.0000,2.8000,0,0,90.0*
1,1,1.2000,0.8000,0.5000*
1,1,1.2000,0.8000,-0.5000*
1,1,1.2000,-0.8000,-0.5000*
1,1,1.2000,-0.8000,0.5000*
%
%ADD84ROUNDEDRECTD84*%
G04:AMPARAMS|DCode=85|XSize=1.4532mm|YSize=1.2032mm|CornerRadius=0.3516mm|HoleSize=0mm|Usage=FLASHONLY|Rotation=180.000|XOffset=0mm|YOffset=0mm|HoleType=Round|Shape=RoundedRectangle|*
%AMROUNDEDRECTD85*
21,1,1.4532,0.5000,0,0,180.0*
21,1,0.7500,1.2032,0,0,180.0*
1,1,0.7032,-0.3750,0.2500*
1,1,0.7032,0.3750,0.2500*
1,1,0.7032,0.3750,-0.2500*
1,1,0.7032,-0.3750,-0.2500*
%
%ADD85ROUNDEDRECTD85*%
G04:AMPARAMS|DCode=86|XSize=2.0032mm|YSize=3.0032mm|CornerRadius=0.2816mm|HoleSize=0mm|Usage=FLASHONLY|Rotation=90.000|XOffset=0mm|YOffset=0mm|HoleType=Round|Shape=RoundedRectangle|*
%AMROUNDEDRECTD86*
21,1,2.0032,2.4400,0,0,90.0*
21,1,1.4400,3.0032,0,0,90.0*
1,1,0.5632,1.2200,0.7200*
1,1,0.5632,1.2200,-0.7200*
1,1,0.5632,-1.2200,-0.7200*
1,1,0.5632,-1.2200,0.7200*
%
%ADD86ROUNDEDRECTD86*%
G04:AMPARAMS|DCode=87|XSize=0.9032mm|YSize=1.2032mm|CornerRadius=0.2766mm|HoleSize=0mm|Usage=FLASHONLY|Rotation=270.000|XOffset=0mm|YOffset=0mm|HoleType=Round|Shape=RoundedRectangle|*
%AMROUNDEDRECTD87*
21,1,0.9032,0.6500,0,0,270.0*
21,1,0.3500,1.2032,0,0,270.0*
1,1,0.5532,-0.3250,-0.1750*
1,1,0.5532,-0.3250,0.1750*
1,1,0.5532,0.3250,0.1750*
1,1,0.5532,0.3250,-0.1750*
%
%ADD87ROUNDEDRECTD87*%
G04:AMPARAMS|DCode=88|XSize=2.2mm|YSize=1.8mm|CornerRadius=0.5mm|HoleSize=0mm|Usage=FLASHONLY|Rotation=0.000|XOffset=0mm|YOffset=0mm|HoleType=Round|Shape=RoundedRectangle|*
%AMROUNDEDRECTD88*
21,1,2.2000,0.8000,0,0,0.0*
21,1,1.2000,1.8000,0,0,0.0*
1,1,1.0000,0.6000,-0.4000*
1,1,1.0000,-0.6000,-0.4000*
1,1,1.0000,-0.6000,0.4000*
1,1,1.0000,0.6000,0.4000*
%
%ADD88ROUNDEDRECTD88*%
G04:AMPARAMS|DCode=89|XSize=2.2mm|YSize=2.8mm|CornerRadius=0.6mm|HoleSize=0mm|Usage=FLASHONLY|Rotation=0.000|XOffset=0mm|YOffset=0mm|HoleType=Round|Shape=RoundedRectangle|*
%AMROUNDEDRECTD89*
21,1,2.2000,1.6000,0,0,0.0*
21,1,1.0000,2.8000,0,0,0.0*
1,1,1.2000,0.5000,-0.8000*
1,1,1.2000,-0.5000,-0.8000*
1,1,1.2000,-0.5000,0.8000*
1,1,1.2000,0.5000,0.8000*
%
%ADD89ROUNDEDRECTD89*%
G04:AMPARAMS|DCode=90|XSize=2.6032mm|YSize=3.2032mm|CornerRadius=0.3416mm|HoleSize=0mm|Usage=FLASHONLY|Rotation=270.000|XOffset=0mm|YOffset=0mm|HoleType=Round|Shape=RoundedRectangle|*
%AMROUNDEDRECTD90*
21,1,2.6032,2.5200,0,0,270.0*
21,1,1.9200,3.2032,0,0,270.0*
1,1,0.6832,-1.2600,-0.9600*
1,1,0.6832,-1.2600,0.9600*
1,1,0.6832,1.2600,0.9600*
1,1,0.6832,1.2600,-0.9600*
%
%ADD90ROUNDEDRECTD90*%
G04:AMPARAMS|DCode=91|XSize=2.8532mm|YSize=1.9532mm|CornerRadius=0.5391mm|HoleSize=0mm|Usage=FLASHONLY|Rotation=180.000|XOffset=0mm|YOffset=0mm|HoleType=Round|Shape=RoundedRectangle|*
%AMROUNDEDRECTD91*
21,1,2.8532,0.8750,0,0,180.0*
21,1,1.7750,1.9532,0,0,180.0*
1,1,1.0782,-0.8875,0.4375*
1,1,1.0782,0.8875,0.4375*
1,1,1.0782,0.8875,-0.4375*
1,1,1.0782,-0.8875,-0.4375*
%
%ADD91ROUNDEDRECTD91*%
G04:AMPARAMS|DCode=92|XSize=2.0032mm|YSize=3.0032mm|CornerRadius=0.2816mm|HoleSize=0mm|Usage=FLASHONLY|Rotation=180.000|XOffset=0mm|YOffset=0mm|HoleType=Round|Shape=RoundedRectangle|*
%AMROUNDEDRECTD92*
21,1,2.0032,2.4400,0,0,180.0*
21,1,1.4400,3.0032,0,0,180.0*
1,1,0.5632,-0.7200,1.2200*
1,1,0.5632,0.7200,1.2200*
1,1,0.5632,0.7200,-1.2200*
1,1,0.5632,-0.7200,-1.2200*
%
%ADD92ROUNDEDRECTD92*%
G04:AMPARAMS|DCode=93|XSize=1.4532mm|YSize=1.2032mm|CornerRadius=0.3516mm|HoleSize=0mm|Usage=FLASHONLY|Rotation=90.000|XOffset=0mm|YOffset=0mm|HoleType=Round|Shape=RoundedRectangle|*
%AMROUNDEDRECTD93*
21,1,1.4532,0.5000,0,0,90.0*
21,1,0.7500,1.2032,0,0,90.0*
1,1,0.7032,0.2500,0.3750*
1,1,0.7032,0.2500,-0.3750*
1,1,0.7032,-0.2500,-0.3750*
1,1,0.7032,-0.2500,0.3750*
%
%ADD93ROUNDEDRECTD93*%
%ADD94O,0.5000X2.0000*%
G04:AMPARAMS|DCode=95|XSize=1.1032mm|YSize=1.0032mm|CornerRadius=0.3016mm|HoleSize=0mm|Usage=FLASHONLY|Rotation=180.000|XOffset=0mm|YOffset=0mm|HoleType=Round|Shape=RoundedRectangle|*
%AMROUNDEDRECTD95*
21,1,1.1032,0.4000,0,0,180.0*
21,1,0.5000,1.0032,0,0,180.0*
1,1,0.6032,-0.2500,0.2000*
1,1,0.6032,0.2500,0.2000*
1,1,0.6032,0.2500,-0.2000*
1,1,0.6032,-0.2500,-0.2000*
%
%ADD95ROUNDEDRECTD95*%
G04:AMPARAMS|DCode=96|XSize=0.9032mm|YSize=1.2032mm|CornerRadius=0.2766mm|HoleSize=0mm|Usage=FLASHONLY|Rotation=0.000|XOffset=0mm|YOffset=0mm|HoleType=Round|Shape=RoundedRectangle|*
%AMROUNDEDRECTD96*
21,1,0.9032,0.6500,0,0,0.0*
21,1,0.3500,1.2032,0,0,0.0*
1,1,0.5532,0.1750,-0.3250*
1,1,0.5532,-0.1750,-0.3250*
1,1,0.5532,-0.1750,0.3250*
1,1,0.5532,0.1750,0.3250*
%
%ADD96ROUNDEDRECTD96*%
G04:AMPARAMS|DCode=97|XSize=1.0032mm|YSize=1.0532mm|CornerRadius=0.3016mm|HoleSize=0mm|Usage=FLASHONLY|Rotation=180.000|XOffset=0mm|YOffset=0mm|HoleType=Round|Shape=RoundedRectangle|*
%AMROUNDEDRECTD97*
21,1,1.0032,0.4500,0,0,180.0*
21,1,0.4000,1.0532,0,0,180.0*
1,1,0.6032,-0.2000,0.2250*
1,1,0.6032,0.2000,0.2250*
1,1,0.6032,0.2000,-0.2250*
1,1,0.6032,-0.2000,-0.2250*
%
%ADD97ROUNDEDRECTD97*%
G04:AMPARAMS|DCode=98|XSize=0.8032mm|YSize=2.4032mm|CornerRadius=0.2516mm|HoleSize=0mm|Usage=FLASHONLY|Rotation=0.000|XOffset=0mm|YOffset=0mm|HoleType=Round|Shape=RoundedRectangle|*
%AMROUNDEDRECTD98*
21,1,0.8032,1.9000,0,0,0.0*
21,1,0.3000,2.4032,0,0,0.0*
1,1,0.5032,0.1500,-0.9500*
1,1,0.5032,-0.1500,-0.9500*
1,1,0.5032,-0.1500,0.9500*
1,1,0.5032,0.1500,0.9500*
%
%ADD98ROUNDEDRECTD98*%
G04:AMPARAMS|DCode=99|XSize=2.4032mm|YSize=3.0032mm|CornerRadius=0.4316mm|HoleSize=0mm|Usage=FLASHONLY|Rotation=90.000|XOffset=0mm|YOffset=0mm|HoleType=Round|Shape=RoundedRectangle|*
%AMROUNDEDRECTD99*
21,1,2.4032,2.1400,0,0,90.0*
21,1,1.5400,3.0032,0,0,90.0*
1,1,0.8632,1.0700,0.7700*
1,1,0.8632,1.0700,-0.7700*
1,1,0.8632,-1.0700,-0.7700*
1,1,0.8632,-1.0700,0.7700*
%
%ADD99ROUNDEDRECTD99*%
G04:AMPARAMS|DCode=100|XSize=1.2032mm|YSize=1.0032mm|CornerRadius=0.3016mm|HoleSize=0mm|Usage=FLASHONLY|Rotation=90.000|XOffset=0mm|YOffset=0mm|HoleType=Round|Shape=RoundedRectangle|*
%AMROUNDEDRECTD100*
21,1,1.2032,0.4000,0,0,90.0*
21,1,0.6000,1.0032,0,0,90.0*
1,1,0.6032,0.2000,0.3000*
1,1,0.6032,0.2000,-0.3000*
1,1,0.6032,-0.2000,-0.3000*
1,1,0.6032,-0.2000,0.3000*
%
%ADD100ROUNDEDRECTD100*%
G04:AMPARAMS|DCode=101|XSize=0.7032mm|YSize=0.8532mm|CornerRadius=0.2266mm|HoleSize=0mm|Usage=FLASHONLY|Rotation=180.000|XOffset=0mm|YOffset=0mm|HoleType=Round|Shape=RoundedRectangle|*
%AMROUNDEDRECTD101*
21,1,0.7032,0.4000,0,0,180.0*
21,1,0.2500,0.8532,0,0,180.0*
1,1,0.4532,-0.1250,0.2000*
1,1,0.4532,0.1250,0.2000*
1,1,0.4532,0.1250,-0.2000*
1,1,0.4532,-0.1250,-0.2000*
%
%ADD101ROUNDEDRECTD101*%
G04:AMPARAMS|DCode=102|XSize=0.4mm|YSize=2mm|CornerRadius=0.125mm|HoleSize=0mm|Usage=FLASHONLY|Rotation=270.000|XOffset=0mm|YOffset=0mm|HoleType=Round|Shape=RoundedRectangle|*
%AMROUNDEDRECTD102*
21,1,0.4000,1.7500,0,0,270.0*
21,1,0.1500,2.0000,0,0,270.0*
1,1,0.2500,-0.8750,-0.0750*
1,1,0.2500,-0.8750,0.0750*
1,1,0.2500,0.8750,0.0750*
1,1,0.2500,0.8750,-0.0750*
%
%ADD102ROUNDEDRECTD102*%
G04:AMPARAMS|DCode=103|XSize=0.4mm|YSize=2mm|CornerRadius=0.125mm|HoleSize=0mm|Usage=FLASHONLY|Rotation=180.000|XOffset=0mm|YOffset=0mm|HoleType=Round|Shape=RoundedRectangle|*
%AMROUNDEDRECTD103*
21,1,0.4000,1.7500,0,0,180.0*
21,1,0.1500,2.0000,0,0,180.0*
1,1,0.2500,-0.0750,0.8750*
1,1,0.2500,0.0750,0.8750*
1,1,0.2500,0.0750,-0.8750*
1,1,0.2500,-0.0750,-0.8750*
%
%ADD103ROUNDEDRECTD103*%
G04:AMPARAMS|DCode=104|XSize=6.2mm|YSize=6.2mm|CornerRadius=0.4mm|HoleSize=0mm|Usage=FLASHONLY|Rotation=270.000|XOffset=0mm|YOffset=0mm|HoleType=Round|Shape=RoundedRectangle|*
%AMROUNDEDRECTD104*
21,1,6.2000,5.4000,0,0,270.0*
21,1,5.4000,6.2000,0,0,270.0*
1,1,0.8000,-2.7000,-2.7000*
1,1,0.8000,-2.7000,2.7000*
1,1,0.8000,2.7000,2.7000*
1,1,0.8000,2.7000,-2.7000*
%
%ADD104ROUNDEDRECTD104*%
%ADD105C,1.8000*%
%ADD106C,2.7032*%
%ADD107C,1.8032*%
%ADD108C,2.2032*%
%ADD109C,1.5032*%
%ADD110C,0.2032*%
%ADD111C,2.4032*%
%ADD112C,0.8032*%
%ADD113C,1.2032*%
%ADD114C,0.9032*%
%ADD115C,0.0500*%
G36*
X01233203Y01263696D02*
X01233355Y01263673D01*
X01233531Y01263638D01*
X0123373Y01263591D01*
X01233929Y01263521D01*
X01234128Y01263427D01*
X01234139D01*
X01234151Y01263415D01*
X01234221Y0126338D01*
X01234315Y01263322D01*
X01234432Y0126324D01*
X01234561Y01263134D01*
X01234702Y01263006D01*
X0123483Y01262853D01*
X01234948Y01262689D01*
X01234959Y01262666D01*
X01234994Y01262607D01*
X01235041Y01262514D01*
X01235088Y01262397D01*
X01235135Y01262244D01*
X01235182Y01262081D01*
X01235217Y01261905D01*
X01235229Y01261706D01*
Y01261682D01*
Y01261624D01*
X01235217Y0126153D01*
X01235193Y01261413D01*
X01235158Y01261273D01*
X01235111Y0126112D01*
X01235053Y01260956D01*
X01234959Y01260804D01*
X01234948Y01260781D01*
X01234912Y01260734D01*
X01234842Y01260664D01*
X0123476Y0126057D01*
X01234643Y01260465D01*
X01234514Y01260359D01*
X0123435Y01260242D01*
X01234163Y01260148D01*
X01234175D01*
X01234198Y01260137D01*
X01234233D01*
X0123428Y01260113D01*
X01234397Y01260078D01*
X01234549Y01260008D01*
X01234713Y01259926D01*
X01234889Y01259809D01*
X01235065Y01259668D01*
X01235217Y01259493D01*
X01235229Y01259469D01*
X01235275Y01259399D01*
X01235334Y01259294D01*
X01235416Y01259153D01*
X01235486Y01258978D01*
X01235545Y01258767D01*
X01235592Y01258521D01*
X01235603Y01258251D01*
Y0125824D01*
Y01258205D01*
Y01258158D01*
X01235592Y01258088D01*
X0123558Y01257994D01*
X01235568Y012579D01*
X01235545Y01257783D01*
X01235509Y01257666D01*
X01235428Y01257397D01*
X01235369Y01257244D01*
X01235287Y01257104D01*
X01235205Y01256963D01*
X01235111Y01256823D01*
X01234994Y01256682D01*
X01234865Y01256542D01*
X01234854Y0125653D01*
X0123483Y01256507D01*
X01234795Y01256483D01*
X01234737Y01256436D01*
X01234666Y01256378D01*
X01234573Y01256319D01*
X01234467Y01256261D01*
X01234362Y01256202D01*
X01234233Y01256132D01*
X01234093Y01256074D01*
X01233941Y01256015D01*
X01233776Y01255956D01*
X01233601Y0125591D01*
X01233413Y01255886D01*
X01233214Y01255863D01*
X01233015Y01255851D01*
X01232922D01*
X01232851Y01255863D01*
X01232758Y01255874D01*
X01232664Y01255886D01*
X01232547Y01255898D01*
X0123243Y01255921D01*
X01232161Y01255992D01*
X0123188Y01256109D01*
X01231739Y01256167D01*
X0123161Y01256249D01*
X0123147Y01256343D01*
X01231341Y01256448D01*
X01231329Y0125646D01*
X01231318Y01256472D01*
X01231282Y01256507D01*
X01231236Y01256554D01*
X01231189Y01256624D01*
X0123113Y01256694D01*
X0123106Y01256776D01*
X01231001Y0125687D01*
X01230861Y01257104D01*
X01230744Y01257373D01*
X01230638Y01257678D01*
X01230603Y01257842D01*
X0123058Y01258017D01*
X01231528Y01258146D01*
Y01258134D01*
X0123154Y01258111D01*
Y01258064D01*
X01231563Y01258017D01*
X01231599Y01257877D01*
X01231657Y01257701D01*
X01231727Y01257514D01*
X01231821Y01257315D01*
X01231938Y01257139D01*
X01232067Y01256987D01*
X0123209Y01256975D01*
X01232137Y01256928D01*
X01232219Y01256881D01*
X01232336Y01256811D01*
X01232465Y01256753D01*
X01232629Y01256694D01*
X01232816Y01256647D01*
X01233015Y01256636D01*
X01233086D01*
X01233132Y01256647D01*
X0123325Y01256659D01*
X01233402Y01256694D01*
X01233589Y01256753D01*
X01233776Y01256823D01*
X01233964Y0125694D01*
X01234139Y01257092D01*
X01234163Y01257116D01*
X0123421Y01257174D01*
X0123428Y01257268D01*
X01234374Y01257408D01*
X01234456Y01257572D01*
X01234526Y01257771D01*
X01234573Y01257994D01*
X01234596Y0125824D01*
Y01258251D01*
Y01258263D01*
Y01258298D01*
X01234585Y01258345D01*
X01234573Y01258462D01*
X01234538Y01258615D01*
X01234491Y01258778D01*
X01234409Y01258966D01*
X01234303Y01259141D01*
X01234163Y01259305D01*
X01234139Y01259329D01*
X01234093Y01259376D01*
X01233999Y01259434D01*
X0123387Y01259516D01*
X01233718Y01259598D01*
X01233531Y01259657D01*
X01233332Y01259703D01*
X01233097Y01259727D01*
X01232992D01*
X0123291Y01259715D01*
X01232816Y01259703D01*
X01232699Y01259692D01*
X0123257Y01259668D01*
X0123243Y01259633D01*
X01232535Y01260465D01*
X01232594D01*
X01232641Y01260453D01*
X01232793D01*
X01232898Y01260465D01*
X01233051Y01260488D01*
X01233214Y01260523D01*
X0123339Y01260582D01*
X01233577Y01260652D01*
X01233765Y01260757D01*
X01233788Y01260769D01*
X01233847Y01260816D01*
X01233917Y01260898D01*
X01234011Y01261003D01*
X01234104Y01261132D01*
X01234175Y01261296D01*
X01234233Y01261495D01*
X01234257Y01261729D01*
Y01261741D01*
Y01261753D01*
Y01261811D01*
X01234233Y01261905D01*
X0123421Y01262034D01*
X01234175Y01262162D01*
X01234104Y01262303D01*
X01234022Y01262455D01*
X01233905Y01262584D01*
X01233894Y01262596D01*
X01233847Y01262643D01*
X01233765Y01262701D01*
X01233659Y0126276D01*
X01233531Y0126283D01*
X01233378Y01262877D01*
X01233203Y01262924D01*
X01233004Y01262935D01*
X0123291D01*
X01232805Y01262912D01*
X01232688Y01262888D01*
X01232535Y01262853D01*
X01232383Y01262783D01*
X01232231Y01262701D01*
X01232079Y01262584D01*
X01232067Y01262572D01*
X0123202Y01262525D01*
X01231962Y01262443D01*
X01231891Y01262326D01*
X01231809Y01262186D01*
X01231739Y0126201D01*
X01231669Y01261799D01*
X01231622Y01261553D01*
X01230674Y01261718D01*
Y01261729D01*
X01230685Y01261764D01*
X01230697Y01261811D01*
X01230709Y0126187D01*
X01230732Y01261952D01*
X01230755Y01262045D01*
X01230837Y01262256D01*
X01230931Y0126249D01*
X01231072Y01262736D01*
X01231236Y0126297D01*
X01231446Y01263181D01*
X01231458Y01263193D01*
X0123147Y01263205D01*
X01231505Y01263228D01*
X01231563Y01263263D01*
X01231622Y01263298D01*
X01231692Y01263345D01*
X01231868Y0126345D01*
X0123209Y01263544D01*
X0123236Y01263626D01*
X01232652Y01263685D01*
X01232816Y01263708D01*
X01233086D01*
X01233203Y01263696D01*
D02*
G37*
G36*
X01182614Y0125598D02*
X01181665D01*
Y01261999D01*
X01181653Y01261987D01*
X01181607Y0126194D01*
X01181525Y01261881D01*
X01181419Y01261799D01*
X0118129Y01261694D01*
X01181138Y01261589D01*
X01180963Y0126146D01*
X01180763Y01261343D01*
X01180752D01*
X0118074Y01261331D01*
X0118067Y01261284D01*
X01180564Y01261226D01*
X01180436Y01261155D01*
X01180283Y01261073D01*
X01180119Y01261003D01*
X01179944Y01260921D01*
X0117978Y01260851D01*
Y01261776D01*
X01179792D01*
X01179815Y01261788D01*
X01179862Y01261811D01*
X01179909Y01261846D01*
X01179979Y01261881D01*
X01180061Y01261917D01*
X01180248Y01262022D01*
X01180459Y01262151D01*
X01180693Y01262303D01*
X01180927Y01262479D01*
X0118115Y01262666D01*
X01181162Y01262678D01*
X01181173Y01262689D01*
X01181244Y0126276D01*
X01181349Y01262865D01*
X01181478Y01262994D01*
X01181618Y01263158D01*
X01181759Y01263333D01*
X01181888Y01263521D01*
X01181993Y01263708D01*
X01182614D01*
Y0125598D01*
D02*
G37*
G36*
X01406899Y00623519D02*
X01406162D01*
X0140615Y00623531D01*
X01406126Y00623554D01*
X0140608Y00623589D01*
X01406021Y00623648D01*
X01405939Y00623706D01*
X01405845Y00623788D01*
X01405728Y00623882D01*
X01405611Y00623976D01*
X01405471Y00624081D01*
X01405307Y00624198D01*
X01405143Y00624327D01*
X01404955Y00624444D01*
X01404756Y00624573D01*
X01404546Y00624713D01*
X01404312Y00624842D01*
X01404077Y00624983D01*
X01404066Y00624994D01*
X01404019Y00625018D01*
X01403949Y00625053D01*
X01403855Y006251D01*
X01403738Y00625158D01*
X01403597Y00625229D01*
X01403433Y00625311D01*
X01403258Y00625392D01*
X0140307Y00625475D01*
X01402859Y00625568D01*
X01402637Y00625662D01*
X01402403Y00625756D01*
X01401923Y00625931D01*
X01401408Y00626095D01*
X01401396D01*
X01401361Y00626107D01*
X01401314Y00626119D01*
X01401244Y00626142D01*
X0140115Y00626165D01*
X01401045Y00626189D01*
X01400916Y00626212D01*
X01400787Y00626247D01*
X01400635Y00626271D01*
X01400471Y00626306D01*
X01400119Y00626364D01*
X01399721Y00626411D01*
X013993Y00626446D01*
Y00627418D01*
X01399393D01*
X01399464Y00627407D01*
X01399546D01*
X01399651Y00627395D01*
X0139978Y00627383D01*
X01399909Y00627371D01*
X01400061Y00627348D01*
X01400237Y00627325D01*
X01400412Y00627301D01*
X014006Y00627266D01*
X0140081Y00627231D01*
X01401021Y00627184D01*
X0140149Y00627067D01*
X01401501D01*
X01401548Y00627055D01*
X01401618Y00627032D01*
X01401712Y00627008D01*
X01401829Y00626973D01*
X01401958Y00626926D01*
X0140211Y0062688D01*
X01402286Y00626821D01*
X01402461Y00626751D01*
X01402661Y0062668D01*
X01403082Y00626517D01*
X01403527Y00626317D01*
X01403972Y00626095D01*
X01403984Y00626083D01*
X0140403Y0062606D01*
X01404089Y00626025D01*
X01404171Y00625978D01*
X01404276Y00625919D01*
X01404393Y00625849D01*
X01404522Y00625767D01*
X01404675Y00625685D01*
X01404991Y00625475D01*
X0140533Y0062524D01*
X0140567Y00624994D01*
X01405998Y00624725D01*
Y00628495D01*
X01406899D01*
Y00623519D01*
D02*
G37*
G36*
X00902733Y00794308D02*
X00902792D01*
X00902874Y00794296D01*
X00903038Y00794273D01*
X00903237Y00794226D01*
X00903448Y00794156D01*
X00903659Y00794074D01*
X00903858Y00793945D01*
X00903869D01*
X00903881Y00793922D01*
X0090394Y00793875D01*
X00904033Y00793781D01*
X00904139Y00793664D01*
X00904256Y00793512D01*
X00904373Y00793325D01*
X00904478Y00793102D01*
X0090456Y00792856D01*
Y00792868D01*
X00904572Y0079288D01*
X00904595Y0079295D01*
X00904654Y00793055D01*
X00904712Y00793184D01*
X00904806Y00793336D01*
X00904911Y00793477D01*
X00905029Y00793617D01*
X00905169Y00793734D01*
X00905192Y00793746D01*
X00905239Y00793781D01*
X00905321Y00793828D01*
X00905438Y00793875D01*
X00905579Y00793922D01*
X00905743Y00793969D01*
X00905918Y00794004D01*
X00906117Y00794015D01*
X00906199D01*
X00906258Y00794004D01*
X00906328Y00793992D01*
X0090641Y0079398D01*
X00906609Y00793945D01*
X00906832Y00793875D01*
X00907066Y00793758D01*
X00907195Y00793699D01*
X00907312Y00793617D01*
X00907429Y00793524D01*
X00907534Y00793418D01*
X00907546Y00793407D01*
X00907558Y00793395D01*
X00907593Y0079336D01*
X00907628Y00793313D01*
X00907663Y00793243D01*
X00907722Y00793172D01*
X00907768Y0079309D01*
X00907827Y00792985D01*
X00907932Y00792763D01*
X00908014Y00792482D01*
X00908085Y00792165D01*
X00908096Y00792001D01*
X00908108Y00791814D01*
Y00791802D01*
Y00791767D01*
Y0079172D01*
X00908096Y0079165D01*
Y00791556D01*
X00908073Y00791463D01*
X00908038Y00791229D01*
X00907968Y00790971D01*
X00907862Y00790702D01*
X00907792Y00790561D01*
X00907722Y00790432D01*
X00907628Y00790303D01*
X00907523Y00790186D01*
X00907511Y00790175D01*
X00907499Y00790163D01*
X00907464Y00790128D01*
X00907417Y00790093D01*
X00907359Y00790046D01*
X00907288Y00789987D01*
X00907124Y0078987D01*
X00906914Y00789765D01*
X00906668Y0078966D01*
X00906398Y00789589D01*
X00906246Y00789577D01*
X00906094Y00789566D01*
X00906D01*
X00905907Y00789577D01*
X00905778Y00789601D01*
X00905626Y00789636D01*
X00905473Y00789683D01*
X0090531Y00789753D01*
X00905157Y00789847D01*
X00905146Y00789859D01*
X00905099Y00789894D01*
X00905029Y00789964D01*
X00904935Y00790058D01*
X00904841Y00790175D01*
X00904747Y00790327D01*
X00904642Y00790503D01*
X0090456Y00790702D01*
Y0079069D01*
X00904548Y00790667D01*
X00904537Y00790631D01*
X00904513Y00790585D01*
X00904455Y00790456D01*
X00904385Y00790303D01*
X00904279Y00790128D01*
X0090415Y00789952D01*
X00903986Y00789777D01*
X00903811Y00789624D01*
X00903787Y00789613D01*
X00903717Y00789566D01*
X00903612Y00789507D01*
X00903459Y00789437D01*
X00903284Y00789367D01*
X00903073Y00789308D01*
X00902839Y00789261D01*
X00902581Y0078925D01*
X00902488D01*
X00902417Y00789261D01*
X00902335Y00789273D01*
X0090223Y00789285D01*
X00901996Y00789332D01*
X00901738Y00789425D01*
X00901598Y00789472D01*
X00901457Y00789542D01*
X00901317Y00789624D01*
X00901176Y00789718D01*
X00901047Y00789823D01*
X00900919Y00789952D01*
X00900907Y00789964D01*
X00900895Y00789987D01*
X0090086Y00790023D01*
X00900813Y00790081D01*
X00900766Y00790151D01*
X00900708Y00790233D01*
X00900649Y00790327D01*
X00900591Y00790444D01*
X0090052Y00790573D01*
X00900462Y00790713D01*
X00900403Y00790866D01*
X00900356Y0079103D01*
X0090031Y00791193D01*
X00900275Y00791381D01*
X00900263Y0079158D01*
X00900251Y00791791D01*
Y00791802D01*
Y00791837D01*
Y00791896D01*
X00900263Y00791978D01*
X00900275Y00792072D01*
X00900286Y00792189D01*
X0090031Y00792306D01*
X00900333Y00792446D01*
X00900415Y00792739D01*
X00900473Y00792891D01*
X00900532Y00793044D01*
X00900614Y00793196D01*
X00900696Y00793348D01*
X00900801Y00793488D01*
X00900919Y00793629D01*
X0090093Y00793641D01*
X00900954Y00793664D01*
X00900989Y00793688D01*
X00901036Y00793734D01*
X00901106Y00793793D01*
X00901188Y00793851D01*
X00901282Y0079391D01*
X00901387Y00793969D01*
X00901504Y00794039D01*
X00901633Y00794097D01*
X00901914Y00794214D01*
X00902078Y00794261D01*
X00902242Y00794285D01*
X00902417Y00794308D01*
X00902605Y0079432D01*
X00902675D01*
X00902733Y00794308D01*
D02*
G37*
G36*
X00864364Y00793325D02*
X00864329D01*
X00864294Y00793313D01*
X00864247Y00793301D01*
X00864118Y00793266D01*
X00863954Y00793219D01*
X00863779Y00793161D01*
X00863603Y00793067D01*
X00863427Y00792962D01*
X00863275Y00792821D01*
X00863263Y00792798D01*
X00863217Y00792751D01*
X0086317Y00792669D01*
X008631Y00792552D01*
X00863041Y00792411D01*
X00862982Y00792247D01*
X00862936Y0079206D01*
X00862924Y00791861D01*
Y00791849D01*
Y00791826D01*
Y00791791D01*
X00862936Y00791744D01*
X00862947Y00791615D01*
X00862982Y00791451D01*
X00863053Y00791275D01*
X00863135Y00791076D01*
X00863263Y00790889D01*
X00863334Y00790795D01*
X00863427Y00790702D01*
X00863439D01*
X00863451Y00790678D01*
X00863521Y00790631D01*
X00863638Y00790549D01*
X0086379Y00790468D01*
X00863989Y00790386D01*
X00864224Y00790303D01*
X00864493Y00790257D01*
X00864797Y00790233D01*
X00864879D01*
X00864926Y00790245D01*
X00864996D01*
X00865078Y00790257D01*
X00865266Y00790292D01*
X00865465Y00790339D01*
X00865676Y00790421D01*
X00865886Y00790538D01*
X00866074Y0079069D01*
X00866097Y00790713D01*
X00866144Y00790772D01*
X00866226Y00790866D01*
X00866308Y00791006D01*
X0086639Y0079117D01*
X00866472Y00791381D01*
X00866519Y00791615D01*
X00866542Y00791873D01*
Y00791896D01*
Y00791955D01*
X0086653Y00792037D01*
X00866519Y00792154D01*
X00866484Y00792282D01*
X00866448Y00792423D01*
X0086639Y00792563D01*
X0086632Y00792704D01*
X00866308Y00792716D01*
X00866284Y00792763D01*
X00866238Y00792833D01*
X00866179Y00792915D01*
X00866097Y00792997D01*
X00866003Y0079309D01*
X00865898Y00793184D01*
X00865781Y00793266D01*
X0086591Y00794156D01*
X00869856Y00793407D01*
Y00789589D01*
X00868954D01*
Y00792657D01*
X00866882Y00793079D01*
X00866893Y00793067D01*
X00866905Y00793044D01*
X00866928Y00793008D01*
X00866964Y00792962D01*
X00866999Y00792891D01*
X00867034Y00792821D01*
X00867128Y00792634D01*
X00867221Y00792423D01*
X00867291Y00792177D01*
X0086735Y00791908D01*
X00867373Y00791627D01*
Y00791615D01*
Y0079158D01*
Y00791533D01*
X00867362Y00791463D01*
X0086735Y00791369D01*
X00867338Y00791275D01*
X00867315Y00791158D01*
X00867291Y00791041D01*
X00867198Y00790772D01*
X00867151Y00790631D01*
X00867081Y00790491D01*
X00866999Y00790339D01*
X00866905Y00790198D01*
X008668Y00790058D01*
X00866671Y00789929D01*
X00866659Y00789917D01*
X00866636Y00789894D01*
X00866601Y00789859D01*
X00866542Y00789823D01*
X00866472Y00789765D01*
X0086639Y00789706D01*
X00866296Y00789648D01*
X00866191Y00789577D01*
X00866062Y00789507D01*
X00865933Y00789449D01*
X00865781Y0078939D01*
X00865629Y00789332D01*
X00865453Y00789296D01*
X00865277Y00789261D01*
X00865078Y00789238D01*
X00864879Y00789226D01*
X00864774D01*
X00864704Y00789238D01*
X0086461Y0078925D01*
X00864505Y00789261D01*
X00864388Y00789273D01*
X00864259Y00789296D01*
X00863978Y00789379D01*
X00863685Y00789484D01*
X00863521Y00789554D01*
X00863369Y00789636D01*
X00863217Y0078973D01*
X00863076Y00789835D01*
X00863064Y00789847D01*
X00863041Y0078987D01*
X00862994Y00789917D01*
X00862936Y00789976D01*
X00862865Y00790046D01*
X00862783Y0079014D01*
X00862701Y00790245D01*
X00862619Y00790374D01*
X00862526Y00790503D01*
X00862444Y00790655D01*
X00862362Y0079083D01*
X00862292Y00791006D01*
X00862233Y00791205D01*
X00862186Y00791404D01*
X00862163Y00791627D01*
X00862151Y00791861D01*
Y00791873D01*
Y00791908D01*
Y00791966D01*
X00862163Y00792037D01*
X00862175Y00792119D01*
X00862186Y00792224D01*
X00862198Y00792341D01*
X00862221Y0079247D01*
X00862292Y00792739D01*
X00862397Y0079302D01*
X00862467Y00793161D01*
X00862549Y00793301D01*
X00862631Y00793442D01*
X00862737Y0079357D01*
X00862748Y00793582D01*
X0086276Y00793594D01*
X00862795Y00793629D01*
X00862842Y00793676D01*
X008629Y00793723D01*
X00862971Y00793781D01*
X00863053Y0079384D01*
X00863146Y0079391D01*
X00863369Y00794039D01*
X00863638Y00794168D01*
X00863943Y00794261D01*
X00864118Y00794296D01*
X00864294Y0079432D01*
X00864364Y00793325D01*
D02*
G37*
G36*
X00869961Y00835287D02*
Y00834514D01*
X00864985D01*
Y00833472D01*
X00864118D01*
Y00834514D01*
X0086228D01*
Y00835463D01*
X00864118D01*
Y008388D01*
X00864985D01*
X00869961Y00835287D01*
D02*
G37*
G36*
X01432299Y00623519D02*
X01431562D01*
X0143155Y00623531D01*
X01431526Y00623554D01*
X0143148Y00623589D01*
X01431421Y00623648D01*
X01431339Y00623706D01*
X01431245Y00623788D01*
X01431128Y00623882D01*
X01431011Y00623976D01*
X01430871Y00624081D01*
X01430707Y00624198D01*
X01430543Y00624327D01*
X01430356Y00624444D01*
X01430156Y00624573D01*
X01429946Y00624713D01*
X01429711Y00624842D01*
X01429477Y00624983D01*
X01429466Y00624994D01*
X01429419Y00625018D01*
X01429348Y00625053D01*
X01429255Y006251D01*
X01429138Y00625158D01*
X01428997Y00625229D01*
X01428833Y00625311D01*
X01428658Y00625392D01*
X0142847Y00625475D01*
X01428259Y00625568D01*
X01428037Y00625662D01*
X01427803Y00625756D01*
X01427323Y00625931D01*
X01426808Y00626095D01*
X01426796D01*
X01426761Y00626107D01*
X01426714Y00626119D01*
X01426644Y00626142D01*
X0142655Y00626165D01*
X01426445Y00626189D01*
X01426316Y00626212D01*
X01426187Y00626247D01*
X01426035Y00626271D01*
X01425871Y00626306D01*
X0142552Y00626364D01*
X01425121Y00626411D01*
X014247Y00626446D01*
Y00627418D01*
X01424794D01*
X01424864Y00627407D01*
X01424946D01*
X01425051Y00627395D01*
X0142518Y00627383D01*
X01425309Y00627371D01*
X01425461Y00627348D01*
X01425637Y00627325D01*
X01425812Y00627301D01*
X01426Y00627266D01*
X0142621Y00627231D01*
X01426421Y00627184D01*
X01426889Y00627067D01*
X01426901D01*
X01426948Y00627055D01*
X01427018Y00627032D01*
X01427112Y00627008D01*
X01427229Y00626973D01*
X01427358Y00626926D01*
X0142751Y0062688D01*
X01427686Y00626821D01*
X01427861Y00626751D01*
X0142806Y0062668D01*
X01428482Y00626517D01*
X01428927Y00626317D01*
X01429372Y00626095D01*
X01429384Y00626083D01*
X01429431Y0062606D01*
X01429489Y00626025D01*
X01429571Y00625978D01*
X01429676Y00625919D01*
X01429794Y00625849D01*
X01429922Y00625767D01*
X01430074Y00625685D01*
X01430391Y00625475D01*
X0143073Y0062524D01*
X0143107Y00624994D01*
X01431398Y00624725D01*
Y00628495D01*
X01432299D01*
Y00623519D01*
D02*
G37*
G36*
X01430496Y00633788D02*
X01430508Y00633765D01*
X01430531Y00633718D01*
X01430566Y00633671D01*
X01430601Y00633601D01*
X01430636Y00633519D01*
X01430742Y00633331D01*
X01430871Y00633121D01*
X01431023Y00632887D01*
X01431199Y00632652D01*
X01431386Y0063243D01*
X01431398Y00632418D01*
X01431409Y00632406D01*
X0143148Y00632336D01*
X01431585Y00632231D01*
X01431714Y00632102D01*
X01431878Y00631962D01*
X01432053Y00631821D01*
X01432241Y00631692D01*
X01432428Y00631587D01*
Y00630966D01*
X014247D01*
Y00631915D01*
X01430719D01*
X01430707Y00631926D01*
X0143066Y00631973D01*
X01430601Y00632055D01*
X01430519Y0063216D01*
X01430414Y00632289D01*
X01430309Y00632442D01*
X0143018Y00632617D01*
X01430063Y00632816D01*
Y00632828D01*
X01430051Y0063284D01*
X01430004Y0063291D01*
X01429946Y00633015D01*
X01429875Y00633144D01*
X01429794Y00633296D01*
X01429723Y0063346D01*
X01429641Y00633636D01*
X01429571Y006338D01*
X01430496D01*
Y00633788D01*
D02*
G37*
G36*
X00473661Y01225499D02*
X004635Y0121534D01*
X004635Y0122042D01*
X0045334D01*
Y0123058D01*
X004635D01*
X004635Y0123566D01*
X00473661Y01225499D01*
D02*
G37*
G36*
X01405096Y01036788D02*
X01405108Y01036765D01*
X01405131Y01036718D01*
X01405166Y01036671D01*
X01405201Y01036601D01*
X01405237Y01036519D01*
X01405342Y01036331D01*
X01405471Y01036121D01*
X01405623Y01035887D01*
X01405799Y01035652D01*
X01405986Y0103543D01*
X01405998Y01035418D01*
X01406009Y01035406D01*
X0140608Y01035336D01*
X01406185Y01035231D01*
X01406314Y01035102D01*
X01406478Y01034961D01*
X01406653Y01034821D01*
X01406841Y01034692D01*
X01407028Y01034587D01*
Y01033966D01*
X013993D01*
Y01034915D01*
X01405318D01*
X01405307Y01034926D01*
X0140526Y01034973D01*
X01405201Y01035055D01*
X01405119Y01035161D01*
X01405014Y01035289D01*
X01404909Y01035442D01*
X0140478Y01035617D01*
X01404663Y01035816D01*
Y01035828D01*
X01404651Y0103584D01*
X01404604Y0103591D01*
X01404546Y01036015D01*
X01404475Y01036144D01*
X01404393Y01036296D01*
X01404323Y0103646D01*
X01404241Y01036636D01*
X01404171Y010368D01*
X01405096D01*
Y01036788D01*
D02*
G37*
G36*
Y00633788D02*
X01405108Y00633765D01*
X01405131Y00633718D01*
X01405166Y00633671D01*
X01405201Y00633601D01*
X01405237Y00633519D01*
X01405342Y00633331D01*
X01405471Y00633121D01*
X01405623Y00632887D01*
X01405799Y00632652D01*
X01405986Y0063243D01*
X01405998Y00632418D01*
X01406009Y00632406D01*
X0140608Y00632336D01*
X01406185Y00632231D01*
X01406314Y00632102D01*
X01406478Y00631962D01*
X01406653Y00631821D01*
X01406841Y00631692D01*
X01407028Y00631587D01*
Y00630966D01*
X013993D01*
Y00631915D01*
X01405318D01*
X01405307Y00631926D01*
X0140526Y00631973D01*
X01405201Y00632055D01*
X01405119Y0063216D01*
X01405014Y00632289D01*
X01404909Y00632442D01*
X0140478Y00632617D01*
X01404663Y00632816D01*
Y00632828D01*
X01404651Y0063284D01*
X01404604Y0063291D01*
X01404546Y00633015D01*
X01404475Y00633144D01*
X01404393Y00633296D01*
X01404323Y0063346D01*
X01404241Y00633636D01*
X01404171Y006338D01*
X01405096D01*
Y00633788D01*
D02*
G37*
G36*
X01430496Y01036788D02*
X01430508Y01036765D01*
X01430531Y01036718D01*
X01430566Y01036671D01*
X01430601Y01036601D01*
X01430636Y01036519D01*
X01430742Y01036331D01*
X01430871Y01036121D01*
X01431023Y01035887D01*
X01431199Y01035652D01*
X01431386Y0103543D01*
X01431398Y01035418D01*
X01431409Y01035406D01*
X0143148Y01035336D01*
X01431585Y01035231D01*
X01431714Y01035102D01*
X01431878Y01034961D01*
X01432053Y01034821D01*
X01432241Y01034692D01*
X01432428Y01034587D01*
Y01033966D01*
X014247D01*
Y01034915D01*
X01430719D01*
X01430707Y01034926D01*
X0143066Y01034973D01*
X01430601Y01035055D01*
X01430519Y01035161D01*
X01430414Y01035289D01*
X01430309Y01035442D01*
X0143018Y01035617D01*
X01430063Y01035816D01*
Y01035828D01*
X01430051Y0103584D01*
X01430004Y0103591D01*
X01429946Y01036015D01*
X01429875Y01036144D01*
X01429794Y01036296D01*
X01429723Y0103646D01*
X01429641Y01036636D01*
X01429571Y010368D01*
X01430496D01*
Y01036788D01*
D02*
G37*
%LPC*%
G36*
X00864985Y00837875D02*
Y00835463D01*
X00868427D01*
X00864985Y00837875D01*
D02*
G37*
G36*
X00902593Y00793348D02*
X00902523D01*
X00902452Y00793336D01*
X00902347Y00793325D01*
X0090223Y00793301D01*
X00902089Y00793266D01*
X00901949Y00793219D01*
X00901808Y00793161D01*
X00901797Y00793149D01*
X0090175Y00793126D01*
X0090168Y00793079D01*
X00901598Y0079302D01*
X00901504Y00792938D01*
X00901399Y00792844D01*
X00901305Y00792727D01*
X00901223Y00792599D01*
X00901211Y00792575D01*
X00901188Y00792528D01*
X00901164Y00792458D01*
X00901129Y00792353D01*
X00901082Y00792224D01*
X00901059Y00792095D01*
X00901036Y00791943D01*
X00901024Y00791779D01*
Y00791767D01*
Y00791744D01*
Y00791709D01*
X00901036Y00791662D01*
X00901047Y00791545D01*
X00901082Y00791381D01*
X00901129Y00791205D01*
X00901211Y00791018D01*
X00901317Y00790842D01*
X00901457Y00790667D01*
X0090148Y00790643D01*
X00901539Y00790596D01*
X00901633Y00790526D01*
X00901762Y00790444D01*
X00901914Y00790362D01*
X00902113Y00790292D01*
X00902324Y00790245D01*
X0090257Y00790222D01*
X0090264D01*
X00902687Y00790233D01*
X00902804Y00790245D01*
X00902968Y0079028D01*
X00903143Y00790327D01*
X00903331Y00790409D01*
X00903518Y00790526D01*
X00903694Y00790678D01*
X00903717Y00790702D01*
X00903764Y0079076D01*
X00903834Y00790854D01*
X00903928Y00790983D01*
X0090401Y00791147D01*
X0090408Y00791346D01*
X00904127Y00791568D01*
X0090415Y00791814D01*
Y00791826D01*
Y00791837D01*
Y00791873D01*
X00904139Y00791919D01*
X00904127Y00792048D01*
X00904092Y007922D01*
X00904045Y00792376D01*
X00903963Y00792563D01*
X00903858Y00792739D01*
X00903705Y00792915D01*
X00903682Y00792938D01*
X00903623Y00792985D01*
X0090353Y00793055D01*
X00903401Y00793126D01*
X00903237Y00793207D01*
X0090305Y00793278D01*
X00902827Y00793325D01*
X00902593Y00793348D01*
D02*
G37*
G36*
X00906153Y00793044D02*
X00906059D01*
X00905965Y0079302D01*
X00905836Y00792997D01*
X00905696Y00792962D01*
X00905555Y00792903D01*
X00905403Y00792821D01*
X00905263Y00792704D01*
X00905251Y00792692D01*
X00905216Y00792645D01*
X00905157Y00792563D01*
X00905099Y00792458D01*
X00905029Y00792329D01*
X00904982Y00792165D01*
X00904935Y0079199D01*
X00904923Y00791791D01*
Y00791779D01*
Y00791767D01*
Y00791697D01*
X00904947Y00791603D01*
X0090497Y00791475D01*
X00905005Y00791334D01*
X00905064Y00791182D01*
X00905146Y0079103D01*
X00905263Y00790889D01*
X00905274Y00790877D01*
X00905321Y0079083D01*
X00905391Y00790772D01*
X00905497Y00790713D01*
X00905614Y00790643D01*
X00905766Y00790596D01*
X0090593Y00790549D01*
X00906106Y00790538D01*
X00906188D01*
X00906293Y00790561D01*
X0090641Y00790585D01*
X00906539Y00790631D01*
X00906691Y0079069D01*
X00906832Y00790784D01*
X00906972Y00790901D01*
X00906984Y00790912D01*
X00907031Y00790959D01*
X00907089Y00791041D01*
X0090716Y00791147D01*
X00907218Y00791275D01*
X00907277Y00791428D01*
X00907324Y00791592D01*
X00907335Y00791791D01*
Y00791802D01*
Y00791814D01*
Y00791884D01*
X00907312Y00791978D01*
X00907288Y00792107D01*
X00907253Y00792247D01*
X00907183Y007924D01*
X00907101Y00792552D01*
X00906984Y00792692D01*
X00906972Y00792704D01*
X00906925Y00792751D01*
X00906843Y00792798D01*
X0090675Y00792868D01*
X00906633Y00792926D01*
X0090648Y00792985D01*
X00906328Y00793032D01*
X00906153Y00793044D01*
D02*
G37*
%LPD*%
D18*
X0123312Y013865D02*
D03*
Y013185D02*
D03*
X009715Y010137D02*
D03*
Y010817D02*
D03*
X010604Y010137D02*
D03*
Y010817D02*
D03*
X008826Y010137D02*
D03*
Y010817D02*
D03*
X00781Y010137D02*
D03*
Y010817D02*
D03*
X006921Y010137D02*
D03*
Y010817D02*
D03*
X006032Y010137D02*
D03*
Y010817D02*
D03*
D19*
X0123312Y013525D02*
D03*
X009715Y010477D02*
D03*
X010604D02*
D03*
X008826D02*
D03*
X00781Y010477D02*
D03*
X006921D02*
D03*
X006032D02*
D03*
D23*
X0096486Y013525D02*
D03*
X0089686D02*
D03*
X0063212Y013017D02*
D03*
X0056412D02*
D03*
D24*
X0093086Y013525D02*
D03*
X0059812Y013017D02*
D03*
D115*
X014367Y00654D02*
G03*
X014367Y00654I-00008J0D01*
G01*
Y006794D02*
G03*
X014367Y006794I-00008J0D01*
G01*
Y007048D02*
G03*
X014367Y007048I-00008J0D01*
G01*
Y007302D02*
G03*
X014367Y007302I-00008J0D01*
G01*
Y007556D02*
G03*
X014367Y007556I-00008J0D01*
G01*
Y00781D02*
G03*
X014367Y00781I-00008J0D01*
G01*
X014159Y006187D02*
G03*
X014187Y006159I000028J0D01*
G01*
X014387Y006159D02*
G03*
X014415Y006187I0J000028D01*
G01*
X014367Y006286D02*
G03*
X014367Y006286I-00008J0D01*
G01*
X014187Y010477D02*
G03*
X014159Y010453I-000002J-000026D01*
G01*
X014415D02*
G03*
X014387Y010477I-000026J-000002D01*
G01*
X014367Y01035D02*
G03*
X014367Y01035I-00008J0D01*
G01*
D02*
G03*
X014367Y01035I-00008J0D01*
G01*
Y010096D02*
G03*
X014367Y010096I-00008J0D01*
G01*
Y009842D02*
G03*
X014367Y009842I-00008J0D01*
G01*
Y009588D02*
G03*
X014367Y009588I-00008J0D01*
G01*
Y009334D02*
G03*
X014367Y009334I-00008J0D01*
G01*
Y00908D02*
G03*
X014367Y00908I-00008J0D01*
G01*
Y008826D02*
G03*
X014367Y008826I-00008J0D01*
G01*
Y008572D02*
G03*
X014367Y008572I-00008J0D01*
G01*
Y008318D02*
G03*
X014367Y008318I-00008J0D01*
G01*
Y008064D02*
G03*
X014367Y008064I-00008J0D01*
G01*
X014113D02*
G03*
X014113Y008064I-00008J0D01*
G01*
Y008318D02*
G03*
X014113Y008318I-00008J0D01*
G01*
Y008572D02*
G03*
X014113Y008572I-00008J0D01*
G01*
Y008826D02*
G03*
X014113Y008826I-00008J0D01*
G01*
Y00908D02*
G03*
X014113Y00908I-00008J0D01*
G01*
Y009334D02*
G03*
X014113Y009334I-00008J0D01*
G01*
Y009588D02*
G03*
X014113Y009588I-00008J0D01*
G01*
Y009842D02*
G03*
X014113Y009842I-00008J0D01*
G01*
Y010096D02*
G03*
X014113Y010096I-00008J0D01*
G01*
Y01035D02*
G03*
X014113Y01035I-00008J0D01*
G01*
D02*
G03*
X014113Y01035I-00008J0D01*
G01*
X014161Y010453D02*
G03*
X014133Y010477I-000026J-000002D01*
G01*
X013933Y010477D02*
G03*
X013905Y010453I-000002J-000026D01*
G01*
X014113Y006286D02*
G03*
X014113Y006286I-00008J0D01*
G01*
X014133Y006159D02*
G03*
X014161Y006187I0J000028D01*
G01*
X013905D02*
G03*
X013933Y006159I000028J0D01*
G01*
X014113Y00781D02*
G03*
X014113Y00781I-00008J0D01*
G01*
Y007556D02*
G03*
X014113Y007556I-00008J0D01*
G01*
Y007302D02*
G03*
X014113Y007302I-00008J0D01*
G01*
Y007048D02*
G03*
X014113Y007048I-00008J0D01*
G01*
Y006794D02*
G03*
X014113Y006794I-00008J0D01*
G01*
Y00654D02*
G03*
X014113Y00654I-00008J0D01*
G01*
X0109824Y0124572D02*
G03*
X0110104Y0124852I0J000028D01*
G01*
X0110104Y0126852D02*
G03*
X0109824Y0127132I-000028J0D01*
G01*
X0107564Y0124852D02*
G03*
X0107804Y0124572I000026J-000002D01*
G01*
Y0127132D02*
G03*
X0107564Y0126852I000002J-000026D01*
G01*
X0109634Y0125852D02*
G03*
X0109634Y0125852I-00008J0D01*
G01*
X0086844Y0069394D02*
G03*
X0086744Y0069294I0J-00001D01*
G01*
Y0068644D02*
G03*
X0086794Y0068594I000005J0D01*
G01*
X0087744Y0069294D02*
G03*
X0087644Y0069394I-00001J-0D01*
G01*
X00876935Y0068594D02*
G03*
X0087744Y00686445I-0J00000505D01*
G01*
X0087644Y0066994D02*
G03*
X0087744Y0067094I-0J00001D01*
G01*
X0087744Y0067744D02*
G03*
X0087694Y0067794I-000005J-0D01*
G01*
X0086744Y0067094D02*
G03*
X0086844Y0066994I00001J0D01*
G01*
X0086794Y0067794D02*
G03*
X0086744Y0067744I0J-000005D01*
G01*
X0082834Y006326D02*
G03*
X0083034Y006306I00002J0D01*
G01*
X0084034Y006246D02*
G03*
X0083834Y006266I-00002J-0D01*
G01*
Y006306D02*
G03*
X0084034Y006326I-0J00002D01*
G01*
X0083034Y006266D02*
G03*
X0082834Y006246I0J-00002D01*
G01*
Y006186D02*
G03*
X0083134Y006166I000025J000005D01*
G01*
X0083734Y006166D02*
G03*
X0084034Y006186I000005J000025D01*
G01*
X0083134Y006406D02*
G03*
X0082834Y006386I-000005J-000025D01*
G01*
X0084034D02*
G03*
X0083734Y006406I-000025J-000005D01*
G01*
X0089114Y006754D02*
G03*
X0088914Y006774I-00002J-0D01*
G01*
X0087914Y006834D02*
G03*
X0088114Y006814I00002J0D01*
G01*
Y006774D02*
G03*
X0087914Y006754I0J-00002D01*
G01*
X0088914Y006814D02*
G03*
X0089114Y006834I-0J00002D01*
G01*
Y006894D02*
G03*
X0088814Y006914I-000025J-000005D01*
G01*
X0088214Y006914D02*
G03*
X0087914Y006894I-000005J-000025D01*
G01*
X0088814Y006674D02*
G03*
X0089114Y006694I000005J000025D01*
G01*
X0087914D02*
G03*
X0088214Y006674I000025J000005D01*
G01*
X0087644Y0071334D02*
G03*
X0087444Y0071134I0J-00002D01*
G01*
X0086844Y0070134D02*
G03*
X0087044Y0070334I-0J00002D01*
G01*
X0087444D02*
G03*
X0087644Y0070134I00002J0D01*
G01*
X0087044Y0071134D02*
G03*
X0086844Y0071334I-00002J-0D01*
G01*
X0086244D02*
G03*
X0086044Y0071034I000005J-000025D01*
G01*
X0086044Y0070434D02*
G03*
X0086244Y0070134I000025J-000005D01*
G01*
X0088444Y0071034D02*
G03*
X0088244Y0071334I-000025J000005D01*
G01*
Y0070134D02*
G03*
X0088444Y0070434I-000005J000025D01*
G01*
X0091146Y0067794D02*
G03*
X0090946Y0067994I-00002J-0D01*
G01*
X0089946Y0068594D02*
G03*
X0090146Y0068394I00002J0D01*
G01*
Y0067994D02*
G03*
X0089946Y0067794I0J-00002D01*
G01*
X0090946Y0068394D02*
G03*
X0091146Y0068594I-0J00002D01*
G01*
Y0069194D02*
G03*
X0090846Y0069394I-000025J-000005D01*
G01*
X0090246Y0069394D02*
G03*
X0089946Y0069194I-000005J-000025D01*
G01*
X0090846Y0066994D02*
G03*
X0091146Y0067194I000005J000025D01*
G01*
X0089946D02*
G03*
X0090246Y0066994I000025J000005D01*
G01*
X006834Y006166D02*
G03*
X006844Y006176I0J00001D01*
G01*
Y006241D02*
G03*
X006839Y006246I-000005J0D01*
G01*
X006744Y006176D02*
G03*
X006754Y006166I00001J0D01*
G01*
X00674905Y006246D02*
G03*
X006744Y00624095I0J-00000505D01*
G01*
X006754Y006406D02*
G03*
X006744Y006396I0J-00001D01*
G01*
X006744Y006331D02*
G03*
X006749Y006326I000005J0D01*
G01*
X006844Y006396D02*
G03*
X006834Y006406I-00001J0D01*
G01*
X006839Y006326D02*
G03*
X006844Y006331I0J000005D01*
G01*
X006834Y007944D02*
G03*
X006844Y007954I0J00001D01*
G01*
Y008019D02*
G03*
X006839Y008024I-000005J0D01*
G01*
X006744Y007954D02*
G03*
X006754Y007944I00001J0D01*
G01*
X00674905Y008024D02*
G03*
X006744Y00801895I0J-00000505D01*
G01*
X006754Y008184D02*
G03*
X006744Y008174I0J-00001D01*
G01*
X006744Y008109D02*
G03*
X006749Y008104I000005J0D01*
G01*
X006844Y008174D02*
G03*
X006834Y008184I-00001J0D01*
G01*
X006839Y008104D02*
G03*
X006844Y008109I0J000005D01*
G01*
X004862Y012005D02*
G03*
X004862Y012005I-0001J0D01*
G01*
Y012505D02*
G03*
X004862Y012505I-0001J0D01*
G01*
X013829Y013381D02*
G03*
X013819Y013391I-00001J0D01*
G01*
X013824Y013311D02*
G03*
X013829Y013316I0J000005D01*
G01*
X013739Y013391D02*
G03*
X013729Y013381I-0J-00001D01*
G01*
X013729Y01331605D02*
G03*
X01373405Y013311I00000505J-0D01*
G01*
X013729Y013161D02*
G03*
X013739Y013151I00001J-0D01*
G01*
X013734Y013231D02*
G03*
X013729Y013226I-0J-000005D01*
G01*
X013819Y013151D02*
G03*
X013829Y013161I0J00001D01*
G01*
Y013226D02*
G03*
X013824Y013231I-000005J0D01*
G01*
X012653Y0112382D02*
G03*
X012643Y0112282I0J-00001D01*
G01*
X012723Y0112332D02*
G03*
X012718Y0112382I-000005J0D01*
G01*
X012643Y0111482D02*
G03*
X012653Y0111382I00001J-0D01*
G01*
X01271795Y0111382D02*
G03*
X012723Y01114325I0J00000505D01*
G01*
X012873Y0111382D02*
G03*
X012883Y0111482I0J00001D01*
G01*
X012803Y0111432D02*
G03*
X012808Y0111382I000005J-0D01*
G01*
X012883Y0112282D02*
G03*
X012873Y0112382I-00001J0D01*
G01*
X012808D02*
G03*
X012803Y0112332I0J-000005D01*
G01*
X0128Y0105502D02*
G03*
X01281Y0105302I000015J-000005D01*
G01*
X01284Y0105302D02*
G03*
X01285Y0105502I-000005J000015D01*
G01*
X01289D02*
G03*
X01291Y0105302I00002J0D01*
G01*
X01297Y0105302D02*
G03*
X01299Y0105502I0J00002D01*
G01*
X01298Y0108102D02*
G03*
X01297Y0108302I-000015J000005D01*
G01*
X01294Y0108302D02*
G03*
X01293Y0108102I000005J-000015D01*
G01*
X01285D02*
G03*
X01284Y0108302I-000015J000005D01*
G01*
X01281Y0108302D02*
G03*
X0128Y0108102I000005J-000015D01*
G01*
X013605Y010862D02*
G03*
X013445Y010862I-00008J0D01*
G01*
X013987Y012265D02*
G03*
X013954Y012298I-000033J-0D01*
G01*
Y012166D02*
G03*
X013987Y012199I0J000033D01*
G01*
X013096Y012298D02*
G03*
X013063Y012265I0J-000033D01*
G01*
X013063Y012199D02*
G03*
X013096Y012166I000033J0D01*
G01*
X013063Y011749D02*
G03*
X013096Y011716I000033J0D01*
G01*
X013096Y011848D02*
G03*
X013063Y011815I0J-000033D01*
G01*
X013954Y011716D02*
G03*
X013987Y011749I0J000033D01*
G01*
Y011815D02*
G03*
X013954Y011848I-000033J-0D01*
G01*
X012873Y011951D02*
G03*
X012883Y011961I0J00001D01*
G01*
X012803Y011956D02*
G03*
X012808Y011951I000005J0D01*
G01*
X012883Y012041D02*
G03*
X012873Y012051I-00001J0D01*
G01*
X01280805Y012051D02*
G03*
X012803Y01204595I-0J-00000505D01*
G01*
X012653Y012051D02*
G03*
X012643Y012041I-0J-00001D01*
G01*
X012723Y012046D02*
G03*
X012718Y012051I-000005J0D01*
G01*
X012643Y011961D02*
G03*
X012653Y011951I00001J0D01*
G01*
X012718D02*
G03*
X012723Y011956I0J000005D01*
G01*
X012873Y0125352D02*
G03*
X012883Y0125452I0J00001D01*
G01*
X012803Y0125402D02*
G03*
X012808Y0125352I000005J0D01*
G01*
X012883Y0126252D02*
G03*
X012873Y0126352I-00001J0D01*
G01*
X01280805Y0126352D02*
G03*
X012803Y01263015I-0J-00000505D01*
G01*
X012653Y0126352D02*
G03*
X012643Y0126252I-0J-00001D01*
G01*
X012723Y0126302D02*
G03*
X012718Y0126352I-000005J0D01*
G01*
X012643Y0125452D02*
G03*
X012653Y0125352I00001J0D01*
G01*
X012718D02*
G03*
X012723Y0125402I0J000005D01*
G01*
X0124112Y0125852D02*
G03*
X0124112Y0125852I-00008J0D01*
G01*
X0119032D02*
G03*
X0119032Y0125852I-00008J0D01*
G01*
X0117202Y0127132D02*
G03*
X0116962Y0126852I000002J-000026D01*
G01*
X0116962Y0124852D02*
G03*
X0117202Y0124572I000026J-000002D01*
G01*
X0124582Y0126852D02*
G03*
X0124302Y0127132I-000028J0D01*
G01*
Y0124572D02*
G03*
X0124582Y0124852I0J000028D01*
G01*
X0121572Y0125852D02*
G03*
X0121572Y0125852I-00008J0D01*
G01*
X012764Y013624D02*
G03*
X012736Y013652I-000028J0D01*
G01*
X012536Y013652D02*
G03*
X012508Y013624I0J-000028D01*
G01*
X012736Y013398D02*
G03*
X012764Y013422I000002J000026D01*
G01*
X012508D02*
G03*
X012536Y013398I000026J000002D01*
G01*
X012716Y013525D02*
G03*
X012716Y013525I-00008J0D01*
G01*
X0119818Y013575D02*
G03*
X0119918Y013565I00001J0D01*
G01*
Y013485D02*
G03*
X0119818Y013475I-0J-00001D01*
G01*
X0121218D02*
G03*
X0121118Y013485I-00001J-0D01*
G01*
Y013565D02*
G03*
X0121218Y013575I0J00001D01*
G01*
X0119818Y01341639D02*
G03*
X01201819Y01338I00003639J0D01*
G01*
X01208541Y01338D02*
G03*
X0121218Y01341639I0J00003639D01*
G01*
X0121218Y01363361D02*
G03*
X01208541Y01367I-00003639J0D01*
G01*
X01201819Y01367D02*
G03*
X0119818Y01363361I0J-00003639D01*
G01*
X0108134Y013575D02*
G03*
X0108234Y013565I00001J0D01*
G01*
Y013485D02*
G03*
X0108134Y013475I-0J-00001D01*
G01*
X0109534D02*
G03*
X0109434Y013485I-00001J-0D01*
G01*
Y013565D02*
G03*
X0109534Y013575I0J00001D01*
G01*
X0108134Y01341639D02*
G03*
X01084979Y01338I00003639J0D01*
G01*
X01091701Y01338D02*
G03*
X0109534Y01341639I0J00003639D01*
G01*
X0109534Y01363361D02*
G03*
X01091701Y01367I-00003639J0D01*
G01*
X01084979Y01367D02*
G03*
X0108134Y01363361I0J-00003639D01*
G01*
X010068Y013397D02*
G03*
X010096Y013425I0J000028D01*
G01*
X010096Y013625D02*
G03*
X010068Y013653I-000028J0D01*
G01*
X009842Y013425D02*
G03*
X009866Y013397I000026J-000002D01*
G01*
Y013653D02*
G03*
X009842Y013625I000002J-000026D01*
G01*
X010049Y013525D02*
G03*
X010049Y013525I-00008J0D01*
G01*
X0086544Y013575D02*
G03*
X0086644Y013565I00001J0D01*
G01*
Y013485D02*
G03*
X0086544Y013475I-0J-00001D01*
G01*
X0087944D02*
G03*
X0087844Y013485I-00001J-0D01*
G01*
Y013565D02*
G03*
X0087944Y013575I0J00001D01*
G01*
X0086544Y01341639D02*
G03*
X00869079Y01338I00003639J0D01*
G01*
X00875801Y01338D02*
G03*
X0087944Y01341639I0J00003639D01*
G01*
X0087944Y01363361D02*
G03*
X00875801Y01367I-00003639J0D01*
G01*
X00869079Y01367D02*
G03*
X0086544Y01363361I0J-00003639D01*
G01*
X0075114Y013575D02*
G03*
X0075214Y013565I00001J0D01*
G01*
Y013485D02*
G03*
X0075114Y013475I-0J-00001D01*
G01*
X0076514D02*
G03*
X0076414Y013485I-00001J-0D01*
G01*
Y013565D02*
G03*
X0076514Y013575I0J00001D01*
G01*
X0075114Y01341639D02*
G03*
X00754779Y01338I00003639J0D01*
G01*
X00761501Y01338D02*
G03*
X0076514Y01341639I0J00003639D01*
G01*
X0076514Y01363361D02*
G03*
X00761501Y01367I-00003639J0D01*
G01*
X00754779Y01367D02*
G03*
X0075114Y01363361I0J-00003639D01*
G01*
X007049Y013243D02*
G03*
X007021Y013271I-000028J0D01*
G01*
X006821Y013271D02*
G03*
X006793Y013243I0J-000028D01*
G01*
X007021Y013017D02*
G03*
X007049Y013041I000002J000026D01*
G01*
X006793D02*
G03*
X006821Y013017I000026J000002D01*
G01*
X007001Y013144D02*
G03*
X007001Y013144I-00008J0D01*
G01*
X0046731Y0131045D02*
G03*
X0046431Y0130745I0J-00003D01*
G01*
Y0129595D02*
G03*
X0046731Y0129295I00003J0D01*
G01*
X0053031D02*
G03*
X0053381Y0129645I0J000035D01*
G01*
Y0130695D02*
G03*
X0053031Y0131045I-000035J0D01*
G01*
X006258Y011873D02*
G03*
X006286Y011901I0J000028D01*
G01*
X006286Y012101D02*
G03*
X006258Y012129I-000028J0D01*
G01*
X006032Y011901D02*
G03*
X006056Y011873I000026J-000002D01*
G01*
Y012129D02*
G03*
X006032Y012101I000002J-000026D01*
G01*
X006239Y012001D02*
G03*
X006239Y012001I-00008J0D01*
G01*
X0073012Y0123758D02*
G03*
X0072912Y0123658I0J-00001D01*
G01*
X0072112D02*
G03*
X0072012Y0123758I-00001J0D01*
G01*
Y0122358D02*
G03*
X0072112Y0122458I-0J00001D01*
G01*
X0072912D02*
G03*
X0073012Y0122358I00001J-0D01*
G01*
X00714259Y0123758D02*
G03*
X0071062Y01233941I0J-00003639D01*
G01*
X0071062Y01227219D02*
G03*
X00714259Y0122358I00003639J0D01*
G01*
X00735981Y0122358D02*
G03*
X0073962Y01227219I0J00003639D01*
G01*
X0073962Y01233941D02*
G03*
X00735981Y0123758I-00003639J0D01*
G01*
X007606Y0119586D02*
G03*
X007596Y0119686I-00001J0D01*
G01*
X007601Y0118886D02*
G03*
X007606Y0118936I0J000005D01*
G01*
X007516Y0119686D02*
G03*
X007506Y0119586I-0J-00001D01*
G01*
X007506Y01189365D02*
G03*
X00751105Y0118886I00000505J-0D01*
G01*
X007506Y0117386D02*
G03*
X007516Y0117286I00001J-0D01*
G01*
X007511Y0118086D02*
G03*
X007506Y0118036I-0J-000005D01*
G01*
X007596Y0117286D02*
G03*
X007606Y0117386I0J00001D01*
G01*
Y0118036D02*
G03*
X007601Y0118086I-000005J0D01*
G01*
X007606Y0116538D02*
G03*
X007596Y0116638I-00001J0D01*
G01*
X007601Y0115838D02*
G03*
X007606Y0115888I0J000005D01*
G01*
X007516Y0116638D02*
G03*
X007506Y0116538I-0J-00001D01*
G01*
X007506Y01158885D02*
G03*
X00751105Y0115838I00000505J-0D01*
G01*
X007506Y0114338D02*
G03*
X007516Y0114238I00001J-0D01*
G01*
X007511Y0115038D02*
G03*
X007506Y0114988I-0J-000005D01*
G01*
X007596Y0114238D02*
G03*
X007606Y0114338I0J00001D01*
G01*
Y0114988D02*
G03*
X007601Y0115038I-000005J0D01*
G01*
X0072016Y0117586D02*
G03*
X0072016Y0117586I-000025J0D01*
G01*
X009765Y0123758D02*
G03*
X009755Y0123658I0J-00001D01*
G01*
X009675D02*
G03*
X009665Y0123758I-00001J0D01*
G01*
Y0122358D02*
G03*
X009675Y0122458I-0J00001D01*
G01*
X009755D02*
G03*
X009765Y0122358I00001J-0D01*
G01*
X00960639Y0123758D02*
G03*
X00957Y01233941I0J-00003639D01*
G01*
X00957Y01227219D02*
G03*
X00960639Y0122358I00003639J0D01*
G01*
X00982361Y0122358D02*
G03*
X00986Y01227219I0J00003639D01*
G01*
X00986Y01233941D02*
G03*
X00982361Y0123758I-00003639J0D01*
G01*
X0096654Y0117586D02*
G03*
X0096654Y0117586I-000025J0D01*
G01*
X0100698Y0119586D02*
G03*
X0100598Y0119686I-00001J0D01*
G01*
X0100648Y0118886D02*
G03*
X0100698Y0118936I0J000005D01*
G01*
X0099798Y0119686D02*
G03*
X0099698Y0119586I-0J-00001D01*
G01*
X0099698Y01189365D02*
G03*
X00997485Y0118886I00000505J-0D01*
G01*
X0099698Y0117386D02*
G03*
X0099798Y0117286I00001J-0D01*
G01*
X0099748Y0118086D02*
G03*
X0099698Y0118036I-0J-000005D01*
G01*
X0100598Y0117286D02*
G03*
X0100698Y0117386I0J00001D01*
G01*
Y0118036D02*
G03*
X0100648Y0118086I-000005J0D01*
G01*
X0100698Y0116538D02*
G03*
X0100598Y0116638I-00001J0D01*
G01*
X0100648Y0115838D02*
G03*
X0100698Y0115888I0J000005D01*
G01*
X0099798Y0116638D02*
G03*
X0099698Y0116538I-0J-00001D01*
G01*
X0099698Y01158885D02*
G03*
X00997485Y0115838I00000505J-0D01*
G01*
X0099698Y0114338D02*
G03*
X0099798Y0114238I00001J-0D01*
G01*
X0099748Y0115038D02*
G03*
X0099698Y0114988I-0J-000005D01*
G01*
X0100598Y0114238D02*
G03*
X0100698Y0114338I0J00001D01*
G01*
Y0114988D02*
G03*
X0100648Y0115038I-000005J0D01*
G01*
X010928Y0106048D02*
G03*
X010918Y0106148I-00001J-0D01*
G01*
Y0106948D02*
G03*
X010928Y0107048I0J00001D01*
G01*
X010788D02*
G03*
X010798Y0106948I00001J0D01*
G01*
Y0106148D02*
G03*
X010788Y0106048I-0J-00001D01*
G01*
X010928Y01076341D02*
G03*
X01089161Y0107998I-00003639J0D01*
G01*
X01082439Y0107998D02*
G03*
X010788Y01076341I0J-00003639D01*
G01*
X010788Y01054619D02*
G03*
X01082439Y0105098I00003639J0D01*
G01*
X01089161Y0105098D02*
G03*
X010928Y01054619I0J00003639D01*
G01*
X0100136Y0106048D02*
G03*
X0100036Y0106148I-00001J-0D01*
G01*
Y0106948D02*
G03*
X0100136Y0107048I0J00001D01*
G01*
X0098736D02*
G03*
X0098836Y0106948I00001J0D01*
G01*
Y0106148D02*
G03*
X0098736Y0106048I-0J-00001D01*
G01*
X0100136Y01076341D02*
G03*
X00997721Y0107998I-00003639J0D01*
G01*
X00990999Y0107998D02*
G03*
X0098736Y01076341I0J-00003639D01*
G01*
X0098736Y01054619D02*
G03*
X00990999Y0105098I00003639J0D01*
G01*
X00997721Y0105098D02*
G03*
X0100136Y01054619I0J00003639D01*
G01*
X00915Y0106048D02*
G03*
X00914Y0106148I-00001J-0D01*
G01*
Y0106948D02*
G03*
X00915Y0107048I0J00001D01*
G01*
X00901D02*
G03*
X00902Y0106948I00001J0D01*
G01*
Y0106148D02*
G03*
X00901Y0106048I-0J-00001D01*
G01*
X00915Y01076341D02*
G03*
X00911361Y0107998I-00003639J0D01*
G01*
X00904639Y0107998D02*
G03*
X00901Y01076341I0J-00003639D01*
G01*
X00901Y01054619D02*
G03*
X00904639Y0105098I00003639J0D01*
G01*
X00911361Y0105098D02*
G03*
X00915Y01054619I0J00003639D01*
G01*
X008134Y0106048D02*
G03*
X008124Y0106148I-00001J-0D01*
G01*
Y0106948D02*
G03*
X008134Y0107048I0J00001D01*
G01*
X007994D02*
G03*
X008004Y0106948I00001J0D01*
G01*
Y0106148D02*
G03*
X007994Y0106048I-0J-00001D01*
G01*
X008134Y01076341D02*
G03*
X00809761Y0107998I-00003639J0D01*
G01*
X00803039Y0107998D02*
G03*
X007994Y01076341I0J-00003639D01*
G01*
X007994Y01054619D02*
G03*
X00803039Y0105098I00003639J0D01*
G01*
X00809761Y0105098D02*
G03*
X008134Y01054619I0J00003639D01*
G01*
X0072196Y0106048D02*
G03*
X0072096Y0106148I-00001J-0D01*
G01*
Y0106948D02*
G03*
X0072196Y0107048I0J00001D01*
G01*
X0070796D02*
G03*
X0070896Y0106948I00001J0D01*
G01*
Y0106148D02*
G03*
X0070796Y0106048I-0J-00001D01*
G01*
X0072196Y01076341D02*
G03*
X00718321Y0107998I-00003639J0D01*
G01*
X00711599Y0107998D02*
G03*
X0070796Y01076341I0J-00003639D01*
G01*
X0070796Y01054619D02*
G03*
X00711599Y0105098I00003639J0D01*
G01*
X00718321Y0105098D02*
G03*
X0072196Y01054619I0J00003639D01*
G01*
X006356Y0106048D02*
G03*
X006346Y0106148I-00001J-0D01*
G01*
Y0106948D02*
G03*
X006356Y0107048I0J00001D01*
G01*
X006216D02*
G03*
X006226Y0106948I00001J0D01*
G01*
Y0106148D02*
G03*
X006216Y0106048I-0J-00001D01*
G01*
X006356Y01076341D02*
G03*
X00631961Y0107998I-00003639J0D01*
G01*
X00625239Y0107998D02*
G03*
X006216Y01076341I0J-00003639D01*
G01*
X006216Y01054619D02*
G03*
X00625239Y0105098I00003639J0D01*
G01*
X00631961Y0105098D02*
G03*
X006356Y01054619I0J00003639D01*
G01*
X011543Y010079D02*
G03*
X011533Y010089I-00001J0D01*
G01*
X011538Y010009D02*
G03*
X011543Y010014I0J000005D01*
G01*
X011453Y010089D02*
G03*
X011443Y010079I-0J-00001D01*
G01*
X011443Y01001405D02*
G03*
X01144805Y010009I00000505J-0D01*
G01*
X011443Y009859D02*
G03*
X011453Y009849I00001J-0D01*
G01*
X011448Y009929D02*
G03*
X011443Y009924I-0J-000005D01*
G01*
X011533Y009849D02*
G03*
X011543Y009859I0J00001D01*
G01*
Y009924D02*
G03*
X011538Y009929I-000005J0D01*
G01*
X0120764Y009698D02*
G03*
X0120664Y009708I-00001J0D01*
G01*
X0120714Y009628D02*
G03*
X0120764Y009633I0J000005D01*
G01*
X0119864Y009708D02*
G03*
X0119764Y009698I-0J-00001D01*
G01*
X0119764Y00963305D02*
G03*
X01198145Y009628I00000505J-0D01*
G01*
X0119764Y009478D02*
G03*
X0119864Y009468I00001J-0D01*
G01*
X0119814Y009548D02*
G03*
X0119764Y009543I-0J-000005D01*
G01*
X0120664Y009468D02*
G03*
X0120764Y009478I0J00001D01*
G01*
Y009543D02*
G03*
X0120714Y009548I-000005J0D01*
G01*
X011824Y009478D02*
G03*
X011834Y009468I00001J0D01*
G01*
X011829Y009548D02*
G03*
X011824Y009543I0J-000005D01*
G01*
X011914Y009468D02*
G03*
X011924Y009478I0J00001D01*
G01*
X011924Y00954295D02*
G03*
X01191895Y009548I-00000505J0D01*
G01*
X011924Y009698D02*
G03*
X011914Y009708I-00001J0D01*
G01*
X011919Y009628D02*
G03*
X011924Y009633I0J000005D01*
G01*
X011834Y009708D02*
G03*
X011824Y009698I0J-00001D01*
G01*
Y009633D02*
G03*
X011829Y009628I000005J0D01*
G01*
X0116116Y0085712D02*
G03*
X0116016Y0085612I0J-00001D01*
G01*
X0116816Y0085662D02*
G03*
X0116766Y0085712I-000005J0D01*
G01*
X0116016Y0084812D02*
G03*
X0116116Y0084712I00001J-0D01*
G01*
X01167655Y0084712D02*
G03*
X0116816Y00847625I0J00000505D01*
G01*
X0118316Y0084712D02*
G03*
X0118416Y0084812I0J00001D01*
G01*
X0117616Y0084762D02*
G03*
X0117666Y0084712I000005J-0D01*
G01*
X0118416Y0085612D02*
G03*
X0118316Y0085712I-00001J0D01*
G01*
X0117666D02*
G03*
X0117616Y0085662I0J-000005D01*
G01*
X0115176Y0087074D02*
G03*
X0115076Y0087174I-00001J0D01*
G01*
X0115126Y0086374D02*
G03*
X0115176Y0086424I0J000005D01*
G01*
X0114276Y0087174D02*
G03*
X0114176Y0087074I-0J-00001D01*
G01*
X0114176Y00864245D02*
G03*
X01142265Y0086374I00000505J-0D01*
G01*
X0114176Y0084874D02*
G03*
X0114276Y0084774I00001J-0D01*
G01*
X0114226Y0085574D02*
G03*
X0114176Y0085524I-0J-000005D01*
G01*
X0115076Y0084774D02*
G03*
X0115176Y0084874I0J00001D01*
G01*
Y0085524D02*
G03*
X0115126Y0085574I-000005J0D01*
G01*
X011289Y0087074D02*
G03*
X011279Y0087174I-00001J0D01*
G01*
X011284Y0086374D02*
G03*
X011289Y0086424I0J000005D01*
G01*
X011199Y0087174D02*
G03*
X011189Y0087074I-0J-00001D01*
G01*
X011189Y00864245D02*
G03*
X01119405Y0086374I00000505J-0D01*
G01*
X011189Y0084874D02*
G03*
X011199Y0084774I00001J-0D01*
G01*
X011194Y0085574D02*
G03*
X011189Y0085524I-0J-000005D01*
G01*
X011279Y0084774D02*
G03*
X011289Y0084874I0J00001D01*
G01*
Y0085524D02*
G03*
X011284Y0085574I-000005J0D01*
G01*
X009843Y009814D02*
G03*
X009815Y009842I-000028J0D01*
G01*
X009615Y009842D02*
G03*
X009587Y009814I0J-000028D01*
G01*
X009815Y009588D02*
G03*
X009843Y009612I000002J000026D01*
G01*
X009587D02*
G03*
X009615Y009588I000026J000002D01*
G01*
X009795Y009715D02*
G03*
X009795Y009715I-00008J0D01*
G01*
X010732Y009814D02*
G03*
X010704Y009842I-000028J0D01*
G01*
X010504Y009842D02*
G03*
X010476Y009814I0J-000028D01*
G01*
X010704Y009588D02*
G03*
X010732Y009612I000002J000026D01*
G01*
X010476D02*
G03*
X010504Y009588I000026J000002D01*
G01*
X010684Y009715D02*
G03*
X010684Y009715I-00008J0D01*
G01*
X008954Y009814D02*
G03*
X008926Y009842I-000028J0D01*
G01*
X008726Y009842D02*
G03*
X008698Y009814I0J-000028D01*
G01*
X008926Y009588D02*
G03*
X008954Y009612I000002J000026D01*
G01*
X008698D02*
G03*
X008726Y009588I000026J000002D01*
G01*
X008906Y009715D02*
G03*
X008906Y009715I-00008J0D01*
G01*
X007938Y009814D02*
G03*
X00791Y009842I-000028J0D01*
G01*
X00771Y009842D02*
G03*
X007682Y009814I0J-000028D01*
G01*
X00791Y009588D02*
G03*
X007938Y009612I000002J000026D01*
G01*
X007682D02*
G03*
X00771Y009588I000026J000002D01*
G01*
X00789Y009715D02*
G03*
X00789Y009715I-00008J0D01*
G01*
X007049Y009814D02*
G03*
X007021Y009842I-000028J0D01*
G01*
X006821Y009842D02*
G03*
X006793Y009814I0J-000028D01*
G01*
X007021Y009588D02*
G03*
X007049Y009612I000002J000026D01*
G01*
X006793D02*
G03*
X006821Y009588I000026J000002D01*
G01*
X007001Y009715D02*
G03*
X007001Y009715I-00008J0D01*
G01*
X00616Y009814D02*
G03*
X006132Y009842I-000028J0D01*
G01*
X005932Y009842D02*
G03*
X005904Y009814I0J-000028D01*
G01*
X006132Y009588D02*
G03*
X00616Y009612I000002J000026D01*
G01*
X005904D02*
G03*
X005932Y009588I000026J000002D01*
G01*
X006112Y009715D02*
G03*
X006112Y009715I-00008J0D01*
G01*
X006131Y008698D02*
G03*
X006159Y008726I0J000028D01*
G01*
X006159Y008926D02*
G03*
X006131Y008954I-000028J0D01*
G01*
X005905Y008726D02*
G03*
X005929Y008698I000026J-000002D01*
G01*
Y008954D02*
G03*
X005905Y008926I000002J-000026D01*
G01*
X006112Y008826D02*
G03*
X006112Y008826I-00008J0D01*
G01*
X0090819Y0083402D02*
G03*
X0090819Y0083402I-00004J0D01*
G01*
X0090719Y0085502D02*
G03*
X0090619Y0085602I-00001J0D01*
G01*
X0090219D02*
G03*
X0090119Y0085502I0J-00001D01*
G01*
X0090619Y0077202D02*
G03*
X0090719Y0077302I0J00001D01*
G01*
X0090119D02*
G03*
X0090219Y0077202I00001J0D01*
G01*
X0088849Y0077302D02*
G03*
X0088949Y0077202I00001J0D01*
G01*
X0089349D02*
G03*
X0089449Y0077302I0J00001D01*
G01*
X0088949Y0085602D02*
G03*
X0088849Y0085502I0J-00001D01*
G01*
X0089449D02*
G03*
X0089349Y0085602I-00001J0D01*
G01*
X0087579Y0077302D02*
G03*
X0087679Y0077202I00001J0D01*
G01*
X0088079D02*
G03*
X0088179Y0077302I0J00001D01*
G01*
X0087679Y0085602D02*
G03*
X0087579Y0085502I0J-00001D01*
G01*
X0088179D02*
G03*
X0088079Y0085602I-00001J0D01*
G01*
X0086309Y0077302D02*
G03*
X0086409Y0077202I00001J0D01*
G01*
X0086809D02*
G03*
X0086909Y0077302I0J00001D01*
G01*
X0086409Y0085602D02*
G03*
X0086309Y0085502I0J-00001D01*
G01*
X0086909D02*
G03*
X0086809Y0085602I-00001J0D01*
G01*
X0091014Y0082402D02*
G03*
X0091014Y0080402I0J-0001D01*
G01*
X007655Y005015D02*
G03*
X007683Y005043I0J000028D01*
G01*
X007683Y005243D02*
G03*
X007655Y005271I-000028J0D01*
G01*
X007429Y005043D02*
G03*
X007453Y005015I000026J-000002D01*
G01*
Y005271D02*
G03*
X007429Y005243I000002J-000026D01*
G01*
X007636Y005143D02*
G03*
X007636Y005143I-00008J0D01*
G01*
X0084396Y005357D02*
G03*
X0084596Y005337I00002J0D01*
G01*
X0083996Y005437D02*
G03*
X0083796Y005457I-00002J0D01*
G01*
X0084596Y005457D02*
G03*
X0084396Y005437I0J-00002D01*
G01*
X0083796Y005337D02*
G03*
X0083996Y005357I0J00002D01*
G01*
X0082996Y005367D02*
G03*
X0083196Y005337I000025J-000005D01*
G01*
Y005457D02*
G03*
X0082996Y005427I000005J-000025D01*
G01*
X0085196Y005337D02*
G03*
X0085396Y005367I-000005J000025D01*
G01*
X0085396Y005427D02*
G03*
X0085196Y005457I-000025J000005D01*
G01*
X0088252Y0076406D02*
G03*
X0088152Y0076506I-00001J0D01*
G01*
X0088202Y0075706D02*
G03*
X0088252Y0075756I0J000005D01*
G01*
X0087352Y0076506D02*
G03*
X0087252Y0076406I-0J-00001D01*
G01*
X0087252Y00757565D02*
G03*
X00873025Y0075706I00000505J-0D01*
G01*
X0087252Y0074206D02*
G03*
X0087352Y0074106I00001J-0D01*
G01*
X0087302Y0074906D02*
G03*
X0087252Y0074856I-0J-000005D01*
G01*
X0088152Y0074106D02*
G03*
X0088252Y0074206I0J00001D01*
G01*
Y0074856D02*
G03*
X0088202Y0074906I-000005J0D01*
G01*
X0087969Y0070055D02*
G03*
X0088119Y0070255I-0000025J0000175D01*
G01*
Y0070755D02*
G03*
X0087969Y0070905I-000015J0D01*
G01*
X0086519D02*
G03*
X0086369Y0070755I0J-000015D01*
G01*
X0086369Y0070255D02*
G03*
X0086519Y0070055I0000175J-0000025D01*
G01*
X0087619Y0070905D02*
G03*
X0087444Y007073I0J-0000175D01*
G01*
X0086869Y0070055D02*
G03*
X0087044Y007023I0J0000175D01*
G01*
X0087419D02*
G03*
X0087619Y0070055I00001875J00000125D01*
G01*
X0087044Y007073D02*
G03*
X0086869Y0070905I-0000175J0D01*
G01*
X008993Y0071696D02*
G03*
X009013Y0071896I0J00002D01*
G01*
X008913Y0071296D02*
G03*
X008893Y0071096I0J-00002D01*
G01*
X008893Y0071896D02*
G03*
X008913Y0071696I00002J0D01*
G01*
X009013Y0071096D02*
G03*
X008993Y0071296I-00002J0D01*
G01*
X008983Y0070296D02*
G03*
X009013Y0070496I000005J000025D01*
G01*
X008893D02*
G03*
X008923Y0070296I000025J000005D01*
G01*
X009013Y0072496D02*
G03*
X008983Y0072696I-000025J-000005D01*
G01*
X008923Y0072696D02*
G03*
X008893Y0072496I-000005J-000025D01*
G01*
X0088252Y0073612D02*
G03*
X0088152Y0073712I-00001J0D01*
G01*
X0088202Y0072912D02*
G03*
X0088252Y0072962I0J000005D01*
G01*
X0087352Y0073712D02*
G03*
X0087252Y0073612I-0J-00001D01*
G01*
X0087252Y00729625D02*
G03*
X00873025Y0072912I00000505J-0D01*
G01*
X0087252Y0071412D02*
G03*
X0087352Y0071312I00001J-0D01*
G01*
X0087302Y0072112D02*
G03*
X0087252Y0072062I-0J-000005D01*
G01*
X0088152Y0071312D02*
G03*
X0088252Y0071412I0J00001D01*
G01*
Y0072062D02*
G03*
X0088202Y0072112I-000005J0D01*
G01*
X008425Y007088D02*
G03*
X008405Y007108I-00002J0D01*
G01*
X008465Y007008D02*
G03*
X008485Y006988I00002J0D01*
G01*
X008405Y006988D02*
G03*
X008425Y007008I0J00002D01*
G01*
X008485Y007108D02*
G03*
X008465Y007088I0J-00002D01*
G01*
X008565Y007078D02*
G03*
X008545Y007108I-000025J000005D01*
G01*
Y006988D02*
G03*
X008565Y007018I-000005J000025D01*
G01*
X008345Y007108D02*
G03*
X008325Y007078I000005J-000025D01*
G01*
X008325Y007018D02*
G03*
X008345Y006988I000025J-000005D01*
G01*
X007653Y0063106D02*
G03*
X007643Y0063006I0J-00001D01*
G01*
X007723Y0063056D02*
G03*
X007718Y0063106I-000005J0D01*
G01*
X007643Y0062206D02*
G03*
X007653Y0062106I00001J-0D01*
G01*
X00771795Y0062106D02*
G03*
X007723Y00621565I0J00000505D01*
G01*
X007873Y0062106D02*
G03*
X007883Y0062206I0J00001D01*
G01*
X007803Y0062156D02*
G03*
X007808Y0062106I000005J-0D01*
G01*
X007883Y0063006D02*
G03*
X007873Y0063106I-00001J0D01*
G01*
X007808D02*
G03*
X007803Y0063056I0J-000005D01*
G01*
X007653Y0061582D02*
G03*
X007643Y0061482I0J-00001D01*
G01*
X007723Y0061532D02*
G03*
X007718Y0061582I-000005J0D01*
G01*
X007643Y0060682D02*
G03*
X007653Y0060582I00001J-0D01*
G01*
X00771795Y0060582D02*
G03*
X007723Y00606325I0J00000505D01*
G01*
X007873Y0060582D02*
G03*
X007883Y0060682I0J00001D01*
G01*
X007803Y0060632D02*
G03*
X007808Y0060582I000005J-0D01*
G01*
X007883Y0061482D02*
G03*
X007873Y0061582I-00001J0D01*
G01*
X007808D02*
G03*
X007803Y0061532I0J-000005D01*
G01*
X0092316Y0066416D02*
G03*
X0092316Y0066416I-00005J0D01*
G01*
X00754759Y00732661D02*
G03*
X00753759Y00731661I0J-00001D01*
G01*
X00761759Y00732161D02*
G03*
X00761259Y00732661I-000005J0D01*
G01*
X00753759Y00723661D02*
G03*
X00754759Y00722661I00001J-0D01*
G01*
X00761254Y00722661D02*
G03*
X00761759Y00723166I0J00000505D01*
G01*
X00776759Y00722661D02*
G03*
X00777759Y00723661I0J00001D01*
G01*
X00769759Y00723161D02*
G03*
X00770259Y00722661I000005J-0D01*
G01*
X00777759Y00731661D02*
G03*
X00776759Y00732661I-00001J0D01*
G01*
X00770259D02*
G03*
X00769759Y00732161I0J-000005D01*
G01*
X00754759Y00712341D02*
G03*
X00753759Y00711341I0J-00001D01*
G01*
X00761759Y00711841D02*
G03*
X00761259Y00712341I-000005J0D01*
G01*
X00753759Y00703341D02*
G03*
X00754759Y00702341I00001J-0D01*
G01*
X00761254Y00702341D02*
G03*
X00761759Y00702846I0J00000505D01*
G01*
X00776759Y00702341D02*
G03*
X00777759Y00703341I0J00001D01*
G01*
X00769759Y00702841D02*
G03*
X00770259Y00702341I000005J-0D01*
G01*
X00777759Y00711341D02*
G03*
X00776759Y00712341I-00001J0D01*
G01*
X00770259D02*
G03*
X00769759Y00711841I0J-000005D01*
G01*
X00711579Y00712341D02*
G03*
X00710579Y00711341I0J-00001D01*
G01*
X00718579Y00711841D02*
G03*
X00718079Y00712341I-000005J0D01*
G01*
X00710579Y00703341D02*
G03*
X00711579Y00702341I00001J-0D01*
G01*
X00718074Y00702341D02*
G03*
X00718579Y00702846I0J00000505D01*
G01*
X00733579Y00702341D02*
G03*
X00734579Y00703341I0J00001D01*
G01*
X00726579Y00702841D02*
G03*
X00727079Y00702341I000005J-0D01*
G01*
X00734579Y00711341D02*
G03*
X00733579Y00712341I-00001J0D01*
G01*
X00727079D02*
G03*
X00726579Y00711841I0J-000005D01*
G01*
X00711579Y00732661D02*
G03*
X00710579Y00731661I0J-00001D01*
G01*
X00718579Y00732161D02*
G03*
X00718079Y00732661I-000005J0D01*
G01*
X00710579Y00723661D02*
G03*
X00711579Y00722661I00001J-0D01*
G01*
X00718074Y00722661D02*
G03*
X00718579Y00723166I0J00000505D01*
G01*
X00733579Y00722661D02*
G03*
X00734579Y00723661I0J00001D01*
G01*
X00726579Y00723161D02*
G03*
X00727079Y00722661I000005J-0D01*
G01*
X00734579Y00731661D02*
G03*
X00733579Y00732661I-00001J0D01*
G01*
X00727079D02*
G03*
X00726579Y00732161I0J-000005D01*
G01*
X0071412Y0076822D02*
G03*
X0071312Y0076722I0J-00001D01*
G01*
X0072112Y0076772D02*
G03*
X0072062Y0076822I-000005J0D01*
G01*
X0071312Y0075922D02*
G03*
X0071412Y0075822I00001J-0D01*
G01*
X00720615Y0075822D02*
G03*
X0072112Y00758725I0J00000505D01*
G01*
X0073612Y0075822D02*
G03*
X0073712Y0075922I0J00001D01*
G01*
X0072912Y0075872D02*
G03*
X0072962Y0075822I000005J-0D01*
G01*
X0073712Y0076722D02*
G03*
X0073612Y0076822I-00001J0D01*
G01*
X0072962D02*
G03*
X0072912Y0076772I0J-000005D01*
G01*
X006864Y007125D02*
G03*
X006854Y007135I-00001J-0D01*
G01*
Y007215D02*
G03*
X006864Y007225I0J00001D01*
G01*
X006724D02*
G03*
X006734Y007215I00001J0D01*
G01*
Y007135D02*
G03*
X006724Y007125I-0J-00001D01*
G01*
X006864Y00728361D02*
G03*
X00682761Y00732I-00003639J0D01*
G01*
X00676039Y00732D02*
G03*
X006724Y00728361I0J-00003639D01*
G01*
X006724Y00706639D02*
G03*
X00676039Y00703I00003639J0D01*
G01*
X00682761Y00703D02*
G03*
X006864Y00706639I0J00003639D01*
G01*
X011367Y00829D02*
G03*
X011339Y008318I-000028J0D01*
G01*
X011139Y008318D02*
G03*
X011111Y00829I0J-000028D01*
G01*
X011339Y008064D02*
G03*
X011367Y008088I000002J000026D01*
G01*
X011111D02*
G03*
X011139Y008064I000026J000002D01*
G01*
X011319Y008191D02*
G03*
X011319Y008191I-00008J0D01*
G01*
X013399Y006385D02*
G03*
X013371Y006413I-000028J0D01*
G01*
X013171Y006413D02*
G03*
X013143Y006385I0J-000028D01*
G01*
X013371Y006159D02*
G03*
X013399Y006183I000002J000026D01*
G01*
X013143D02*
G03*
X013171Y006159I000026J000002D01*
G01*
X013351Y006286D02*
G03*
X013351Y006286I-00008J0D01*
G01*
X013254Y004458D02*
G03*
X013264Y004468I0J00001D01*
G01*
X013184Y004463D02*
G03*
X013189Y004458I000005J0D01*
G01*
X013264Y004548D02*
G03*
X013254Y004558I-00001J0D01*
G01*
X01318905Y004558D02*
G03*
X013184Y00455295I-0J-00000505D01*
G01*
X013034Y004558D02*
G03*
X013024Y004548I-0J-00001D01*
G01*
X013104Y004553D02*
G03*
X013099Y004558I-000005J0D01*
G01*
X013024Y004468D02*
G03*
X013034Y004458I00001J0D01*
G01*
X013099D02*
G03*
X013104Y004463I0J000005D01*
G01*
X013034Y0047358D02*
G03*
X013024Y0047258I0J-00001D01*
G01*
X013104Y0047308D02*
G03*
X013099Y0047358I-000005J0D01*
G01*
X013024Y0046458D02*
G03*
X013034Y0046358I00001J-0D01*
G01*
X01309895Y0046358D02*
G03*
X013104Y00464085I0J00000505D01*
G01*
X013254Y0046358D02*
G03*
X013264Y0046458I0J00001D01*
G01*
X013184Y0046408D02*
G03*
X013189Y0046358I000005J-0D01*
G01*
X013264Y0047258D02*
G03*
X013254Y0047358I-00001J0D01*
G01*
X013189D02*
G03*
X013184Y0047308I0J-000005D01*
G01*
X013034Y004939D02*
G03*
X013024Y004929I0J-00001D01*
G01*
X013104Y004934D02*
G03*
X013099Y004939I-000005J0D01*
G01*
X013024Y004849D02*
G03*
X013034Y004839I00001J-0D01*
G01*
X01309895Y004839D02*
G03*
X013104Y00484405I0J00000505D01*
G01*
X013254Y004839D02*
G03*
X013264Y004849I0J00001D01*
G01*
X013184Y004844D02*
G03*
X013189Y004839I000005J-0D01*
G01*
X013264Y004929D02*
G03*
X013254Y004939I-00001J0D01*
G01*
X013189D02*
G03*
X013184Y004934I0J-000005D01*
G01*
X013653Y005369D02*
G03*
X013625Y005397I-000028J0D01*
G01*
X013425Y005397D02*
G03*
X013397Y005369I0J-000028D01*
G01*
X013625Y005143D02*
G03*
X013653Y005167I000002J000026D01*
G01*
X013397D02*
G03*
X013425Y005143I000026J000002D01*
G01*
X013605Y00527D02*
G03*
X013605Y00527I-00008J0D01*
G01*
X0096788Y0066616D02*
G03*
X0096988Y0066816I0J00002D01*
G01*
X0095988Y0066216D02*
G03*
X0095788Y0066016I0J-00002D01*
G01*
X0095788Y0066816D02*
G03*
X0095988Y0066616I00002J0D01*
G01*
X0096988Y0066016D02*
G03*
X0096788Y0066216I-00002J0D01*
G01*
X0096688Y0065216D02*
G03*
X0096988Y0065416I000005J000025D01*
G01*
X0095788D02*
G03*
X0096088Y0065216I000025J000005D01*
G01*
X0096988Y0067416D02*
G03*
X0096688Y0067616I-000025J-000005D01*
G01*
X0096088Y0067616D02*
G03*
X0095788Y0067416I-000005J-000025D01*
G01*
X010859Y00448D02*
G03*
X010831Y004508I-000028J0D01*
G01*
X010631Y004508D02*
G03*
X010603Y00448I0J-000028D01*
G01*
X010831Y004254D02*
G03*
X010859Y004278I000002J000026D01*
G01*
X010603D02*
G03*
X010631Y004254I000026J000002D01*
G01*
X010811Y004381D02*
G03*
X010811Y004381I-00008J0D01*
G01*
X012399Y0054978D02*
G03*
X012389Y0054878I0J-00001D01*
G01*
X012469Y0054928D02*
G03*
X012464Y0054978I-000005J0D01*
G01*
X012389Y0054078D02*
G03*
X012399Y0053978I00001J-0D01*
G01*
X01246395Y0053978D02*
G03*
X012469Y00540285I0J00000505D01*
G01*
X012619Y0053978D02*
G03*
X012629Y0054078I0J00001D01*
G01*
X012549Y0054028D02*
G03*
X012554Y0053978I000005J-0D01*
G01*
X012629Y0054878D02*
G03*
X012619Y0054978I-00001J0D01*
G01*
X012554D02*
G03*
X012549Y0054928I0J-000005D01*
G01*
X01124Y0046324D02*
G03*
X011212Y0046604I-000028J0D01*
G01*
X011012Y0046604D02*
G03*
X010984Y0046324I0J-000028D01*
G01*
X011212Y0044064D02*
G03*
X01124Y0044304I000002J000026D01*
G01*
X010984D02*
G03*
X011012Y0044064I000026J000002D01*
G01*
X011192Y0045334D02*
G03*
X011192Y0045334I-00008J0D01*
G01*
X010632Y0057282D02*
G03*
X010604Y0057002I0J-000028D01*
G01*
X010604Y0055002D02*
G03*
X010632Y0054722I000028J0D01*
G01*
X010858Y0057002D02*
G03*
X010834Y0057282I-000026J000002D01*
G01*
Y0054722D02*
G03*
X010858Y0055002I-000002J000026D01*
G01*
X010811Y0056002D02*
G03*
X010811Y0056002I-00008J0D01*
G01*
X010632Y0051186D02*
G03*
X010604Y0050906I0J-000028D01*
G01*
X010604Y0048906D02*
G03*
X010632Y0048626I000028J0D01*
G01*
X010858Y0050906D02*
G03*
X010834Y0051186I-000026J000002D01*
G01*
Y0048626D02*
G03*
X010858Y0048906I-000002J000026D01*
G01*
X010811Y0049906D02*
G03*
X010811Y0049906I-00008J0D01*
G01*
X010859Y0066136D02*
G03*
X010831Y0066416I-000028J0D01*
G01*
X010631Y0066416D02*
G03*
X010603Y0066136I0J-000028D01*
G01*
X010831Y0063876D02*
G03*
X010859Y0064116I000002J000026D01*
G01*
X010603D02*
G03*
X010631Y0063876I000026J000002D01*
G01*
X010811Y0065146D02*
G03*
X010811Y0065146I-00008J0D01*
G01*
X01083Y007301D02*
G03*
X010858Y007329I0J000028D01*
G01*
X010858Y007529D02*
G03*
X01083Y007557I-000028J0D01*
G01*
X010604Y007329D02*
G03*
X010628Y007301I000026J-000002D01*
G01*
Y007557D02*
G03*
X010604Y007529I000002J-000026D01*
G01*
X010811Y007429D02*
G03*
X010811Y007429I-00008J0D01*
G01*
X010859Y0072232D02*
G03*
X010831Y0072512I-000028J0D01*
G01*
X010631Y0072512D02*
G03*
X010603Y0072232I0J-000028D01*
G01*
X010831Y0069972D02*
G03*
X010859Y0070212I000002J000026D01*
G01*
X010603D02*
G03*
X010631Y0069972I000026J000002D01*
G01*
X010811Y0071242D02*
G03*
X010811Y0071242I-00008J0D01*
G01*
X012399Y0059042D02*
G03*
X012389Y0058942I0J-00001D01*
G01*
X012469Y0058992D02*
G03*
X012464Y0059042I-000005J0D01*
G01*
X012389Y0058142D02*
G03*
X012399Y0058042I00001J-0D01*
G01*
X01246395Y0058042D02*
G03*
X012469Y00580925I0J00000505D01*
G01*
X012619Y0058042D02*
G03*
X012629Y0058142I0J00001D01*
G01*
X012549Y0058092D02*
G03*
X012554Y0058042I000005J-0D01*
G01*
X012629Y0058942D02*
G03*
X012619Y0059042I-00001J0D01*
G01*
X012554D02*
G03*
X012549Y0058992I0J-000005D01*
G01*
X012399Y005701D02*
G03*
X012389Y005691I0J-00001D01*
G01*
X012469Y005696D02*
G03*
X012464Y005701I-000005J0D01*
G01*
X012389Y005611D02*
G03*
X012399Y005601I00001J-0D01*
G01*
X01246395Y005601D02*
G03*
X012469Y00560605I0J00000505D01*
G01*
X012619Y005601D02*
G03*
X012629Y005611I0J00001D01*
G01*
X012549Y005606D02*
G03*
X012554Y005601I000005J-0D01*
G01*
X012629Y005691D02*
G03*
X012619Y005701I-00001J0D01*
G01*
X012554D02*
G03*
X012549Y005696I0J-000005D01*
G01*
X011984Y0046358D02*
G03*
X011994Y0046458I0J00001D01*
G01*
X011914Y0046408D02*
G03*
X011919Y0046358I000005J0D01*
G01*
X011994Y0047258D02*
G03*
X011984Y0047358I-00001J0D01*
G01*
X01191905Y0047358D02*
G03*
X011914Y00473075I-0J-00000505D01*
G01*
X011764Y0047358D02*
G03*
X011754Y0047258I-0J-00001D01*
G01*
X011834Y0047308D02*
G03*
X011829Y0047358I-000005J0D01*
G01*
X011754Y0046458D02*
G03*
X011764Y0046358I00001J0D01*
G01*
X011829D02*
G03*
X011834Y0046408I0J000005D01*
G01*
X010859Y0063088D02*
G03*
X010831Y0063368I-000028J0D01*
G01*
X010631Y0063368D02*
G03*
X010603Y0063088I0J-000028D01*
G01*
X010831Y0060828D02*
G03*
X010859Y0061068I000002J000026D01*
G01*
X010603D02*
G03*
X010631Y0060828I000026J000002D01*
G01*
X010811Y0062098D02*
G03*
X010811Y0062098I-00008J0D01*
G01*
X010632Y0048138D02*
G03*
X010604Y0047858I0J-000028D01*
G01*
X010604Y0045858D02*
G03*
X010632Y0045578I000028J0D01*
G01*
X010858Y0047858D02*
G03*
X010834Y0048138I-000026J000002D01*
G01*
Y0045578D02*
G03*
X010858Y0045858I-000002J000026D01*
G01*
X010811Y0046858D02*
G03*
X010811Y0046858I-00008J0D01*
G01*
X010859Y0053944D02*
G03*
X010831Y0054224I-000028J0D01*
G01*
X010631Y0054224D02*
G03*
X010603Y0053944I0J-000028D01*
G01*
X010831Y0051684D02*
G03*
X010859Y0051924I000002J000026D01*
G01*
X010603D02*
G03*
X010631Y0051684I000026J000002D01*
G01*
X010811Y0052954D02*
G03*
X010811Y0052954I-00008J0D01*
G01*
X010859Y0069184D02*
G03*
X010831Y0069464I-000028J0D01*
G01*
X010631Y0069464D02*
G03*
X010603Y0069184I0J-000028D01*
G01*
X010831Y0066924D02*
G03*
X010859Y0067164I000002J000026D01*
G01*
X010603D02*
G03*
X010631Y0066924I000026J000002D01*
G01*
X010811Y0068194D02*
G03*
X010811Y0068194I-00008J0D01*
G01*
X010632Y006033D02*
G03*
X010604Y006005I0J-000028D01*
G01*
X010604Y005805D02*
G03*
X010632Y005777I000028J0D01*
G01*
X010858Y006005D02*
G03*
X010834Y006033I-000026J000002D01*
G01*
Y005777D02*
G03*
X010858Y005805I-000002J000026D01*
G01*
X010811Y005905D02*
G03*
X010811Y005905I-00008J0D01*
G01*
X012399Y0065138D02*
G03*
X012389Y0065038I0J-00001D01*
G01*
X012469Y0065088D02*
G03*
X012464Y0065138I-000005J0D01*
G01*
X012389Y0064238D02*
G03*
X012399Y0064138I00001J-0D01*
G01*
X01246395Y0064138D02*
G03*
X012469Y00641885I0J00000505D01*
G01*
X012619Y0064138D02*
G03*
X012629Y0064238I0J00001D01*
G01*
X012549Y0064188D02*
G03*
X012554Y0064138I000005J-0D01*
G01*
X012629Y0065038D02*
G03*
X012619Y0065138I-00001J0D01*
G01*
X012554D02*
G03*
X012549Y0065088I0J-000005D01*
G01*
X012399Y006717D02*
G03*
X012389Y006707I0J-00001D01*
G01*
X012469Y006712D02*
G03*
X012464Y006717I-000005J0D01*
G01*
X012389Y006627D02*
G03*
X012399Y006617I00001J-0D01*
G01*
X01246395Y006617D02*
G03*
X012469Y00662205I0J00000505D01*
G01*
X012619Y006617D02*
G03*
X012629Y006627I0J00001D01*
G01*
X012549Y006622D02*
G03*
X012554Y006617I000005J-0D01*
G01*
X012629Y006707D02*
G03*
X012619Y006717I-00001J0D01*
G01*
X012554D02*
G03*
X012549Y006712I0J-000005D01*
G01*
X012399Y007098D02*
G03*
X012389Y007088I0J-00001D01*
G01*
X012469Y007093D02*
G03*
X012464Y007098I-000005J0D01*
G01*
X012389Y007008D02*
G03*
X012399Y006998I00001J-0D01*
G01*
X01246395Y006998D02*
G03*
X012469Y00700305I0J00000505D01*
G01*
X012619Y006998D02*
G03*
X012629Y007008I0J00001D01*
G01*
X012549Y007003D02*
G03*
X012554Y006998I000005J-0D01*
G01*
X012629Y007088D02*
G03*
X012619Y007098I-00001J0D01*
G01*
X012554D02*
G03*
X012549Y007093I0J-000005D01*
G01*
X012399Y0061074D02*
G03*
X012389Y0060974I0J-00001D01*
G01*
X012469Y0061024D02*
G03*
X012464Y0061074I-000005J0D01*
G01*
X012389Y0060174D02*
G03*
X012399Y0060074I00001J-0D01*
G01*
X01246395Y0060074D02*
G03*
X012469Y00601245I0J00000505D01*
G01*
X012619Y0060074D02*
G03*
X012629Y0060174I0J00001D01*
G01*
X012549Y0060124D02*
G03*
X012554Y0060074I000005J-0D01*
G01*
X012629Y0060974D02*
G03*
X012619Y0061074I-00001J0D01*
G01*
X012554D02*
G03*
X012549Y0061024I0J-000005D01*
G01*
X011013Y0058806D02*
G03*
X010985Y0058526I0J-000028D01*
G01*
X010985Y0056526D02*
G03*
X011013Y0056246I000028J0D01*
G01*
X011239Y0058526D02*
G03*
X011215Y0058806I-000026J000002D01*
G01*
Y0056246D02*
G03*
X011239Y0056526I-000002J000026D01*
G01*
X011192Y0057526D02*
G03*
X011192Y0057526I-00008J0D01*
G01*
X01124Y0049372D02*
G03*
X011212Y0049652I-000028J0D01*
G01*
X011012Y0049652D02*
G03*
X010984Y0049372I0J-000028D01*
G01*
X011212Y0047112D02*
G03*
X01124Y0047352I000002J000026D01*
G01*
X010984D02*
G03*
X011012Y0047112I000026J000002D01*
G01*
X011192Y0048382D02*
G03*
X011192Y0048382I-00008J0D01*
G01*
X011211Y0068438D02*
G03*
X011239Y0068718I0J000028D01*
G01*
X011239Y0070718D02*
G03*
X011211Y0070998I-000028J0D01*
G01*
X010985Y0068718D02*
G03*
X011009Y0068438I000026J-000002D01*
G01*
Y0070998D02*
G03*
X010985Y0070718I000002J-000026D01*
G01*
X011192Y0069718D02*
G03*
X011192Y0069718I-00008J0D01*
G01*
X0115684Y008047D02*
G03*
X0115584Y008057I-00001J0D01*
G01*
X0115634Y007977D02*
G03*
X0115684Y007982I0J000005D01*
G01*
X0114784Y008057D02*
G03*
X0114684Y008047I-0J-00001D01*
G01*
X0114684Y00798205D02*
G03*
X01147345Y007977I00000505J-0D01*
G01*
X0114684Y007827D02*
G03*
X0114784Y007817I00001J-0D01*
G01*
X0114734Y007897D02*
G03*
X0114684Y007892I-0J-000005D01*
G01*
X0115584Y007817D02*
G03*
X0115684Y007827I0J00001D01*
G01*
Y007892D02*
G03*
X0115634Y007897I-000005J0D01*
G01*
X011924Y008047D02*
G03*
X011914Y008057I-00001J0D01*
G01*
X011919Y007977D02*
G03*
X011924Y007982I0J000005D01*
G01*
X011834Y008057D02*
G03*
X011824Y008047I-0J-00001D01*
G01*
X011824Y00798205D02*
G03*
X01182905Y007977I00000505J-0D01*
G01*
X011824Y007827D02*
G03*
X011834Y007817I00001J-0D01*
G01*
X011829Y007897D02*
G03*
X011824Y007892I-0J-000005D01*
G01*
X011914Y007817D02*
G03*
X011924Y007827I0J00001D01*
G01*
Y007892D02*
G03*
X011919Y007897I-000005J0D01*
G01*
X011211Y0059294D02*
G03*
X011239Y0059574I0J000028D01*
G01*
X011239Y0061574D02*
G03*
X011211Y0061854I-000028J0D01*
G01*
X010985Y0059574D02*
G03*
X011009Y0059294I000026J-000002D01*
G01*
Y0061854D02*
G03*
X010985Y0061574I000002J-000026D01*
G01*
X011192Y0060574D02*
G03*
X011192Y0060574I-00008J0D01*
G01*
X011211Y006539D02*
G03*
X011239Y006567I0J000028D01*
G01*
X011239Y006767D02*
G03*
X011211Y006795I-000028J0D01*
G01*
X010985Y006567D02*
G03*
X011009Y006539I000026J-000002D01*
G01*
Y006795D02*
G03*
X010985Y006767I000002J-000026D01*
G01*
X011192Y006667D02*
G03*
X011192Y006667I-00008J0D01*
G01*
X01124Y005242D02*
G03*
X011212Y00527I-000028J0D01*
G01*
X011012Y00527D02*
G03*
X010984Y005242I0J-000028D01*
G01*
X011212Y005016D02*
G03*
X01124Y00504I000002J000026D01*
G01*
X010984D02*
G03*
X011012Y005016I000026J000002D01*
G01*
X011192Y005143D02*
G03*
X011192Y005143I-00008J0D01*
G01*
X0116462Y007827D02*
G03*
X0116562Y007817I00001J0D01*
G01*
X0116512Y007897D02*
G03*
X0116462Y007892I0J-000005D01*
G01*
X0117362Y007817D02*
G03*
X0117462Y007827I0J00001D01*
G01*
X0117462Y00789195D02*
G03*
X01174115Y007897I-00000505J0D01*
G01*
X0117462Y008047D02*
G03*
X0117362Y008057I-00001J0D01*
G01*
X0117412Y007977D02*
G03*
X0117462Y007982I0J000005D01*
G01*
X0116562Y008057D02*
G03*
X0116462Y008047I0J-00001D01*
G01*
Y007982D02*
G03*
X0116512Y007977I000005J0D01*
G01*
X011211Y0062342D02*
G03*
X011239Y0062622I0J000028D01*
G01*
X011239Y0064622D02*
G03*
X011211Y0064902I-000028J0D01*
G01*
X010985Y0062622D02*
G03*
X011009Y0062342I000026J-000002D01*
G01*
Y0064902D02*
G03*
X010985Y0064622I000002J-000026D01*
G01*
X011192Y0063622D02*
G03*
X011192Y0063622I-00008J0D01*
G01*
X011211Y0071486D02*
G03*
X011239Y0071766I0J000028D01*
G01*
X011239Y0073766D02*
G03*
X011211Y0074046I-000028J0D01*
G01*
X010985Y0071766D02*
G03*
X011009Y0071486I000026J-000002D01*
G01*
Y0074046D02*
G03*
X010985Y0073766I000002J-000026D01*
G01*
X011192Y0072766D02*
G03*
X011192Y0072766I-00008J0D01*
G01*
X01124Y0055468D02*
G03*
X011212Y0055748I-000028J0D01*
G01*
X011012Y0055748D02*
G03*
X010984Y0055468I0J-000028D01*
G01*
X011212Y0053208D02*
G03*
X01124Y0053448I000002J000026D01*
G01*
X010984D02*
G03*
X011012Y0053208I000026J000002D01*
G01*
X011192Y0054478D02*
G03*
X011192Y0054478I-00008J0D01*
G01*
X012399Y0063106D02*
G03*
X012389Y0063006I0J-00001D01*
G01*
X012469Y0063056D02*
G03*
X012464Y0063106I-000005J0D01*
G01*
X012389Y0062206D02*
G03*
X012399Y0062106I00001J-0D01*
G01*
X01246395Y0062106D02*
G03*
X012469Y00621565I0J00000505D01*
G01*
X012619Y0062106D02*
G03*
X012629Y0062206I0J00001D01*
G01*
X012549Y0062156D02*
G03*
X012554Y0062106I000005J-0D01*
G01*
X012629Y0063006D02*
G03*
X012619Y0063106I-00001J0D01*
G01*
X012554D02*
G03*
X012549Y0063056I0J-000005D01*
G01*
X006894Y00654D02*
G03*
X006894Y00654I-0001J0D01*
G01*
Y00781D02*
G03*
X006894Y00781I-0001J0D01*
G01*
X0143886Y006667D02*
X014414Y0066924D01*
X014159Y0066934D02*
X01416Y0066924D01*
X0141854Y006667D01*
X014159Y0066924D02*
X01416D01*
X014414D02*
X014415D01*
X0143886Y006667D02*
X014414Y0066416D01*
X0143886Y006667D02*
X014414Y0066924D01*
X014415Y0064384D02*
Y006643D01*
X0143886Y006413D02*
X014414Y0064384D01*
X01416Y0066416D02*
X0141854Y006667D01*
X01416Y0066924D02*
X0141854Y006667D01*
X014159Y0066924D02*
X01416D01*
X014159Y0064394D02*
X01416Y0064384D01*
X014159Y0064394D02*
Y006643D01*
X01416Y0064384D02*
X0141854Y006413D01*
X014159Y0064384D02*
X01416D01*
X014159Y0066924D02*
X01416D01*
X0141854Y006667D01*
X014159Y0066934D02*
Y006897D01*
Y0066934D02*
X01416Y0066924D01*
X014159Y0069464D02*
X01416D01*
X0141854Y006921D01*
X01416Y0068956D02*
X0141854Y006921D01*
X0143886Y006667D02*
X014414Y0066924D01*
X014415D02*
Y006897D01*
X0143886Y006921D02*
X014414Y0069464D01*
X0143886Y006921D02*
X014414Y0068956D01*
Y0069464D02*
X014415D01*
X014159D02*
X01416D01*
X0141854Y006921D01*
X014159Y0069474D02*
Y007151D01*
Y0069474D02*
X01416Y0069464D01*
X014159Y0072004D02*
X01416D01*
X0141854Y007175D01*
X01416Y0071496D02*
X0141854Y007175D01*
X0143886Y006921D02*
X014414Y0069464D01*
X014415D02*
Y007151D01*
X0143886Y007175D02*
X014414Y0072004D01*
X0143886Y007175D02*
X014414Y0071496D01*
Y0072004D02*
X014415D01*
X014159D02*
X01416D01*
X0141854Y007175D01*
X014159Y0072014D02*
Y007405D01*
Y0072014D02*
X01416Y0072004D01*
X014159Y0074544D02*
X01416D01*
X0141854Y007429D01*
X01416Y0074036D02*
X0141854Y007429D01*
X0143886Y007175D02*
X014414Y0072004D01*
X014415D02*
Y007405D01*
X0143886Y007429D02*
X014414Y0074544D01*
X0143886Y007429D02*
X014414Y0074036D01*
Y0074544D02*
X014415D01*
X014159D02*
X01416D01*
X0141854Y007429D01*
X014159Y0074554D02*
Y007659D01*
Y0074554D02*
X01416Y0074544D01*
X014159Y0077084D02*
X01416D01*
X0141854Y007683D01*
X01416Y0076576D02*
X0141854Y007683D01*
X0143886Y007429D02*
X014414Y0074544D01*
X014415D02*
Y007659D01*
X0143886Y007683D02*
X014414Y0077084D01*
X0143886Y007683D02*
X014414Y0076576D01*
Y0077084D02*
X014415D01*
X014159D02*
X01416D01*
X014159Y0077094D02*
Y007913D01*
Y0077094D02*
X01416Y0077084D01*
X014159Y0079624D02*
X01416D01*
X0141854Y007937D01*
X01416Y0079116D02*
X0141854Y007937D01*
X014415Y0077084D02*
Y007913D01*
X0143886Y007937D02*
X014414Y0079624D01*
X0143886Y007937D02*
X014414Y0079116D01*
Y0079624D02*
X014415D01*
X014187Y006159D02*
X014387D01*
X014414Y0061844D02*
X014415D01*
Y0063876D01*
X0143886Y006413D02*
X014414Y0063876D01*
X014159Y0061844D02*
X01416D01*
X014159D02*
Y0063876D01*
X0141844Y006413D01*
X0141854D01*
X014187Y010477D02*
X014387D01*
X0143886Y010223D02*
X014414Y0102484D01*
X0143886Y010223D02*
X014414Y0101976D01*
X014159Y0102484D02*
X01416D01*
X0141854Y010223D01*
X0141844D02*
X0141854D01*
X014159Y0101976D02*
X0141844Y010223D01*
X014415Y0102484D02*
Y010453D01*
X0143886Y009969D02*
X014414Y0099944D01*
X0143886Y009969D02*
X014414Y0099436D01*
X014415Y0099944D02*
Y0101976D01*
X014414Y0099944D02*
X014415D01*
X014159Y0102494D02*
Y010453D01*
Y0102494D02*
X01416Y0102484D01*
X014159Y0099944D02*
Y0101976D01*
Y0099944D02*
X01416D01*
X0141854Y009969D01*
X01416Y0099436D02*
X0141854Y009969D01*
X014414Y0094864D02*
X014415D01*
Y0096896D01*
X0143886Y009461D02*
X014414Y0094356D01*
X0143886Y009461D02*
X014414Y0094864D01*
X014415Y0097404D02*
Y009945D01*
X0143886Y009715D02*
X014414Y0096896D01*
X0143886Y009715D02*
X014414Y0097404D01*
Y0089784D02*
X014415D01*
Y0091816D01*
X0143886Y008953D02*
X014414Y0089276D01*
X0143886Y008953D02*
X014414Y0089784D01*
X014415Y0092324D02*
Y009437D01*
X0143886Y009207D02*
X014414Y0091816D01*
X0143886Y009207D02*
X014414Y0092324D01*
Y0084704D02*
X014415D01*
Y0086736D01*
X0143886Y008445D02*
X014414Y0084196D01*
X0143886Y008445D02*
X014414Y0084704D01*
X014415Y0087244D02*
Y008929D01*
X0143886Y008699D02*
X014414Y0086736D01*
X0143886Y008699D02*
X014414Y0087244D01*
Y0079624D02*
X014415D01*
Y0081656D01*
X0143886Y007937D02*
X014414Y0079624D01*
X014415Y0082164D02*
Y008421D01*
X0143886Y008191D02*
X014414Y0081656D01*
X0143886Y008191D02*
X014414Y0082164D01*
X01416Y0094356D02*
X0141854Y009461D01*
X01416Y0094864D02*
X0141854Y009461D01*
X014159Y0094864D02*
X01416D01*
X014159D02*
Y0096896D01*
Y0097414D02*
X01416Y0097404D01*
X014159Y0097414D02*
Y009945D01*
Y0096896D02*
X0141844Y009715D01*
X0141854D01*
X01416Y0097404D02*
X0141854Y009715D01*
X014159Y0097404D02*
X01416D01*
Y0089276D02*
X0141854Y008953D01*
X01416Y0089784D02*
X0141854Y008953D01*
X014159Y0089784D02*
X01416D01*
X014159D02*
Y0091816D01*
Y0092334D02*
X01416Y0092324D01*
X014159Y0092334D02*
Y009437D01*
Y0091816D02*
X0141844Y009207D01*
X0141854D01*
X01416Y0092324D02*
X0141854Y009207D01*
X014159Y0092324D02*
X01416D01*
Y0084196D02*
X0141854Y008445D01*
X01416Y0084704D02*
X0141854Y008445D01*
X014159Y0084704D02*
X01416D01*
X014159D02*
Y0086736D01*
Y0087254D02*
X01416Y0087244D01*
X014159Y0087254D02*
Y008929D01*
Y0086736D02*
X0141844Y008699D01*
X0141854D01*
X01416Y0087244D02*
X0141854Y008699D01*
X014159Y0087244D02*
X01416D01*
Y0079624D02*
X0141854Y007937D01*
X014159Y0079624D02*
X01416D01*
X014159D02*
Y0081656D01*
Y0082174D02*
X01416Y0082164D01*
X014159Y0082174D02*
Y008421D01*
Y0081656D02*
X0141844Y008191D01*
X0141854D01*
X01416Y0082164D02*
X0141854Y008191D01*
X014159Y0082164D02*
X01416D01*
X014159Y0077094D02*
X01416Y0077084D01*
X014159D02*
X01416D01*
X013905D02*
X013906D01*
X013905Y0077094D02*
X013906Y0077084D01*
X013905Y0082164D02*
X013906D01*
X0139314Y008191D01*
X0139304D02*
X0139314D01*
X013905Y0081656D02*
X0139304Y008191D01*
X013905Y0082174D02*
Y008421D01*
Y0082174D02*
X013906Y0082164D01*
X013905Y0079624D02*
Y0081656D01*
Y0079624D02*
X013906D01*
X0139314Y007937D01*
X013905Y0087244D02*
X013906D01*
X0139314Y008699D01*
X0139304D02*
X0139314D01*
X013905Y0086736D02*
X0139304Y008699D01*
X013905Y0087254D02*
Y008929D01*
Y0087254D02*
X013906Y0087244D01*
X013905Y0084704D02*
Y0086736D01*
Y0084704D02*
X013906D01*
X0139314Y008445D01*
X013906Y0084196D02*
X0139314Y008445D01*
X013905Y0092324D02*
X013906D01*
X0139314Y009207D01*
X0139304D02*
X0139314D01*
X013905Y0091816D02*
X0139304Y009207D01*
X013905Y0092334D02*
Y009437D01*
Y0092334D02*
X013906Y0092324D01*
X013905Y0089784D02*
Y0091816D01*
Y0089784D02*
X013906D01*
X0139314Y008953D01*
X013906Y0089276D02*
X0139314Y008953D01*
X013905Y0097404D02*
X013906D01*
X0139314Y009715D01*
X0139304D02*
X0139314D01*
X013905Y0096896D02*
X0139304Y009715D01*
X013905Y0097414D02*
Y009945D01*
Y0097414D02*
X013906Y0097404D01*
X013905Y0094864D02*
Y0096896D01*
Y0094864D02*
X013906D01*
X0139314Y009461D01*
X013906Y0094356D02*
X0139314Y009461D01*
X0141346Y008191D02*
X01416Y0082164D01*
X0141346Y008191D02*
X01416Y0081656D01*
X014161Y0082164D02*
Y008421D01*
X0141346Y007937D02*
X01416Y0079624D01*
X014161D02*
Y0081656D01*
X01416Y0079624D02*
X014161D01*
X0141346Y008699D02*
X01416Y0087244D01*
X0141346Y008699D02*
X01416Y0086736D01*
X014161Y0087244D02*
Y008929D01*
X0141346Y008445D02*
X01416Y0084704D01*
X0141346Y008445D02*
X01416Y0084196D01*
X014161Y0084704D02*
Y0086736D01*
X01416Y0084704D02*
X014161D01*
X0141346Y009207D02*
X01416Y0092324D01*
X0141346Y009207D02*
X01416Y0091816D01*
X014161Y0092324D02*
Y009437D01*
X0141346Y008953D02*
X01416Y0089784D01*
X0141346Y008953D02*
X01416Y0089276D01*
X014161Y0089784D02*
Y0091816D01*
X01416Y0089784D02*
X014161D01*
X0141346Y009715D02*
X01416Y0097404D01*
X0141346Y009715D02*
X01416Y0096896D01*
X014161Y0097404D02*
Y009945D01*
X0141346Y009461D02*
X01416Y0094864D01*
X0141346Y009461D02*
X01416Y0094356D01*
X014161Y0094864D02*
Y0096896D01*
X01416Y0094864D02*
X014161D01*
X013906Y0099436D02*
X0139314Y009969D01*
X013906Y0099944D02*
X0139314Y009969D01*
X013905Y0099944D02*
X013906D01*
X013905D02*
Y0101976D01*
Y0102494D02*
X013906Y0102484D01*
X013905Y0102494D02*
Y010453D01*
X01416Y0099944D02*
X014161D01*
Y0101976D01*
X0141346Y009969D02*
X01416Y0099436D01*
X0141346Y009969D02*
X01416Y0099944D01*
X014161Y0102484D02*
Y010453D01*
X013905Y0101976D02*
X0139304Y010223D01*
X0139314D01*
X013906Y0102484D02*
X0139314Y010223D01*
X013905Y0102484D02*
X013906D01*
X0141346Y010223D02*
X01416Y0101976D01*
X0141346Y010223D02*
X01416Y0102484D01*
X013933Y010477D02*
X014133D01*
X0139304Y006413D02*
X0139314D01*
X013905Y0063876D02*
X0139304Y006413D01*
X013905Y0061844D02*
Y0063876D01*
Y0061844D02*
X013906D01*
X0141346Y006413D02*
X01416Y0063876D01*
X014161Y0061844D02*
Y0063876D01*
X01416Y0061844D02*
X014161D01*
X013933Y006159D02*
X014133D01*
X01416Y0079624D02*
X014161D01*
X0141346Y007937D02*
X01416Y0079116D01*
X0141346Y007937D02*
X01416Y0079624D01*
X014161Y0077084D02*
Y007913D01*
X013906Y0079116D02*
X0139314Y007937D01*
X013906Y0079624D02*
X0139314Y007937D01*
X013905Y0079624D02*
X013906D01*
X013905Y0077094D02*
X013906Y0077084D01*
X013905Y0077094D02*
Y007913D01*
Y0077084D02*
X013906D01*
X01416D02*
X014161D01*
X0141346Y007683D02*
X01416Y0076576D01*
X0141346Y007683D02*
X01416Y0077084D01*
X014161Y0074544D02*
Y007659D01*
X0141346Y007429D02*
X01416Y0074544D01*
X013906Y0076576D02*
X0139314Y007683D01*
X013906Y0077084D02*
X0139314Y007683D01*
X013905Y0077084D02*
X013906D01*
X013905Y0074554D02*
X013906Y0074544D01*
X013905Y0074554D02*
Y007659D01*
X013906Y0074544D02*
X0139314Y007429D01*
X013905Y0074544D02*
X013906D01*
X01416D02*
X014161D01*
X0141346Y007429D02*
X01416Y0074036D01*
X0141346Y007429D02*
X01416Y0074544D01*
X014161Y0072004D02*
Y007405D01*
X0141346Y007175D02*
X01416Y0072004D01*
X013906Y0074036D02*
X0139314Y007429D01*
X013906Y0074544D02*
X0139314Y007429D01*
X013905Y0074544D02*
X013906D01*
X013905Y0072014D02*
X013906Y0072004D01*
X013905Y0072014D02*
Y007405D01*
X013906Y0072004D02*
X0139314Y007175D01*
X013905Y0072004D02*
X013906D01*
X01416D02*
X014161D01*
X0141346Y007175D02*
X01416Y0071496D01*
X0141346Y007175D02*
X01416Y0072004D01*
X014161Y0069464D02*
Y007151D01*
X0141346Y006921D02*
X01416Y0069464D01*
X013906Y0071496D02*
X0139314Y007175D01*
X013906Y0072004D02*
X0139314Y007175D01*
X013905Y0072004D02*
X013906D01*
X013905Y0069474D02*
X013906Y0069464D01*
X013905Y0069474D02*
Y007151D01*
X013906Y0069464D02*
X0139314Y006921D01*
X013905Y0069464D02*
X013906D01*
X01416D02*
X014161D01*
X0141346Y006921D02*
X01416Y0068956D01*
X0141346Y006921D02*
X01416Y0069464D01*
X014161Y0066924D02*
Y006897D01*
X0141346Y006667D02*
X01416Y0066924D01*
X013906Y0068956D02*
X0139314Y006921D01*
X013906Y0069464D02*
X0139314Y006921D01*
X013905Y0069464D02*
X013906D01*
X013905Y0066934D02*
X013906Y0066924D01*
X013905Y0066934D02*
Y006897D01*
X013906Y0066924D02*
X0139314Y006667D01*
X013905Y0066924D02*
X013906D01*
X013905Y0064384D02*
X013906D01*
X0139314Y006413D01*
X013905Y0064394D02*
Y006643D01*
Y0064394D02*
X013906Y0064384D01*
X013905Y0066924D02*
X013906D01*
X0139314Y006667D01*
X013906Y0066416D02*
X0139314Y006667D01*
X0141346Y006413D02*
X01416Y0064384D01*
X014161D02*
Y006643D01*
X0141346Y006667D02*
X01416Y0066924D01*
X0141346Y006667D02*
X01416Y0066416D01*
Y0066924D02*
X014161D01*
X013905D02*
X013906D01*
X0139314Y006667D01*
X013905Y0066934D02*
X013906Y0066924D01*
X0141346Y006667D02*
X01416Y0066924D01*
X0110104Y0124852D02*
Y0126852D01*
X0107564Y0124852D02*
Y0126852D01*
X0107804Y0127132D02*
X010985D01*
X0107804Y0124572D02*
X010984D01*
X010985Y0127122D02*
Y0127132D01*
Y0124572D02*
Y0124582D01*
X0110104Y0124826D02*
Y0124836D01*
X004081Y00844D02*
X004381D01*
X004081Y00591D02*
X004381D01*
X004081D02*
Y00844D01*
X006331Y00591D02*
Y00844D01*
X004381Y00591D02*
Y00844D01*
Y00591D02*
X006331D01*
X004381Y00844D02*
X006331D01*
X0087964Y005531D02*
Y005771D01*
X0089064Y005531D02*
Y005771D01*
X0087964Y005738D02*
X0089054D01*
X0087964Y005771D02*
X0089064D01*
X0087964Y005531D02*
X0089064D01*
X0087964Y005564D02*
X0089054D01*
X0089488Y005531D02*
Y005771D01*
X0090588Y005531D02*
Y005771D01*
X0089488Y005738D02*
X0090578D01*
X0089488Y005771D02*
X0090588D01*
X0089488Y005531D02*
X0090588D01*
X0089488Y005564D02*
X0090578D01*
X0086794Y0067344D02*
X0087694D01*
Y0069044D01*
X0087744Y00686445D02*
Y0069294D01*
X0086844Y0069394D02*
X0087644D01*
X0086794Y0069044D02*
X0087694D01*
X0086794Y0067344D02*
Y0069044D01*
X0086744Y0068644D02*
Y0069294D01*
X0086844Y0066994D02*
X0087644D01*
X0086744Y0067094D02*
Y0067744D01*
X0087744Y0067094D02*
Y0067744D01*
X0084034Y006186D02*
Y006246D01*
X0082834Y006186D02*
Y006246D01*
Y006326D02*
Y006386D01*
X0084034Y006326D02*
Y006386D01*
X0083134Y006406D02*
X0083734D01*
X0083034Y006199D02*
Y006373D01*
X0083134Y006166D02*
X0083734D01*
X0083834Y006199D02*
Y006373D01*
X0083034D02*
X0083834D01*
X0083034Y006199D02*
X0083834D01*
X0084916Y0066994D02*
Y0069394D01*
X0086016Y0066994D02*
Y0069394D01*
X0084916Y0069064D02*
X0086006D01*
X0084916Y0069394D02*
X0086016D01*
X0084916Y0066994D02*
X0086016D01*
X0084916Y0067324D02*
X0086006D01*
X0087914Y006834D02*
Y006894D01*
X0089114Y006834D02*
Y006894D01*
Y006694D02*
Y006754D01*
X0087914Y006694D02*
Y006754D01*
X0088214Y006674D02*
X0088814D01*
X0088914Y006707D02*
Y006881D01*
X0088214Y006914D02*
X0088814D01*
X0088114Y006707D02*
Y006881D01*
Y006707D02*
X0088914D01*
X0088114Y006881D02*
X0088914D01*
X0086244Y0070134D02*
X0086844D01*
X0086244Y0071334D02*
X0086844D01*
X0087644D02*
X0088244D01*
X0087644Y0070134D02*
X0088244D01*
X0088444Y0070434D02*
Y0071034D01*
X0086374Y0071134D02*
X0088114D01*
X0086044Y0070434D02*
Y0071034D01*
X0086374Y0070334D02*
X0088114D01*
Y0071134D01*
X0086374Y0070334D02*
Y0071134D01*
X0089946Y0068594D02*
Y0069194D01*
X0091146Y0068594D02*
Y0069194D01*
Y0067194D02*
Y0067794D01*
X0089946Y0067194D02*
Y0067794D01*
X0090246Y0066994D02*
X0090846D01*
X0090946Y0067324D02*
Y0069064D01*
X0090246Y0069394D02*
X0090846D01*
X0090146Y0067324D02*
Y0069064D01*
Y0067324D02*
X0090946D01*
X0090146Y0069064D02*
X0090946D01*
X006749Y006371D02*
X006839D01*
X006749Y006201D02*
Y006371D01*
X006744Y006176D02*
Y00624095D01*
X006754Y006166D02*
X006834D01*
X006749Y006201D02*
X006839D01*
Y006371D01*
X006844Y006176D02*
Y006241D01*
X006754Y006406D02*
X006834D01*
X006844Y006331D02*
Y006396D01*
X006744Y006331D02*
Y006396D01*
X006749Y008149D02*
X006839D01*
X006749Y007979D02*
Y008149D01*
X006744Y007954D02*
Y00801895D01*
X006754Y007944D02*
X006834D01*
X006749Y007979D02*
X006839D01*
Y008149D01*
X006844Y007954D02*
Y008019D01*
X006754Y008184D02*
X006834D01*
X006844Y008109D02*
Y008174D01*
X006744Y008109D02*
Y008174D01*
X0071312Y011675D02*
X0073712D01*
X0071312Y011565D02*
X0073712D01*
X0073382Y011566D02*
Y011675D01*
X0073712Y011565D02*
Y011675D01*
X0071312Y011565D02*
Y011675D01*
X0071642Y011566D02*
Y011675D01*
X0078678Y0134192D02*
X0081078D01*
X0078678Y0135292D02*
X0081078D01*
X0079008Y0134192D02*
Y0135282D01*
X0078678Y0134192D02*
Y0135292D01*
X0081078Y0134192D02*
Y0135292D01*
X0080748Y0134192D02*
Y0135282D01*
X009595Y011675D02*
X009835D01*
X009595Y011565D02*
X009835D01*
X009802Y011566D02*
Y011675D01*
X009835Y011565D02*
Y011675D01*
X009595Y011565D02*
Y011675D01*
X009628Y011566D02*
Y011675D01*
X0111698Y0134192D02*
X0114098D01*
X0111698Y0135292D02*
X0114098D01*
X0112028Y0134192D02*
Y0135282D01*
X0111698Y0134192D02*
Y0135292D01*
X0114098Y0134192D02*
Y0135292D01*
X0113768Y0134192D02*
Y0135282D01*
X0050798Y012763D02*
X005162D01*
X0049588Y011747D02*
Y012763D01*
X004412Y011747D02*
X0050036D01*
Y0117724D01*
X004412Y011747D02*
Y012763D01*
X0050036Y0117724D02*
X0050858D01*
Y011747D02*
Y0117724D01*
Y011747D02*
X005162D01*
Y012763D01*
X004412D02*
X0050096D01*
X0050798D02*
Y0127884D01*
X0050096Y012763D02*
Y0127884D01*
X0050798D01*
X013734Y013186D02*
X013824D01*
X013734D02*
Y013356D01*
X013729Y01331605D02*
Y013381D01*
X013739Y013391D02*
X013819D01*
X013734Y013356D02*
X013824D01*
Y013186D02*
Y013356D01*
X013829Y013316D02*
Y013381D01*
X013739Y013151D02*
X013819D01*
X013829Y013161D02*
Y013226D01*
X013729Y013161D02*
Y013226D01*
X012848Y0111432D02*
Y0112332D01*
X012678Y0111432D02*
X012848D01*
X012653Y0111382D02*
X01271795D01*
X012643Y0111482D02*
Y0112282D01*
X012678Y0111432D02*
Y0112332D01*
X012848D01*
X012653Y0112382D02*
X012718D01*
X012883Y0111482D02*
Y0112282D01*
X012808Y0112382D02*
X012873D01*
X012808Y0111382D02*
X012873D01*
X012643Y01093D02*
X012883D01*
X012643Y01104D02*
X012883D01*
X01285Y01093D02*
Y011039D01*
X012883Y01093D02*
Y01104D01*
X012643Y01093D02*
Y01104D01*
X012676Y01093D02*
Y011039D01*
X013Y0106127D02*
Y0107477D01*
X01278Y0106127D02*
Y0107477D01*
X013D01*
X01278Y0106127D02*
X013D01*
X0128Y0105502D02*
Y0106127D01*
X01285Y0105502D02*
Y0106127D01*
X01289Y0105502D02*
Y0106127D01*
X01299Y0105502D02*
Y0106127D01*
X0128Y0107477D02*
Y0108102D01*
X01285Y0107477D02*
Y0108102D01*
X01293Y0107477D02*
Y0108102D01*
X01298Y0107477D02*
Y0108102D01*
X01294Y0108302D02*
X01297D01*
X01281D02*
X01284D01*
X01281Y0105302D02*
X01284D01*
X01291D02*
X01297D01*
X013305Y010862D02*
X013445D01*
X013605D02*
X013745D01*
Y011362D01*
X013305D02*
X013745D01*
X013305Y010862D02*
Y011362D01*
X011754Y011819D02*
X011994D01*
X011754Y011929D02*
X011994D01*
X011961Y011819D02*
Y011928D01*
X011994Y011819D02*
Y011929D01*
X011754Y011819D02*
Y011929D01*
X011787Y011819D02*
Y011928D01*
X013225Y011671D02*
X013825D01*
Y012331D01*
X013225D02*
X013825D01*
X013225Y011671D02*
Y012331D01*
Y012232D02*
X013825D01*
X013225Y01177D02*
X013825D01*
X013525D02*
Y011935D01*
Y012067D02*
Y012232D01*
Y011935D02*
X01359Y012067D01*
X013096Y012298D02*
X013225D01*
X013096Y012166D02*
X013225D01*
X013825Y012298D02*
X013954D01*
X013825Y012166D02*
X013954D01*
X013063Y012199D02*
Y012265D01*
X013987Y012199D02*
Y012265D01*
X013063Y011749D02*
Y011815D01*
X013096Y011716D02*
X013225D01*
X013096Y011848D02*
X013225D01*
X013987Y011749D02*
Y011815D01*
X013825Y011716D02*
X013954D01*
X013825Y011848D02*
X013954D01*
X012678Y011956D02*
Y012046D01*
X012848D01*
X01280805Y012051D02*
X012873D01*
X012883Y011961D02*
Y012041D01*
X012848Y011956D02*
Y012046D01*
X012678Y011956D02*
X012848D01*
X012808Y011951D02*
X012873D01*
X012643Y011961D02*
Y012041D01*
X012653Y011951D02*
X012718D01*
X012653Y012051D02*
X012718D01*
X012678Y0125402D02*
Y0126302D01*
X012848D01*
X01280805Y0126352D02*
X012873D01*
X012883Y0125452D02*
Y0126252D01*
X012848Y0125402D02*
Y0126302D01*
X012678Y0125402D02*
X012848D01*
X012808Y0125352D02*
X012873D01*
X012643Y0125452D02*
Y0126252D01*
X012653Y0125352D02*
X012718D01*
X012653Y0126352D02*
X012718D01*
X0121788Y0124582D02*
X0122042Y0124836D01*
Y0124826D02*
Y0124836D01*
Y0124826D02*
X0122296Y0124572D01*
X0121788Y0127122D02*
X0122042Y0126868D01*
X0122296Y0127122D01*
Y0127132D02*
X0124328D01*
X0122296Y0124572D02*
X0124328D01*
Y0124582D01*
Y0127122D02*
Y0127132D01*
X0117202Y0124572D02*
X0119238D01*
X0117202Y0127132D02*
X0119248D01*
X0116962Y0124852D02*
Y0126852D01*
X0124582Y0124852D02*
Y0126852D01*
X0119756Y0124572D02*
X0121788D01*
X0119238D02*
X0119248Y0124582D01*
X0119756Y0127132D02*
X0121788D01*
X0119502Y0124826D02*
X0119756Y0124572D01*
X0119502Y0124826D02*
Y0124836D01*
X0119248Y0124582D02*
X0119502Y0124836D01*
X0119248Y0124572D02*
Y0124582D01*
X0119502Y0126868D02*
X0119756Y0127122D01*
X0119248D02*
X0119502Y0126868D01*
X012536Y013652D02*
X012736D01*
X012536Y013398D02*
X012736D01*
X012508Y013422D02*
Y0136266D01*
X012764Y013422D02*
Y0136256D01*
X012508Y0136266D02*
X012509D01*
X012763D02*
X012764D01*
X0127376Y013652D02*
X0127386D01*
X0122512Y013245D02*
Y013805D01*
X0124112D01*
Y013245D02*
Y013805D01*
X0122512Y013245D02*
X0124112D01*
X0121218Y013575D02*
Y01363361D01*
X0119818Y013575D02*
Y01363361D01*
X01201819Y01367D02*
X01208541D01*
X0119818Y01341639D02*
Y013475D01*
X0121218Y01341639D02*
Y013475D01*
X01201819Y01338D02*
X01208541D01*
X0119918Y013635D02*
X0121118D01*
Y013415D02*
Y013635D01*
X0119918Y013415D02*
X0121118D01*
X0119918D02*
Y013635D01*
X011657Y013436D02*
X011837D01*
X011657Y013426D02*
X011837D01*
X011657Y013416D02*
X011837D01*
X011657Y013406D02*
X011837D01*
X011657Y013396D02*
X011837D01*
X011657Y013386D02*
X011837D01*
Y013336D02*
Y013714D01*
X011657D02*
X011837D01*
X011657Y013336D02*
Y013714D01*
Y013336D02*
X011837D01*
X0118085Y013714D02*
Y013765D01*
X0116855Y013714D02*
Y013765D01*
X0118085D01*
X0116855Y013285D02*
X0118085D01*
Y013336D01*
X0116855Y013285D02*
Y013336D01*
X0109534Y013575D02*
Y01363361D01*
X0108134Y013575D02*
Y01363361D01*
X01084979Y01367D02*
X01091701D01*
X0108134Y01341639D02*
Y013475D01*
X0109534Y01341639D02*
Y013475D01*
X01084979Y01338D02*
X01091701D01*
X0108234Y013635D02*
X0109434D01*
Y013415D02*
Y013635D01*
X0108234Y013415D02*
X0109434D01*
X0108234D02*
Y013635D01*
X010514Y013436D02*
X010694D01*
X010514Y013426D02*
X010694D01*
X010514Y013416D02*
X010694D01*
X010514Y013406D02*
X010694D01*
X010514Y013396D02*
X010694D01*
X010514Y013386D02*
X010694D01*
Y013336D02*
Y013714D01*
X010514D02*
X010694D01*
X010514Y013336D02*
Y013714D01*
Y013336D02*
X010694D01*
X0106655Y013714D02*
Y013765D01*
X0105425Y013714D02*
Y013765D01*
X0106655D01*
X0105425Y013285D02*
X0106655D01*
Y013336D01*
X0105425Y013285D02*
Y013336D01*
X010096Y013425D02*
Y013625D01*
X009842Y013425D02*
Y013625D01*
X009866Y013653D02*
X0100706D01*
X009866Y013397D02*
X0100696D01*
X0100706Y013652D02*
Y013653D01*
Y013397D02*
Y013398D01*
X010096Y0134224D02*
Y0134234D01*
X0090286Y013605D02*
X0095886D01*
Y013445D02*
Y013605D01*
X0090286Y013445D02*
X0095886D01*
X0090286D02*
Y013605D01*
X0087944Y013575D02*
Y01363361D01*
X0086544Y013575D02*
Y01363361D01*
X00869079Y01367D02*
X00875801D01*
X0086544Y01341639D02*
Y013475D01*
X0087944Y01341639D02*
Y013475D01*
X00869079Y01338D02*
X00875801D01*
X0086644Y013635D02*
X0087844D01*
Y013415D02*
Y013635D01*
X0086644Y013415D02*
X0087844D01*
X0086644D02*
Y013635D01*
X008355Y013436D02*
X008535D01*
X008355Y013426D02*
X008535D01*
X008355Y013416D02*
X008535D01*
X008355Y013406D02*
X008535D01*
X008355Y013396D02*
X008535D01*
X008355Y013386D02*
X008535D01*
Y013336D02*
Y013714D01*
X008355D02*
X008535D01*
X008355Y013336D02*
Y013714D01*
Y013336D02*
X008535D01*
X0085065Y013714D02*
Y013765D01*
X0083835Y013714D02*
Y013765D01*
X0085065D01*
X0083835Y013285D02*
X0085065D01*
Y013336D01*
X0083835Y013285D02*
Y013336D01*
X0076514Y013575D02*
Y01363361D01*
X0075114Y013575D02*
Y01363361D01*
X00754779Y01367D02*
X00761501D01*
X0075114Y01341639D02*
Y013475D01*
X0076514Y01341639D02*
Y013475D01*
X00754779Y01338D02*
X00761501D01*
X0075214Y013635D02*
X0076414D01*
Y013415D02*
Y013635D01*
X0075214Y013415D02*
X0076414D01*
X0075214D02*
Y013635D01*
X007212Y013436D02*
X007392D01*
X007212Y013426D02*
X007392D01*
X007212Y013416D02*
X007392D01*
X007212Y013406D02*
X007392D01*
X007212Y013396D02*
X007392D01*
X007212Y013386D02*
X007392D01*
Y013336D02*
Y013714D01*
X007212D02*
X007392D01*
X007212Y013336D02*
Y013714D01*
Y013336D02*
X007392D01*
X0073635Y013714D02*
Y013765D01*
X0072405Y013714D02*
Y013765D01*
X0073635D01*
X0072405Y013285D02*
X0073635D01*
Y013336D01*
X0072405Y013285D02*
Y013336D01*
X006821Y013271D02*
X007021D01*
X006821Y013017D02*
X007021D01*
X006793Y013041D02*
Y0132456D01*
X007049Y013041D02*
Y0132446D01*
X006793Y0132456D02*
X006794D01*
X007048D02*
X007049D01*
X0070226Y013271D02*
X0070236D01*
X0057012Y013097D02*
X0062612D01*
Y012937D02*
Y013097D01*
X0057012Y012937D02*
X0062612D01*
X0057012D02*
Y013097D01*
X0054025Y0126855D02*
X0056455D01*
Y012635D02*
Y0126855D01*
X0054025Y012635D02*
Y0126855D01*
X0056455Y0118245D02*
Y011875D01*
X0054025Y0118245D02*
Y011875D01*
Y0118245D02*
X0056455D01*
X005754Y011875D02*
Y012635D01*
X005294Y011875D02*
X005754D01*
X005294D02*
Y012635D01*
X005754D01*
X005294Y012535D02*
X005754D01*
X005294Y012525D02*
X005754D01*
X005294Y012515D02*
X005754D01*
X005294Y012505D02*
X005754D01*
X005294Y012495D02*
X005754D01*
X005294Y012485D02*
X005754D01*
X005294Y012475D02*
X005754D01*
X005294Y012465D02*
X005754D01*
X005294Y012455D02*
X005754D01*
X005294Y012445D02*
X005754D01*
X0047106Y0131645D02*
X0052706D01*
X0047106Y0128695D02*
Y0131645D01*
Y0128695D02*
X0052706D01*
Y0131645D01*
Y0131045D02*
X0053031D01*
X0052706Y0129295D02*
X0053031D01*
X0053381Y0129645D02*
Y0130695D01*
X0046731Y0129295D02*
X0047106D01*
X0046731Y0131045D02*
X0047106D01*
X0046431Y0129595D02*
Y0130745D01*
X0051216Y0128695D02*
Y0131645D01*
X0051316Y0128695D02*
Y0131645D01*
X0051416Y0128695D02*
Y0131645D01*
X0051516Y0128695D02*
Y0131645D01*
X0051616Y0128695D02*
Y0131645D01*
X0051716Y0128695D02*
Y0131645D01*
X0051816Y0128695D02*
Y0131645D01*
X0051916Y0128695D02*
Y0131645D01*
X0052016Y0128695D02*
Y0131645D01*
X0052116Y0128695D02*
Y0131645D01*
X006248Y0124952D02*
Y0126752D01*
X006258Y0124952D02*
Y0126752D01*
X006268Y0124952D02*
Y0126752D01*
X006278Y0124952D02*
Y0126752D01*
X006288Y0124952D02*
Y0126752D01*
X006298Y0124952D02*
Y0126752D01*
X00597D02*
X006348D01*
X00597Y0124952D02*
Y0126752D01*
Y0124952D02*
X006348D01*
Y0126752D01*
X005919Y0126467D02*
X00597D01*
X005919Y0125237D02*
X00597D01*
X005919D02*
Y0126467D01*
X006399Y0125237D02*
Y0126467D01*
X006348D02*
X006399D01*
X006348Y0125237D02*
X006399D01*
X006286Y011901D02*
Y012101D01*
X006032Y011901D02*
Y012101D01*
X006056Y012129D02*
X0062606D01*
X006056Y011873D02*
X0062596D01*
X0062606Y012128D02*
Y012129D01*
Y011873D02*
Y011874D01*
X006286Y0118984D02*
Y0118994D01*
X0071368Y0124952D02*
Y0126752D01*
X0071268Y0124952D02*
Y0126752D01*
X0071168Y0124952D02*
Y0126752D01*
X0071068Y0124952D02*
Y0126752D01*
X0070968Y0124952D02*
Y0126752D01*
X0070868Y0124952D02*
Y0126752D01*
X0070368Y0124952D02*
X0074148D01*
Y0126752D01*
X0070368D02*
X0074148D01*
X0070368Y0124952D02*
Y0126752D01*
X0074148Y0125237D02*
X0074658D01*
X0074148Y0126467D02*
X0074658D01*
Y0125237D02*
Y0126467D01*
X0069858Y0125237D02*
Y0126467D01*
Y0125237D02*
X0070368D01*
X0069858Y0126467D02*
X0070368D01*
X0073012Y0122358D02*
X00735981D01*
X0073012Y0123758D02*
X00735981D01*
X0073962Y01227219D02*
Y01233941D01*
X00714259Y0123758D02*
X0072012D01*
X00714259Y0122358D02*
X0072012D01*
X0071062Y01227219D02*
Y01233941D01*
X0073612Y0122458D02*
Y0123658D01*
X0071412Y0122458D02*
X0073612D01*
X0071412D02*
Y0123658D01*
X0073612D01*
X007511Y0117636D02*
X007601D01*
X007511D02*
Y0119336D01*
X007506Y01189365D02*
Y0119586D01*
X007516Y0119686D02*
X007596D01*
X007511Y0119336D02*
X007601D01*
Y0117636D02*
Y0119336D01*
X007606Y0118936D02*
Y0119586D01*
X007516Y0117286D02*
X007596D01*
X007606Y0117386D02*
Y0118036D01*
X007506Y0117386D02*
Y0118036D01*
X007511Y0114588D02*
X007601D01*
X007511D02*
Y0116288D01*
X007506Y01158885D02*
Y0116538D01*
X007516Y0116638D02*
X007596D01*
X007511Y0116288D02*
X007601D01*
Y0114588D02*
Y0116288D01*
X007606Y0115888D02*
Y0116538D01*
X007516Y0114238D02*
X007596D01*
X007606Y0114338D02*
Y0114988D01*
X007506Y0114338D02*
Y0114988D01*
X0071166Y0116886D02*
X0074366D01*
X0071166Y0120086D02*
X0074366D01*
X0071166Y0116886D02*
Y0120086D01*
X0074366Y0116886D02*
Y0120086D01*
X009626Y0124952D02*
Y0126752D01*
X009616Y0124952D02*
Y0126752D01*
X009606Y0124952D02*
Y0126752D01*
X009596Y0124952D02*
Y0126752D01*
X009586Y0124952D02*
Y0126752D01*
X009576Y0124952D02*
Y0126752D01*
X009526Y0124952D02*
X009904D01*
Y0126752D01*
X009526D02*
X009904D01*
X009526Y0124952D02*
Y0126752D01*
X009904Y0125237D02*
X009955D01*
X009904Y0126467D02*
X009955D01*
Y0125237D02*
Y0126467D01*
X009475Y0125237D02*
Y0126467D01*
Y0125237D02*
X009526D01*
X009475Y0126467D02*
X009526D01*
X009765Y0122358D02*
X00982361D01*
X009765Y0123758D02*
X00982361D01*
X00986Y01227219D02*
Y01233941D01*
X00960639Y0123758D02*
X009665D01*
X00960639Y0122358D02*
X009665D01*
X00957Y01227219D02*
Y01233941D01*
X009825Y0122458D02*
Y0123658D01*
X009605Y0122458D02*
X009825D01*
X009605D02*
Y0123658D01*
X009825D01*
X0095804Y0116886D02*
X0099004D01*
X0095804Y0120086D02*
X0099004D01*
X0095804Y0116886D02*
Y0120086D01*
X0099004Y0116886D02*
Y0120086D01*
X0099748Y0117636D02*
X0100648D01*
X0099748D02*
Y0119336D01*
X0099698Y01189365D02*
Y0119586D01*
X0099798Y0119686D02*
X0100598D01*
X0099748Y0119336D02*
X0100648D01*
Y0117636D02*
Y0119336D01*
X0100698Y0118936D02*
Y0119586D01*
X0099798Y0117286D02*
X0100598D01*
X0100698Y0117386D02*
Y0118036D01*
X0099698Y0117386D02*
Y0118036D01*
X0099748Y0114588D02*
X0100648D01*
X0099748D02*
Y0116288D01*
X0099698Y01158885D02*
Y0116538D01*
X0099798Y0116638D02*
X0100598D01*
X0099748Y0116288D02*
X0100648D01*
Y0114588D02*
Y0116288D01*
X0100698Y0115888D02*
Y0116538D01*
X0099798Y0114238D02*
X0100598D01*
X0100698Y0114338D02*
Y0114988D01*
X0099698Y0114338D02*
Y0114988D01*
X010788Y01054619D02*
Y0106048D01*
X010928Y01054619D02*
Y0106048D01*
X01082439Y0105098D02*
X01089161D01*
X010928Y0107048D02*
Y01076341D01*
X010788Y0107048D02*
Y01076341D01*
X01082439Y0107998D02*
X01089161D01*
X010798Y0105448D02*
X010918D01*
X010798D02*
Y0107648D01*
X010918D01*
Y0105448D02*
Y0107648D01*
X009795Y010197D02*
Y010757D01*
X009635Y010197D02*
X009795D01*
X009635D02*
Y010757D01*
X009795D01*
X010133Y0107438D02*
X010313D01*
X010133Y0107538D02*
X010313D01*
X010133Y0107638D02*
X010313D01*
X010133Y0107738D02*
X010313D01*
X010133Y0107838D02*
X010313D01*
X010133Y0107938D02*
X010313D01*
X010133Y0104658D02*
Y0108438D01*
Y0104658D02*
X010313D01*
Y0108438D01*
X010133D02*
X010313D01*
X0101615Y0104148D02*
Y0104658D01*
X0102845Y0104148D02*
Y0104658D01*
X0101615Y0104148D02*
X0102845D01*
X0101615Y0108948D02*
X0102845D01*
X0101615Y0108438D02*
Y0108948D01*
X0102845Y0108438D02*
Y0108948D01*
X0098736Y01054619D02*
Y0106048D01*
X0100136Y01054619D02*
Y0106048D01*
X00990999Y0105098D02*
X00997721D01*
X0100136Y0107048D02*
Y01076341D01*
X0098736Y0107048D02*
Y01076341D01*
X00990999Y0107998D02*
X00997721D01*
X0098836Y0105448D02*
X0100036D01*
X0098836D02*
Y0107648D01*
X0100036D01*
Y0105448D02*
Y0107648D01*
X010684Y010197D02*
Y010757D01*
X010524Y010197D02*
X010684D01*
X010524D02*
Y010757D01*
X010684D01*
X00901Y01054619D02*
Y0106048D01*
X00915Y01054619D02*
Y0106048D01*
X00904639Y0105098D02*
X00911361D01*
X00915Y0107048D02*
Y01076341D01*
X00901Y0107048D02*
Y01076341D01*
X00904639Y0107998D02*
X00911361D01*
X00902Y0105448D02*
X00914D01*
X00902D02*
Y0107648D01*
X00914D01*
Y0105448D02*
Y0107648D01*
X008906Y010197D02*
Y010757D01*
X008746Y010197D02*
X008906D01*
X008746D02*
Y010757D01*
X008906D01*
X007994Y01054619D02*
Y0106048D01*
X008134Y01054619D02*
Y0106048D01*
X00803039Y0105098D02*
X00809761D01*
X008134Y0107048D02*
Y01076341D01*
X007994Y0107048D02*
Y01076341D01*
X00803039Y0107998D02*
X00809761D01*
X008004Y0105448D02*
X008124D01*
X008004D02*
Y0107648D01*
X008124D01*
Y0105448D02*
Y0107648D01*
X00789Y010197D02*
Y010757D01*
X00773Y010197D02*
X00789D01*
X00773D02*
Y010757D01*
X00789D01*
X007339Y0107438D02*
X007519D01*
X007339Y0107538D02*
X007519D01*
X007339Y0107638D02*
X007519D01*
X007339Y0107738D02*
X007519D01*
X007339Y0107838D02*
X007519D01*
X007339Y0107938D02*
X007519D01*
X007339Y0104658D02*
Y0108438D01*
Y0104658D02*
X007519D01*
Y0108438D01*
X007339D02*
X007519D01*
X0073675Y0104148D02*
Y0104658D01*
X0074905Y0104148D02*
Y0104658D01*
X0073675Y0104148D02*
X0074905D01*
X0073675Y0108948D02*
X0074905D01*
X0073675Y0108438D02*
Y0108948D01*
X0074905Y0108438D02*
Y0108948D01*
X0070796Y01054619D02*
Y0106048D01*
X0072196Y01054619D02*
Y0106048D01*
X00711599Y0105098D02*
X00718321D01*
X0072196Y0107048D02*
Y01076341D01*
X0070796Y0107048D02*
Y01076341D01*
X00711599Y0107998D02*
X00718321D01*
X0070896Y0105448D02*
X0072096D01*
X0070896D02*
Y0107648D01*
X0072096D01*
Y0105448D02*
Y0107648D01*
X007001Y010197D02*
Y010757D01*
X006841Y010197D02*
X007001D01*
X006841D02*
Y010757D01*
X007001D01*
X006216Y01054619D02*
Y0106048D01*
X006356Y01054619D02*
Y0106048D01*
X00625239Y0105098D02*
X00631961D01*
X006356Y0107048D02*
Y01076341D01*
X006216Y0107048D02*
Y01076341D01*
X00625239Y0107998D02*
X00631961D01*
X006226Y0105448D02*
X006346D01*
X006226D02*
Y0107648D01*
X006346D01*
Y0105448D02*
Y0107648D01*
X006112Y010197D02*
Y010757D01*
X005952Y010197D02*
X006112D01*
X005952D02*
Y010757D01*
X006112D01*
X011448Y009884D02*
X011538D01*
X011448D02*
Y010054D01*
X011443Y01001405D02*
Y010079D01*
X011453Y010089D02*
X011533D01*
X011448Y010054D02*
X011538D01*
Y009884D02*
Y010054D01*
X011543Y010014D02*
Y010079D01*
X011453Y009849D02*
X011533D01*
X011543Y009859D02*
Y009924D01*
X011443Y009859D02*
Y009924D01*
X0119814Y009503D02*
X0120714D01*
X0119814D02*
Y009673D01*
X0119764Y00963305D02*
Y009698D01*
X0119864Y009708D02*
X0120664D01*
X0119814Y009673D02*
X0120714D01*
Y009503D02*
Y009673D01*
X0120764Y009633D02*
Y009698D01*
X0119864Y009468D02*
X0120664D01*
X0120764Y009478D02*
Y009543D01*
X0119764Y009478D02*
Y009543D01*
X011829Y009673D02*
X011919D01*
Y009503D02*
Y009673D01*
X011924Y009478D02*
Y00954295D01*
X011834Y009468D02*
X011914D01*
X011829Y009503D02*
X011919D01*
X011829D02*
Y009673D01*
X011824Y009478D02*
Y009543D01*
X011834Y009708D02*
X011914D01*
X011824Y009633D02*
Y009698D01*
X011924Y009633D02*
Y009698D01*
X0117258Y009468D02*
Y009708D01*
X0116158Y009468D02*
Y009708D01*
X0116168Y009675D02*
X0117258D01*
X0116158Y009708D02*
X0117258D01*
X0116158Y009468D02*
X0117258D01*
X0116168Y009501D02*
X0117258D01*
X0119036Y008833D02*
Y009073D01*
X0117936Y008833D02*
Y009073D01*
X0117946Y00904D02*
X0119036D01*
X0117936Y009073D02*
X0119036D01*
X0117936Y008833D02*
X0119036D01*
X0117946Y008866D02*
X0119036D01*
X0118066Y0084762D02*
Y0085662D01*
X0116366Y0084762D02*
X0118066D01*
X0116116Y0084712D02*
X01167655D01*
X0116016Y0084812D02*
Y0085612D01*
X0116366Y0084762D02*
Y0085662D01*
X0118066D01*
X0116116Y0085712D02*
X0116766D01*
X0118416Y0084812D02*
Y0085612D01*
X0117666Y0085712D02*
X0118316D01*
X0117666Y0084712D02*
X0118316D01*
X0114226Y0085124D02*
X0115126D01*
X0114226D02*
Y0086824D01*
X0114176Y00864245D02*
Y0087074D01*
X0114276Y0087174D02*
X0115076D01*
X0114226Y0086824D02*
X0115126D01*
Y0085124D02*
Y0086824D01*
X0115176Y0086424D02*
Y0087074D01*
X0114276Y0084774D02*
X0115076D01*
X0115176Y0084874D02*
Y0085524D01*
X0114176Y0084874D02*
Y0085524D01*
X011194Y0085124D02*
X011284D01*
X011194D02*
Y0086824D01*
X011189Y00864245D02*
Y0087074D01*
X011199Y0087174D02*
X011279D01*
X011194Y0086824D02*
X011284D01*
Y0085124D02*
Y0086824D01*
X011289Y0086424D02*
Y0087074D01*
X011199Y0084774D02*
X011279D01*
X011289Y0084874D02*
Y0085524D01*
X011189Y0084874D02*
Y0085524D01*
X009615Y009842D02*
X009815D01*
X009615Y009588D02*
X009815D01*
X009587Y009612D02*
Y0098166D01*
X009843Y009612D02*
Y0098156D01*
X009587Y0098166D02*
X009588D01*
X009842D02*
X009843D01*
X0098166Y009842D02*
X0098176D01*
X010504D02*
X010704D01*
X010504Y009588D02*
X010704D01*
X010476Y009612D02*
Y0098166D01*
X010732Y009612D02*
Y0098156D01*
X010476Y0098166D02*
X010477D01*
X010731D02*
X010732D01*
X0107056Y009842D02*
X0107066D01*
X008726Y009842D02*
X008926D01*
X008726Y009588D02*
X008926D01*
X008698Y009612D02*
Y0098166D01*
X008954Y009612D02*
Y0098156D01*
X008698Y0098166D02*
X008699D01*
X008953D02*
X008954D01*
X0089276Y009842D02*
X0089286D01*
X00771D02*
X00791D01*
X00771Y009588D02*
X00791D01*
X007682Y009612D02*
Y0098166D01*
X007938Y009612D02*
Y0098156D01*
X007682Y0098166D02*
X007683D01*
X007937D02*
X007938D01*
X0079116Y009842D02*
X0079126D01*
X006821D02*
X007021D01*
X006821Y009588D02*
X007021D01*
X006793Y009612D02*
Y0098166D01*
X007049Y009612D02*
Y0098156D01*
X006793Y0098166D02*
X006794D01*
X007048D02*
X007049D01*
X0070226Y009842D02*
X0070236D01*
X005932D02*
X006132D01*
X005932Y009588D02*
X006132D01*
X005904Y009612D02*
Y0098166D01*
X00616Y009612D02*
Y0098156D01*
X005904Y0098166D02*
X005905D01*
X006159D02*
X00616D01*
X0061336Y009842D02*
X0061346D01*
X006159Y008726D02*
Y008926D01*
X005905Y008726D02*
Y008926D01*
X005929Y008954D02*
X0061336D01*
X005929Y008698D02*
X0061326D01*
X0061336Y008953D02*
Y008954D01*
Y008698D02*
Y008699D01*
X006159Y0087234D02*
Y0087244D01*
X0088896Y008863D02*
Y009043D01*
X0088996Y008863D02*
Y009043D01*
X0089096Y008863D02*
Y009043D01*
X0089196Y008863D02*
Y009043D01*
X0089296Y008863D02*
Y009043D01*
X0089396Y008863D02*
Y009043D01*
X0086116D02*
X0089896D01*
X0086116Y008863D02*
Y009043D01*
Y008863D02*
X0089896D01*
Y009043D01*
X0085606Y0090145D02*
X0086116D01*
X0085606Y0088915D02*
X0086116D01*
X0085606D02*
Y0090145D01*
X0090406Y0088915D02*
Y0090145D01*
X0089896D02*
X0090406D01*
X0089896Y0088915D02*
X0090406D01*
X0086806Y008754D02*
X0089206D01*
X0086806Y008644D02*
X0089206D01*
X0087136Y008645D02*
Y008754D01*
X0086806Y008644D02*
Y008754D01*
X0089206Y008644D02*
Y008754D01*
X0088876Y008645D02*
Y008754D01*
X0086014Y0078702D02*
Y0084102D01*
X0091014Y0078702D02*
Y0084102D01*
X0086014Y0078702D02*
X0091014D01*
X0086014Y0084102D02*
X0091014D01*
X0090719D02*
Y0085502D01*
X0090219Y0085602D02*
X0090619D01*
X0090119Y0084102D02*
Y0085502D01*
X0090219Y0077202D02*
X0090619D01*
X0090119Y0077302D02*
Y0078702D01*
X0090719Y0077302D02*
Y0078702D01*
X0088849Y0077302D02*
Y0078702D01*
X0089449Y0077302D02*
Y0078702D01*
X0088949Y0077202D02*
X0089349D01*
X0088849Y0084102D02*
Y0085502D01*
X0088949Y0085602D02*
X0089349D01*
X0089449Y0084102D02*
Y0085502D01*
X0087579Y0077302D02*
Y0078702D01*
X0088179Y0077302D02*
Y0078702D01*
X0087679Y0077202D02*
X0088079D01*
X0087579Y0084102D02*
Y0085502D01*
X0087679Y0085602D02*
X0088079D01*
X0088179Y0084102D02*
Y0085502D01*
X0086309Y0077302D02*
Y0078702D01*
X0086909Y0077302D02*
Y0078702D01*
X0086409Y0077202D02*
X0086809D01*
X0086309Y0084102D02*
Y0085502D01*
X0086409Y0085602D02*
X0086809D01*
X0086909Y0084102D02*
Y0085502D01*
X0080428Y0057596D02*
Y0059996D01*
X0079328Y0057596D02*
Y0059996D01*
X0079338Y0059666D02*
X0080428D01*
X0079328Y0059996D02*
X0080428D01*
X0079328Y0057596D02*
X0080428D01*
X0079338Y0057926D02*
X0080428D01*
X007683Y005043D02*
Y005243D01*
X007429Y005043D02*
Y005243D01*
X007453Y005271D02*
X0076576D01*
X007453Y005015D02*
X0076566D01*
X0076576Y00527D02*
Y005271D01*
Y005015D02*
Y005016D01*
X007683Y0050404D02*
Y0050414D01*
X0083196Y005457D02*
X0083796D01*
X0083196Y005337D02*
X0083796D01*
X0084596D02*
X0085196D01*
X0084596Y005457D02*
X0085196D01*
X0085396Y005367D02*
Y005427D01*
X0083326Y005357D02*
X0085066D01*
X0082996Y005367D02*
Y005427D01*
X0083326Y005437D02*
X0085066D01*
Y005357D02*
Y005437D01*
X0083326Y005357D02*
Y005437D01*
X0087964Y0049722D02*
Y0052122D01*
X0089064Y0049722D02*
Y0052122D01*
X0087964Y0050052D02*
X0089054D01*
X0087964Y0049722D02*
X0089064D01*
X0087964Y0052122D02*
X0089064D01*
X0087964Y0051792D02*
X0089054D01*
X0087302Y0074456D02*
X0088202D01*
X0087302D02*
Y0076156D01*
X0087252Y00757565D02*
Y0076406D01*
X0087352Y0076506D02*
X0088152D01*
X0087302Y0076156D02*
X0088202D01*
Y0074456D02*
Y0076156D01*
X0088252Y0075756D02*
Y0076406D01*
X0087352Y0074106D02*
X0088152D01*
X0088252Y0074206D02*
Y0074856D01*
X0087252Y0074206D02*
Y0074856D01*
X0087769Y007023D02*
Y007073D01*
X00867192Y00702301D02*
Y00707301D01*
Y00702301D02*
X0087769Y007023D01*
X0088119Y0070255D02*
Y0070755D01*
X00867192Y00707301D02*
X0087769Y007073D01*
X0086369Y0070255D02*
Y0070755D01*
X0086519Y0070055D02*
X0086869D01*
X0086519Y0070905D02*
X0086869D01*
X0087619D02*
X0087969D01*
X0087619Y0070055D02*
X0087969D01*
X008893Y0070496D02*
Y0071096D01*
X009013Y0070496D02*
Y0071096D01*
Y0071896D02*
Y0072496D01*
X008893Y0071896D02*
Y0072496D01*
X008923Y0072696D02*
X008983D01*
X008993Y0070626D02*
Y0072366D01*
X008923Y0070296D02*
X008983D01*
X008913Y0070626D02*
Y0072366D01*
X008993D01*
X008913Y0070626D02*
X008993D01*
X0087302Y0071662D02*
X0088202D01*
X0087302D02*
Y0073362D01*
X0087252Y00729625D02*
Y0073612D01*
X0087352Y0073712D02*
X0088152D01*
X0087302Y0073362D02*
X0088202D01*
Y0071662D02*
Y0073362D01*
X0088252Y0072962D02*
Y0073612D01*
X0087352Y0071312D02*
X0088152D01*
X0088252Y0071412D02*
Y0072062D01*
X0087252Y0071412D02*
Y0072062D01*
X008485Y006988D02*
X008545D01*
X008485Y007108D02*
X008545D01*
X008345D02*
X008405D01*
X008345Y006988D02*
X008405D01*
X008325Y007018D02*
Y007078D01*
X008358Y007088D02*
X008532D01*
X008565Y007018D02*
Y007078D01*
X008358Y007008D02*
X008532D01*
X008358D02*
Y007088D01*
X008532Y007008D02*
Y007088D01*
X007848Y0062156D02*
Y0063056D01*
X007678Y0062156D02*
X007848D01*
X007653Y0062106D02*
X00771795D01*
X007643Y0062206D02*
Y0063006D01*
X007678Y0062156D02*
Y0063056D01*
X007848D01*
X007653Y0063106D02*
X007718D01*
X007883Y0062206D02*
Y0063006D01*
X007808Y0063106D02*
X007873D01*
X007808Y0062106D02*
X007873D01*
X007848Y0060632D02*
Y0061532D01*
X007678Y0060632D02*
X007848D01*
X007653Y0060582D02*
X00771795D01*
X007643Y0060682D02*
Y0061482D01*
X007678Y0060632D02*
Y0061532D01*
X007848D01*
X007653Y0061582D02*
X007718D01*
X007883Y0060682D02*
Y0061482D01*
X007808Y0061582D02*
X007873D01*
X007808Y0060582D02*
X007873D01*
X008166Y0058952D02*
X008311D01*
Y0059252D01*
X008166D02*
X008311D01*
X008166Y0058952D02*
Y0059252D01*
Y0059452D02*
X008311D01*
Y0059752D01*
X008166D02*
X008311D01*
X008166Y0059452D02*
Y0059752D01*
Y0059952D02*
X008311D01*
Y0060252D01*
X008166D02*
X008311D01*
X008166Y0059952D02*
Y0060252D01*
Y0060452D02*
X008311D01*
Y0060752D01*
X008166D02*
X008311D01*
X008166Y0060452D02*
Y0060752D01*
Y0060952D02*
X008311D01*
Y0061252D01*
X008166D02*
X008311D01*
X008166Y0060952D02*
Y0061252D01*
Y0061452D02*
X008311D01*
Y0061752D01*
X008166D02*
X008311D01*
X008166Y0061452D02*
Y0061752D01*
X009136Y0067502D02*
Y0068952D01*
Y0067502D02*
X009166D01*
Y0068952D01*
X009136D02*
X009166D01*
X009086Y0067502D02*
Y0068952D01*
Y0067502D02*
X009116D01*
Y0068952D01*
X009086D02*
X009116D01*
X009036Y0067502D02*
Y0068952D01*
Y0067502D02*
X009066D01*
Y0068952D01*
X009036D02*
X009066D01*
X008986Y0067502D02*
Y0068952D01*
Y0067502D02*
X009016D01*
Y0068952D01*
X008986D02*
X009016D01*
X008936Y0067502D02*
Y0068952D01*
Y0067502D02*
X008966D01*
Y0068952D01*
X008936D02*
X008966D01*
X008886Y0067502D02*
Y0068952D01*
Y0067502D02*
X008916D01*
Y0068952D01*
X008886D02*
X008916D01*
X008836Y0067502D02*
Y0068952D01*
Y0067502D02*
X008866D01*
Y0068952D01*
X008836D02*
X008866D01*
X008786Y0067502D02*
Y0068952D01*
Y0067502D02*
X008816D01*
Y0068952D01*
X008786D02*
X008816D01*
X008736Y0067502D02*
Y0068952D01*
Y0067502D02*
X008766D01*
Y0068952D01*
X008736D02*
X008766D01*
X008686Y0067502D02*
Y0068952D01*
Y0067502D02*
X008716D01*
Y0068952D01*
X008686D02*
X008716D01*
X008636Y0067502D02*
Y0068952D01*
Y0067502D02*
X008666D01*
Y0068952D01*
X008636D02*
X008666D01*
X008586Y0067502D02*
Y0068952D01*
Y0067502D02*
X008616D01*
Y0068952D01*
X008586D02*
X008616D01*
X008536Y0067502D02*
Y0068952D01*
Y0067502D02*
X008566D01*
Y0068952D01*
X008536D02*
X008566D01*
X008486Y0067502D02*
Y0068952D01*
Y0067502D02*
X008516D01*
Y0068952D01*
X008486D02*
X008516D01*
X008436Y0067502D02*
Y0068952D01*
Y0067502D02*
X008466D01*
Y0068952D01*
X008436D02*
X008466D01*
X008166Y0061952D02*
Y0062252D01*
X008311D01*
Y0061952D02*
Y0062252D01*
X008166Y0061952D02*
X008311D01*
X008166Y0062452D02*
Y0062752D01*
X008311D01*
Y0062452D02*
Y0062752D01*
X008166Y0062452D02*
X008311D01*
X008166Y0062952D02*
Y0063252D01*
X008311D01*
Y0062952D02*
Y0063252D01*
X008166Y0062952D02*
X008311D01*
X008166Y0063452D02*
Y0063752D01*
X008311D01*
Y0063452D02*
Y0063752D01*
X008166Y0063452D02*
X008311D01*
X008166Y0063952D02*
Y0064252D01*
X008311D01*
Y0063952D02*
Y0064252D01*
X008166Y0063952D02*
X008311D01*
X008166Y0064452D02*
Y0064752D01*
X008311D01*
Y0064452D02*
Y0064752D01*
X008166Y0064452D02*
X008311D01*
X008166Y0064952D02*
Y0065252D01*
X008311D01*
Y0064952D02*
Y0065252D01*
X008166Y0064952D02*
X008311D01*
X008166Y0065452D02*
Y0065752D01*
X008311D01*
Y0065452D02*
Y0065752D01*
X008166Y0065452D02*
X008311D01*
X008166Y0065952D02*
Y0066252D01*
X008311D01*
Y0065952D02*
Y0066252D01*
X008166Y0065952D02*
X008311D01*
X008166Y0058452D02*
Y0058752D01*
X008311D01*
Y0058452D02*
Y0058752D01*
X008166Y0058452D02*
X008311D01*
X009341D02*
X009486D01*
Y0058752D01*
X009341D02*
X009486D01*
X009341Y0058452D02*
Y0058752D01*
Y0058952D02*
X009486D01*
Y0059252D01*
X009341D02*
X009486D01*
X009341Y0058952D02*
Y0059252D01*
Y0059452D02*
X009486D01*
Y0059752D01*
X009341D02*
X009486D01*
X009341Y0059452D02*
Y0059752D01*
Y0059952D02*
X009486D01*
Y0060252D01*
X009341D02*
X009486D01*
X009341Y0059952D02*
Y0060252D01*
Y0060452D02*
X009486D01*
Y0060752D01*
X009341D02*
X009486D01*
X009341Y0060452D02*
Y0060752D01*
Y0060952D02*
X009486D01*
Y0061252D01*
X009341D02*
X009486D01*
X009341Y0060952D02*
Y0061252D01*
Y0061452D02*
X009486D01*
Y0061752D01*
X009341D02*
X009486D01*
X009341Y0061452D02*
Y0061752D01*
Y0061952D02*
X009486D01*
Y0062252D01*
X009341D02*
X009486D01*
X009341Y0061952D02*
Y0062252D01*
Y0062452D02*
X009486D01*
Y0062752D01*
X009341D02*
X009486D01*
X009341Y0062452D02*
Y0062752D01*
Y0062952D02*
X009486D01*
Y0063252D01*
X009341D02*
X009486D01*
X009341Y0062952D02*
Y0063252D01*
Y0063452D02*
X009486D01*
Y0063752D01*
X009341D02*
X009486D01*
X009341Y0063452D02*
Y0063752D01*
Y0063952D02*
X009486D01*
Y0064252D01*
X009341D02*
X009486D01*
X009341Y0063952D02*
Y0064252D01*
Y0064452D02*
X009486D01*
Y0064752D01*
X009341D02*
X009486D01*
X009341Y0064452D02*
Y0064752D01*
Y0064952D02*
X009486D01*
Y0065252D01*
X009341D02*
X009486D01*
X009341Y0064952D02*
Y0065252D01*
Y0065452D02*
X009486D01*
Y0065752D01*
X009341D02*
X009486D01*
X009341Y0065452D02*
Y0065752D01*
Y0065952D02*
X009486D01*
Y0066252D01*
X009341D02*
X009486D01*
X009341Y0065952D02*
Y0066252D01*
X009186Y0067502D02*
Y0068952D01*
Y0067502D02*
X009216D01*
Y0068952D01*
X009186D02*
X009216D01*
X009186Y0057202D02*
X009216D01*
Y0055752D02*
Y0057202D01*
X009186Y0055752D02*
X009216D01*
X009186D02*
Y0057202D01*
X009136D02*
X009166D01*
Y0055752D02*
Y0057202D01*
X009136Y0055752D02*
X009166D01*
X009136D02*
Y0057202D01*
X009086D02*
X009116D01*
Y0055752D02*
Y0057202D01*
X009086Y0055752D02*
X009116D01*
X009086D02*
Y0057202D01*
X009036D02*
X009066D01*
Y0055752D02*
Y0057202D01*
X009036Y0055752D02*
X009066D01*
X009036D02*
Y0057202D01*
X008986D02*
X009016D01*
Y0055752D02*
Y0057202D01*
X008986Y0055752D02*
X009016D01*
X008986D02*
Y0057202D01*
X008936D02*
X008966D01*
Y0055752D02*
Y0057202D01*
X008936Y0055752D02*
X008966D01*
X008936D02*
Y0057202D01*
X008886D02*
X008916D01*
Y0055752D02*
Y0057202D01*
X008886Y0055752D02*
X008916D01*
X008886D02*
Y0057202D01*
X008836D02*
X008866D01*
Y0055752D02*
Y0057202D01*
X008836Y0055752D02*
X008866D01*
X008836D02*
Y0057202D01*
X008786D02*
X008816D01*
Y0055752D02*
Y0057202D01*
X008786Y0055752D02*
X008816D01*
X008786D02*
Y0057202D01*
X008736D02*
X008766D01*
Y0055752D02*
Y0057202D01*
X008736Y0055752D02*
X008766D01*
X008736D02*
Y0057202D01*
X008686D02*
X008716D01*
Y0055752D02*
Y0057202D01*
X008686Y0055752D02*
X008716D01*
X008686D02*
Y0057202D01*
X008636D02*
X008666D01*
Y0055752D02*
Y0057202D01*
X008636Y0055752D02*
X008666D01*
X008636D02*
Y0057202D01*
X008586D02*
X008616D01*
Y0055752D02*
Y0057202D01*
X008586Y0055752D02*
X008616D01*
X008586D02*
Y0057202D01*
X008536D02*
X008566D01*
Y0055752D02*
Y0057202D01*
X008536Y0055752D02*
X008566D01*
X008536D02*
Y0057202D01*
X008486D02*
X008516D01*
Y0055752D02*
Y0057202D01*
X008486Y0055752D02*
X008516D01*
X008486D02*
Y0057202D01*
X008436D02*
X008466D01*
Y0055752D02*
Y0057202D01*
X008436Y0055752D02*
X008466D01*
X008436D02*
Y0057202D01*
X009276Y0057352D02*
X009326Y0057852D01*
X008326D02*
X008376Y0057352D01*
X009276D01*
X008326Y0057852D02*
Y0066852D01*
X008376Y0067352D01*
X009326Y0057852D02*
Y0066852D01*
X009276Y0067352D02*
X009326Y0066852D01*
X008376Y0067352D02*
X009276D01*
X00774259Y00723161D02*
Y00732161D01*
X00757259Y00723161D02*
X00774259D01*
X00754759Y00722661D02*
X00761254D01*
X00753759Y00723661D02*
Y00731661D01*
X00757259Y00723161D02*
Y00732161D01*
X00774259D01*
X00754759Y00732661D02*
X00761259D01*
X00777759Y00723661D02*
Y00731661D01*
X00770259Y00732661D02*
X00776759D01*
X00770259Y00722661D02*
X00776759D01*
X00774259Y00702841D02*
Y00711841D01*
X00757259Y00702841D02*
X00774259D01*
X00754759Y00702341D02*
X00761254D01*
X00753759Y00703341D02*
Y00711341D01*
X00757259Y00702841D02*
Y00711841D01*
X00774259D01*
X00754759Y00712341D02*
X00761259D01*
X00777759Y00703341D02*
Y00711341D01*
X00770259Y00712341D02*
X00776759D01*
X00770259Y00702341D02*
X00776759D01*
X00753759Y00686601D02*
X00777759D01*
X00753759Y00697601D02*
X00777759D01*
X00774459Y00686601D02*
Y00697501D01*
X00777759Y00686601D02*
Y00697601D01*
X00753759Y00686601D02*
Y00697601D01*
X00757059Y00686601D02*
Y00697501D01*
X00753759Y00737401D02*
X00777759D01*
X00753759Y00748401D02*
X00777759D01*
X00774459Y00737401D02*
Y00748301D01*
X00777759Y00737401D02*
Y00748401D01*
X00753759Y00737401D02*
Y00748401D01*
X00757059Y00737401D02*
Y00748301D01*
X00737399Y00705501D02*
Y00729501D01*
X00748399Y00705501D02*
Y00729501D01*
X00737399Y00708801D02*
X00748299D01*
X00737399Y00705501D02*
X00748399D01*
X00737399Y00729501D02*
X00748399D01*
X00737399Y00726201D02*
X00748299D01*
X00731079Y00702841D02*
Y00711841D01*
X00714079Y00702841D02*
X00731079D01*
X00711579Y00702341D02*
X00718074D01*
X00710579Y00703341D02*
Y00711341D01*
X00714079Y00702841D02*
Y00711841D01*
X00731079D01*
X00711579Y00712341D02*
X00718079D01*
X00734579Y00703341D02*
Y00711341D01*
X00727079Y00712341D02*
X00733579D01*
X00727079Y00702341D02*
X00733579D01*
X00731079Y00723161D02*
Y00732161D01*
X00714079Y00723161D02*
X00731079D01*
X00711579Y00722661D02*
X00718074D01*
X00710579Y00723661D02*
Y00731661D01*
X00714079Y00723161D02*
Y00732161D01*
X00731079D01*
X00711579Y00732661D02*
X00718079D01*
X00734579Y00723661D02*
Y00731661D01*
X00727079Y00732661D02*
X00733579D01*
X00727079Y00722661D02*
X00733579D01*
X0073362Y0075872D02*
Y0076772D01*
X0071662Y0075872D02*
X0073362D01*
X0071412Y0075822D02*
X00720615D01*
X0071312Y0075922D02*
Y0076722D01*
X0071662Y0075872D02*
Y0076772D01*
X0073362D01*
X0071412Y0076822D02*
X0072062D01*
X0073712Y0075922D02*
Y0076722D01*
X0072962Y0076822D02*
X0073612D01*
X0072962Y0075822D02*
X0073612D01*
X006724Y00706639D02*
Y007125D01*
X006864Y00706639D02*
Y007125D01*
X00676039Y00703D02*
X00682761D01*
X006864Y007225D02*
Y00728361D01*
X006724Y007225D02*
Y00728361D01*
X00676039Y00732D02*
X00682761D01*
X006734Y007065D02*
X006854D01*
X006734D02*
Y007285D01*
X006854D01*
Y007065D02*
Y007285D01*
X011139Y008318D02*
X011339D01*
X011139Y008064D02*
X011339D01*
X011111Y008088D02*
Y0082926D01*
X011367Y008088D02*
Y0082916D01*
X011111Y0082926D02*
X011112D01*
X011366D02*
X011367D01*
X0113406Y008318D02*
X0113416D01*
X013171Y006413D02*
X013371D01*
X013171Y006159D02*
X013371D01*
X013143Y006183D02*
Y0063876D01*
X013399Y006183D02*
Y0063866D01*
X013143Y0063876D02*
X013144D01*
X013398D02*
X013399D01*
X0133726Y006413D02*
X0133736D01*
X013059Y004463D02*
Y004553D01*
X013229D01*
X01318905Y004558D02*
X013254D01*
X013264Y004468D02*
Y004548D01*
X013229Y004463D02*
Y004553D01*
X013059Y004463D02*
X013229D01*
X013189Y004458D02*
X013254D01*
X013024Y004468D02*
Y004548D01*
X013034Y004458D02*
X013099D01*
X013034Y004558D02*
X013099D01*
X013229Y0046408D02*
Y0047308D01*
X013059Y0046408D02*
X013229D01*
X013034Y0046358D02*
X01309895D01*
X013024Y0046458D02*
Y0047258D01*
X013059Y0046408D02*
Y0047308D01*
X013229D01*
X013034Y0047358D02*
X013099D01*
X013264Y0046458D02*
Y0047258D01*
X013189Y0047358D02*
X013254D01*
X013189Y0046358D02*
X013254D01*
X013229Y004844D02*
Y004934D01*
X013059Y004844D02*
X013229D01*
X013034Y004839D02*
X01309895D01*
X013024Y004849D02*
Y004929D01*
X013059Y004844D02*
Y004934D01*
X013229D01*
X013034Y004939D02*
X013099D01*
X013264Y004849D02*
Y004929D01*
X013189Y004939D02*
X013254D01*
X013189Y004839D02*
X013254D01*
X013425Y005397D02*
X013625D01*
X013425Y005143D02*
X013625D01*
X013397Y005167D02*
Y0053716D01*
X013653Y005167D02*
Y0053706D01*
X013397Y0053716D02*
X013398D01*
X013652D02*
X013653D01*
X0136266Y005397D02*
X0136276D01*
X0095788Y0065416D02*
Y0066016D01*
X0096988Y0065416D02*
Y0066016D01*
Y0066816D02*
Y0067416D01*
X0095788Y0066816D02*
Y0067416D01*
X0096088Y0067616D02*
X0096688D01*
X0096788Y0065546D02*
Y0067286D01*
X0096088Y0065216D02*
X0096688D01*
X0095988Y0065546D02*
Y0067286D01*
X0096788D01*
X0095988Y0065546D02*
X0096788D01*
X010631Y004508D02*
X010831D01*
X010631Y004254D02*
X010831D01*
X010603Y004278D02*
Y0044826D01*
X010859Y004278D02*
Y0044816D01*
X010603Y0044826D02*
X010604D01*
X010858D02*
X010859D01*
X0108326Y004508D02*
X0108336D01*
X012594Y0054028D02*
Y0054928D01*
X012424Y0054028D02*
X012594D01*
X012399Y0053978D02*
X01246395D01*
X012389Y0054078D02*
Y0054878D01*
X012424Y0054028D02*
Y0054928D01*
X012594D01*
X012399Y0054978D02*
X012464D01*
X012629Y0054078D02*
Y0054878D01*
X012554Y0054978D02*
X012619D01*
X012554Y0053978D02*
X012619D01*
X011012Y0046604D02*
X011212D01*
X011012Y0044064D02*
X011212D01*
X010984Y0044304D02*
Y004635D01*
X01124Y0044304D02*
Y004634D01*
X010984Y004635D02*
X010985D01*
X011239D02*
X01124D01*
X0112136Y0046604D02*
X0112146D01*
X010604Y0055002D02*
Y0057002D01*
X010858Y0055002D02*
Y0057002D01*
X0106294Y0054722D02*
X010834D01*
X0106304Y0057282D02*
X010834D01*
X0106294Y0054722D02*
Y0054732D01*
Y0057272D02*
Y0057282D01*
X010604Y0057018D02*
Y0057028D01*
Y0048906D02*
Y0050906D01*
X010858Y0048906D02*
Y0050906D01*
X0106294Y0048626D02*
X010834D01*
X0106304Y0051186D02*
X010834D01*
X0106294Y0048626D02*
Y0048636D01*
Y0051176D02*
Y0051186D01*
X010604Y0050922D02*
Y0050932D01*
X010631Y0066416D02*
X010831D01*
X010631Y0063876D02*
X010831D01*
X010603Y0064116D02*
Y0066162D01*
X010859Y0064116D02*
Y0066152D01*
X010603Y0066162D02*
X010604D01*
X010858D02*
X010859D01*
X0108326Y0066416D02*
X0108336D01*
X010858Y007329D02*
Y007529D01*
X010604Y007329D02*
Y007529D01*
X010628Y007557D02*
X0108326D01*
X010628Y007301D02*
X0108316D01*
X0108326Y007556D02*
Y007557D01*
Y007301D02*
Y007302D01*
X010858Y0073264D02*
Y0073274D01*
X010631Y0072512D02*
X010831D01*
X010631Y0069972D02*
X010831D01*
X010603Y0070212D02*
Y0072258D01*
X010859Y0070212D02*
Y0072248D01*
X010603Y0072258D02*
X010604D01*
X010858D02*
X010859D01*
X0108326Y0072512D02*
X0108336D01*
X012594Y0058092D02*
Y0058992D01*
X012424Y0058092D02*
X012594D01*
X012399Y0058042D02*
X01246395D01*
X012389Y0058142D02*
Y0058942D01*
X012424Y0058092D02*
Y0058992D01*
X012594D01*
X012399Y0059042D02*
X012464D01*
X012629Y0058142D02*
Y0058942D01*
X012554Y0059042D02*
X012619D01*
X012554Y0058042D02*
X012619D01*
X012594Y005606D02*
Y005696D01*
X012424Y005606D02*
X012594D01*
X012399Y005601D02*
X01246395D01*
X012389Y005611D02*
Y005691D01*
X012424Y005606D02*
Y005696D01*
X012594D01*
X012399Y005701D02*
X012464D01*
X012629Y005611D02*
Y005691D01*
X012554Y005701D02*
X012619D01*
X012554Y005601D02*
X012619D01*
X011789Y0046408D02*
Y0047308D01*
X011959D01*
X01191905Y0047358D02*
X011984D01*
X011994Y0046458D02*
Y0047258D01*
X011959Y0046408D02*
Y0047308D01*
X011789Y0046408D02*
X011959D01*
X011919Y0046358D02*
X011984D01*
X011754Y0046458D02*
Y0047258D01*
X011764Y0046358D02*
X011829D01*
X011764Y0047358D02*
X011829D01*
X010631Y0063368D02*
X010831D01*
X010631Y0060828D02*
X010831D01*
X010603Y0061068D02*
Y0063114D01*
X010859Y0061068D02*
Y0063104D01*
X010603Y0063114D02*
X010604D01*
X010858D02*
X010859D01*
X0108326Y0063368D02*
X0108336D01*
X010604Y0045858D02*
Y0047858D01*
X010858Y0045858D02*
Y0047858D01*
X0106294Y0045578D02*
X010834D01*
X0106304Y0048138D02*
X010834D01*
X0106294Y0045578D02*
Y0045588D01*
Y0048128D02*
Y0048138D01*
X010604Y0047874D02*
Y0047884D01*
X010631Y0054224D02*
X010831D01*
X010631Y0051684D02*
X010831D01*
X010603Y0051924D02*
Y005397D01*
X010859Y0051924D02*
Y005396D01*
X010603Y005397D02*
X010604D01*
X010858D02*
X010859D01*
X0108326Y0054224D02*
X0108336D01*
X010631Y0069464D02*
X010831D01*
X010631Y0066924D02*
X010831D01*
X010603Y0067164D02*
Y006921D01*
X010859Y0067164D02*
Y00692D01*
X010603Y006921D02*
X010604D01*
X010858D02*
X010859D01*
X0108326Y0069464D02*
X0108336D01*
X010604Y005805D02*
Y006005D01*
X010858Y005805D02*
Y006005D01*
X0106294Y005777D02*
X010834D01*
X0106304Y006033D02*
X010834D01*
X0106294Y005777D02*
Y005778D01*
Y006032D02*
Y006033D01*
X010604Y0060066D02*
Y0060076D01*
X012594Y0064188D02*
Y0065088D01*
X012424Y0064188D02*
X012594D01*
X012399Y0064138D02*
X01246395D01*
X012389Y0064238D02*
Y0065038D01*
X012424Y0064188D02*
Y0065088D01*
X012594D01*
X012399Y0065138D02*
X012464D01*
X012629Y0064238D02*
Y0065038D01*
X012554Y0065138D02*
X012619D01*
X012554Y0064138D02*
X012619D01*
X012594Y006622D02*
Y006712D01*
X012424Y006622D02*
X012594D01*
X012399Y006617D02*
X01246395D01*
X012389Y006627D02*
Y006707D01*
X012424Y006622D02*
Y006712D01*
X012594D01*
X012399Y006717D02*
X012464D01*
X012629Y006627D02*
Y006707D01*
X012554Y006717D02*
X012619D01*
X012554Y006617D02*
X012619D01*
X012594Y007003D02*
Y007093D01*
X012424Y007003D02*
X012594D01*
X012399Y006998D02*
X01246395D01*
X012389Y007008D02*
Y007088D01*
X012424Y007003D02*
Y007093D01*
X012594D01*
X012399Y007098D02*
X012464D01*
X012629Y007008D02*
Y007088D01*
X012554Y007098D02*
X012619D01*
X012554Y006998D02*
X012619D01*
X012594Y0060124D02*
Y0061024D01*
X012424Y0060124D02*
X012594D01*
X012399Y0060074D02*
X01246395D01*
X012389Y0060174D02*
Y0060974D01*
X012424Y0060124D02*
Y0061024D01*
X012594D01*
X012399Y0061074D02*
X012464D01*
X012629Y0060174D02*
Y0060974D01*
X012554Y0061074D02*
X012619D01*
X012554Y0060074D02*
X012619D01*
X010985Y0056526D02*
Y0058526D01*
X011239Y0056526D02*
Y0058526D01*
X0110104Y0056246D02*
X011215D01*
X0110114Y0058806D02*
X011215D01*
X0110104Y0056246D02*
Y0056256D01*
Y0058796D02*
Y0058806D01*
X010985Y0058542D02*
Y0058552D01*
X011012Y0049652D02*
X011212D01*
X011012Y0047112D02*
X011212D01*
X010984Y0047352D02*
Y0049398D01*
X01124Y0047352D02*
Y0049388D01*
X010984Y0049398D02*
X010985D01*
X011239D02*
X01124D01*
X0112136Y0049652D02*
X0112146D01*
X011239Y0068718D02*
Y0070718D01*
X010985Y0068718D02*
Y0070718D01*
X011009Y0070998D02*
X0112136D01*
X011009Y0068438D02*
X0112126D01*
X0112136Y0070988D02*
Y0070998D01*
Y0068438D02*
Y0068448D01*
X011239Y0068692D02*
Y0068702D01*
X0114734Y007852D02*
X0115634D01*
X0114734D02*
Y008022D01*
X0114684Y00798205D02*
Y008047D01*
X0114784Y008057D02*
X0115584D01*
X0114734Y008022D02*
X0115634D01*
Y007852D02*
Y008022D01*
X0115684Y007982D02*
Y008047D01*
X0114784Y007817D02*
X0115584D01*
X0115684Y007827D02*
Y007892D01*
X0114684Y007827D02*
Y007892D01*
X011829Y007852D02*
X011919D01*
X011829D02*
Y008022D01*
X011824Y00798205D02*
Y008047D01*
X011834Y008057D02*
X011914D01*
X011829Y008022D02*
X011919D01*
Y007852D02*
Y008022D01*
X011924Y007982D02*
Y008047D01*
X011834Y007817D02*
X011914D01*
X011924Y007827D02*
Y007892D01*
X011824Y007827D02*
Y007892D01*
X011239Y0059574D02*
Y0061574D01*
X010985Y0059574D02*
Y0061574D01*
X011009Y0061854D02*
X0112136D01*
X011009Y0059294D02*
X0112126D01*
X0112136Y0061844D02*
Y0061854D01*
Y0059294D02*
Y0059304D01*
X011239Y0059548D02*
Y0059558D01*
Y006567D02*
Y006767D01*
X010985Y006567D02*
Y006767D01*
X011009Y006795D02*
X0112136D01*
X011009Y006539D02*
X0112126D01*
X0112136Y006794D02*
Y006795D01*
Y006539D02*
Y00654D01*
X011239Y0065644D02*
Y0065654D01*
X011012Y00527D02*
X011212D01*
X011012Y005016D02*
X011212D01*
X010984Y00504D02*
Y0052446D01*
X01124Y00504D02*
Y0052436D01*
X010984Y0052446D02*
X010985D01*
X011239D02*
X01124D01*
X0112136Y00527D02*
X0112146D01*
X0116512Y008022D02*
X0117412D01*
Y007852D02*
Y008022D01*
X0117462Y007827D02*
Y00789195D01*
X0116562Y007817D02*
X0117362D01*
X0116512Y007852D02*
X0117412D01*
X0116512D02*
Y008022D01*
X0116462Y007827D02*
Y007892D01*
X0116562Y008057D02*
X0117362D01*
X0116462Y007982D02*
Y008047D01*
X0117462Y007982D02*
Y008047D01*
X011239Y0062622D02*
Y0064622D01*
X010985Y0062622D02*
Y0064622D01*
X011009Y0064902D02*
X0112136D01*
X011009Y0062342D02*
X0112126D01*
X0112136Y0064892D02*
Y0064902D01*
Y0062342D02*
Y0062352D01*
X011239Y0062596D02*
Y0062606D01*
Y0071766D02*
Y0073766D01*
X010985Y0071766D02*
Y0073766D01*
X011009Y0074046D02*
X0112136D01*
X011009Y0071486D02*
X0112126D01*
X0112136Y0074036D02*
Y0074046D01*
Y0071486D02*
Y0071496D01*
X011239Y007174D02*
Y007175D01*
X011012Y0055748D02*
X011212D01*
X011012Y0053208D02*
X011212D01*
X010984Y0053448D02*
Y0055494D01*
X01124Y0053448D02*
Y0055484D01*
X010984Y0055494D02*
X010985D01*
X011239D02*
X01124D01*
X0112136Y0055748D02*
X0112146D01*
X012594Y0062156D02*
Y0063056D01*
X012424Y0062156D02*
X012594D01*
X012399Y0062106D02*
X01246395D01*
X012389Y0062206D02*
Y0063006D01*
X012424Y0062156D02*
Y0063056D01*
X012594D01*
X012399Y0063106D02*
X012464D01*
X012629Y0062206D02*
Y0063006D01*
X012554Y0063106D02*
X012619D01*
X012554Y0062106D02*
X012619D01*
X006794Y006667D02*
Y006794D01*
Y007556D02*
Y007683D01*
X00654Y006794D02*
Y007556D01*
X007048Y006794D02*
Y007556D01*
X00654Y006794D02*
X007048D01*
X00654Y007556D02*
X007048D01*
X013888Y011737D02*
X01392799D01*
X01390799D01*
Y01185696D01*
X013888Y01183697D01*
X01317597Y011737D02*
X013096D01*
X01317597Y01181697D01*
Y01183697D01*
X01315598Y01185696D01*
X01311599D01*
X013096Y01183697D01*
X013855Y01229897D02*
X01387499Y01231896D01*
X01391498D01*
X01393497Y01229897D01*
Y01227897D01*
X01391498Y01225898D01*
X01389499D01*
X01391498D01*
X01393497Y01223899D01*
Y01221899D01*
X01391498Y012199D01*
X01387499D01*
X013855Y01221899D01*
X01315598Y012199D02*
Y01231896D01*
X013096Y01225898D01*
X01317597D01*
X008546Y0067152D02*
X00850601D01*
X008526D01*
Y00659524D01*
X008546Y00661523D01*
X00836606Y00659524D02*
X00840604Y00661523D01*
X00844603Y00665522D01*
Y0066952D01*
X00842604Y0067152D01*
X00838605D01*
X00836606Y0066952D01*
Y00667521D01*
X00838605Y00665522D01*
X00844603D01*
X008346Y0066352D02*
Y00659521D01*
Y0066152D01*
X00846596D01*
X00844597Y0066352D01*
X00846596Y00653523D02*
Y00645526D01*
X00844597D01*
X00836599Y00653523D01*
X008346D01*
X00844597Y0059852D02*
X00846596Y00596521D01*
Y00592522D01*
X00844597Y00590522D01*
X00842597D01*
X00840598Y00592522D01*
Y00594521D01*
Y00592522D01*
X00838599Y00590522D01*
X00836599D01*
X008346Y00592522D01*
Y00596521D01*
X00836599Y0059852D01*
X008346Y00578526D02*
Y00586524D01*
X00842597Y00578526D01*
X00844597D01*
X00846596Y00580526D01*
Y00584524D01*
X00844597Y00586524D01*
X008556Y00573523D02*
X008536Y00571524D01*
X00849602D01*
X00847602Y00573523D01*
Y00575522D01*
X00849602Y00577522D01*
X00851601D01*
X00849602D01*
X00847602Y00579521D01*
Y00581521D01*
X00849602Y0058352D01*
X008536D01*
X008556Y00581521D01*
X00843604Y00573523D02*
X00841604Y00571524D01*
X00837606D01*
X00835606Y00573523D01*
Y00575522D01*
X00837606Y00577522D01*
X00839605D01*
X00837606D01*
X00835606Y00579521D01*
Y00581521D01*
X00837606Y0058352D01*
X00841604D01*
X00843604Y00581521D01*
X00916602Y0058352D02*
Y00571524D01*
X009226Y00577522D01*
X00914602D01*
X00910604Y00573523D02*
X00908604Y00571524D01*
X00904606D01*
X00902606Y00573523D01*
Y00575522D01*
X00904606Y00577522D01*
X00902606Y00579521D01*
Y00581521D01*
X00904606Y0058352D01*
X00908604D01*
X00910604Y00581521D01*
Y00579521D01*
X00908604Y00577522D01*
X00910604Y00575522D01*
Y00573523D01*
X00908604Y00577522D02*
X00904606D01*
X009226Y00592522D02*
X00934596D01*
X00928598Y0059852D01*
Y00590522D01*
X00924599Y00586524D02*
X009226Y00584524D01*
Y00580526D01*
X00924599Y00578526D01*
X00932597D01*
X00934596Y00580526D01*
Y00584524D01*
X00932597Y00586524D01*
X00930597D01*
X00928598Y00584524D01*
Y00578526D01*
X00933596Y00647523D02*
X00931597Y00651521D01*
X00927598Y0065552D01*
X00923599D01*
X009216Y00653521D01*
Y00649522D01*
X00923599Y00647523D01*
X00925599D01*
X00927598Y00649522D01*
Y0065552D01*
X009216Y00637526D02*
X00933596D01*
X00927598Y00643524D01*
Y00635526D01*
M02*
