%FSTAX44Y44*%
%MOMM*%
G71*
G01*
G75*
G04 Layer_Physical_Order=1*
G04 Layer_Color=16776960*
G04:AMPARAMS|DCode=10|XSize=0.8mm|YSize=1mm|CornerRadius=0.2mm|HoleSize=0mm|Usage=FLASHONLY|Rotation=270.000|XOffset=0mm|YOffset=0mm|HoleType=Round|Shape=RoundedRectangle|*
%AMROUNDEDRECTD10*
21,1,0.8000,0.6000,0,0,270.0*
21,1,0.4000,1.0000,0,0,270.0*
1,1,0.4000,-0.3000,-0.2000*
1,1,0.4000,-0.3000,0.2000*
1,1,0.4000,0.3000,0.2000*
1,1,0.4000,0.3000,-0.2000*
%
%ADD10ROUNDEDRECTD10*%
G04:AMPARAMS|DCode=11|XSize=0.8mm|YSize=1mm|CornerRadius=0.2mm|HoleSize=0mm|Usage=FLASHONLY|Rotation=0.000|XOffset=0mm|YOffset=0mm|HoleType=Round|Shape=RoundedRectangle|*
%AMROUNDEDRECTD11*
21,1,0.8000,0.6000,0,0,0.0*
21,1,0.4000,1.0000,0,0,0.0*
1,1,0.4000,0.2000,-0.3000*
1,1,0.4000,-0.2000,-0.3000*
1,1,0.4000,-0.2000,0.3000*
1,1,0.4000,0.2000,0.3000*
%
%ADD11ROUNDEDRECTD11*%
G04:AMPARAMS|DCode=12|XSize=0.9mm|YSize=0.8mm|CornerRadius=0.2mm|HoleSize=0mm|Usage=FLASHONLY|Rotation=90.000|XOffset=0mm|YOffset=0mm|HoleType=Round|Shape=RoundedRectangle|*
%AMROUNDEDRECTD12*
21,1,0.9000,0.4000,0,0,90.0*
21,1,0.5000,0.8000,0,0,90.0*
1,1,0.4000,0.2000,0.2500*
1,1,0.4000,0.2000,-0.2500*
1,1,0.4000,-0.2000,-0.2500*
1,1,0.4000,-0.2000,0.2500*
%
%ADD12ROUNDEDRECTD12*%
G04:AMPARAMS|DCode=13|XSize=0.45mm|YSize=0.8mm|CornerRadius=0.1125mm|HoleSize=0mm|Usage=FLASHONLY|Rotation=180.000|XOffset=0mm|YOffset=0mm|HoleType=Round|Shape=RoundedRectangle|*
%AMROUNDEDRECTD13*
21,1,0.4500,0.5750,0,0,180.0*
21,1,0.2250,0.8000,0,0,180.0*
1,1,0.2250,-0.1125,0.2875*
1,1,0.2250,0.1125,0.2875*
1,1,0.2250,0.1125,-0.2875*
1,1,0.2250,-0.1125,-0.2875*
%
%ADD13ROUNDEDRECTD13*%
G04:AMPARAMS|DCode=14|XSize=1mm|YSize=0.8mm|CornerRadius=0.2mm|HoleSize=0mm|Usage=FLASHONLY|Rotation=180.000|XOffset=0mm|YOffset=0mm|HoleType=Round|Shape=RoundedRectangle|*
%AMROUNDEDRECTD14*
21,1,1.0000,0.4000,0,0,180.0*
21,1,0.6000,0.8000,0,0,180.0*
1,1,0.4000,-0.3000,0.2000*
1,1,0.4000,0.3000,0.2000*
1,1,0.4000,0.3000,-0.2000*
1,1,0.4000,-0.3000,-0.2000*
%
%ADD14ROUNDEDRECTD14*%
G04:AMPARAMS|DCode=15|XSize=1.9mm|YSize=0.4mm|CornerRadius=0.1mm|HoleSize=0mm|Usage=FLASHONLY|Rotation=180.000|XOffset=0mm|YOffset=0mm|HoleType=Round|Shape=RoundedRectangle|*
%AMROUNDEDRECTD15*
21,1,1.9000,0.2000,0,0,180.0*
21,1,1.7000,0.4000,0,0,180.0*
1,1,0.2000,-0.8500,0.1000*
1,1,0.2000,0.8500,0.1000*
1,1,0.2000,0.8500,-0.1000*
1,1,0.2000,-0.8500,-0.1000*
%
%ADD15ROUNDEDRECTD15*%
G04:AMPARAMS|DCode=16|XSize=0.8mm|YSize=0.85mm|CornerRadius=0.2mm|HoleSize=0mm|Usage=FLASHONLY|Rotation=90.000|XOffset=0mm|YOffset=0mm|HoleType=Round|Shape=RoundedRectangle|*
%AMROUNDEDRECTD16*
21,1,0.8000,0.4500,0,0,90.0*
21,1,0.4000,0.8500,0,0,90.0*
1,1,0.4000,0.2250,0.2000*
1,1,0.4000,0.2250,-0.2000*
1,1,0.4000,-0.2250,-0.2000*
1,1,0.4000,-0.2250,0.2000*
%
%ADD16ROUNDEDRECTD16*%
G04:AMPARAMS|DCode=17|XSize=1.6mm|YSize=1.3mm|CornerRadius=0.325mm|HoleSize=0mm|Usage=FLASHONLY|Rotation=0.000|XOffset=0mm|YOffset=0mm|HoleType=Round|Shape=RoundedRectangle|*
%AMROUNDEDRECTD17*
21,1,1.6000,0.6500,0,0,0.0*
21,1,0.9500,1.3000,0,0,0.0*
1,1,0.6500,0.4750,-0.3250*
1,1,0.6500,-0.4750,-0.3250*
1,1,0.6500,-0.4750,0.3250*
1,1,0.6500,0.4750,0.3250*
%
%ADD17ROUNDEDRECTD17*%
G04:AMPARAMS|DCode=18|XSize=2mm|YSize=1.6mm|CornerRadius=0.4mm|HoleSize=0mm|Usage=FLASHONLY|Rotation=90.000|XOffset=0mm|YOffset=0mm|HoleType=Round|Shape=RoundedRectangle|*
%AMROUNDEDRECTD18*
21,1,2.0000,0.8000,0,0,90.0*
21,1,1.2000,1.6000,0,0,90.0*
1,1,0.8000,0.4000,0.6000*
1,1,0.8000,0.4000,-0.6000*
1,1,0.8000,-0.4000,-0.6000*
1,1,0.8000,-0.4000,0.6000*
%
%ADD18ROUNDEDRECTD18*%
G04:AMPARAMS|DCode=19|XSize=2mm|YSize=2.6mm|CornerRadius=0.5mm|HoleSize=0mm|Usage=FLASHONLY|Rotation=90.000|XOffset=0mm|YOffset=0mm|HoleType=Round|Shape=RoundedRectangle|*
%AMROUNDEDRECTD19*
21,1,2.0000,1.6000,0,0,90.0*
21,1,1.0000,2.6000,0,0,90.0*
1,1,1.0000,0.8000,0.5000*
1,1,1.0000,0.8000,-0.5000*
1,1,1.0000,-0.8000,-0.5000*
1,1,1.0000,-0.8000,0.5000*
%
%ADD19ROUNDEDRECTD19*%
G04:AMPARAMS|DCode=20|XSize=1.25mm|YSize=1mm|CornerRadius=0.25mm|HoleSize=0mm|Usage=FLASHONLY|Rotation=180.000|XOffset=0mm|YOffset=0mm|HoleType=Round|Shape=RoundedRectangle|*
%AMROUNDEDRECTD20*
21,1,1.2500,0.5000,0,0,180.0*
21,1,0.7500,1.0000,0,0,180.0*
1,1,0.5000,-0.3750,0.2500*
1,1,0.5000,0.3750,0.2500*
1,1,0.5000,0.3750,-0.2500*
1,1,0.5000,-0.3750,-0.2500*
%
%ADD20ROUNDEDRECTD20*%
G04:AMPARAMS|DCode=21|XSize=1.8mm|YSize=2.8mm|CornerRadius=0.18mm|HoleSize=0mm|Usage=FLASHONLY|Rotation=90.000|XOffset=0mm|YOffset=0mm|HoleType=Round|Shape=RoundedRectangle|*
%AMROUNDEDRECTD21*
21,1,1.8000,2.4400,0,0,90.0*
21,1,1.4400,2.8000,0,0,90.0*
1,1,0.3600,1.2200,0.7200*
1,1,0.3600,1.2200,-0.7200*
1,1,0.3600,-1.2200,-0.7200*
1,1,0.3600,-1.2200,0.7200*
%
%ADD21ROUNDEDRECTD21*%
G04:AMPARAMS|DCode=22|XSize=0.7mm|YSize=1mm|CornerRadius=0.175mm|HoleSize=0mm|Usage=FLASHONLY|Rotation=270.000|XOffset=0mm|YOffset=0mm|HoleType=Round|Shape=RoundedRectangle|*
%AMROUNDEDRECTD22*
21,1,0.7000,0.6500,0,0,270.0*
21,1,0.3500,1.0000,0,0,270.0*
1,1,0.3500,-0.3250,-0.1750*
1,1,0.3500,-0.3250,0.1750*
1,1,0.3500,0.3250,0.1750*
1,1,0.3500,0.3250,-0.1750*
%
%ADD22ROUNDEDRECTD22*%
G04:AMPARAMS|DCode=23|XSize=2mm|YSize=1.6mm|CornerRadius=0.4mm|HoleSize=0mm|Usage=FLASHONLY|Rotation=0.000|XOffset=0mm|YOffset=0mm|HoleType=Round|Shape=RoundedRectangle|*
%AMROUNDEDRECTD23*
21,1,2.0000,0.8000,0,0,0.0*
21,1,1.2000,1.6000,0,0,0.0*
1,1,0.8000,0.6000,-0.4000*
1,1,0.8000,-0.6000,-0.4000*
1,1,0.8000,-0.6000,0.4000*
1,1,0.8000,0.6000,0.4000*
%
%ADD23ROUNDEDRECTD23*%
G04:AMPARAMS|DCode=24|XSize=2mm|YSize=2.6mm|CornerRadius=0.5mm|HoleSize=0mm|Usage=FLASHONLY|Rotation=0.000|XOffset=0mm|YOffset=0mm|HoleType=Round|Shape=RoundedRectangle|*
%AMROUNDEDRECTD24*
21,1,2.0000,1.6000,0,0,0.0*
21,1,1.0000,2.6000,0,0,0.0*
1,1,1.0000,0.5000,-0.8000*
1,1,1.0000,-0.5000,-0.8000*
1,1,1.0000,-0.5000,0.8000*
1,1,1.0000,0.5000,0.8000*
%
%ADD24ROUNDEDRECTD24*%
G04:AMPARAMS|DCode=25|XSize=2.4mm|YSize=3mm|CornerRadius=0.24mm|HoleSize=0mm|Usage=FLASHONLY|Rotation=270.000|XOffset=0mm|YOffset=0mm|HoleType=Round|Shape=RoundedRectangle|*
%AMROUNDEDRECTD25*
21,1,2.4000,2.5200,0,0,270.0*
21,1,1.9200,3.0000,0,0,270.0*
1,1,0.4800,-1.2600,-0.9600*
1,1,0.4800,-1.2600,0.9600*
1,1,0.4800,1.2600,0.9600*
1,1,0.4800,1.2600,-0.9600*
%
%ADD25ROUNDEDRECTD25*%
G04:AMPARAMS|DCode=26|XSize=2.65mm|YSize=1.75mm|CornerRadius=0.4375mm|HoleSize=0mm|Usage=FLASHONLY|Rotation=180.000|XOffset=0mm|YOffset=0mm|HoleType=Round|Shape=RoundedRectangle|*
%AMROUNDEDRECTD26*
21,1,2.6500,0.8750,0,0,180.0*
21,1,1.7750,1.7500,0,0,180.0*
1,1,0.8750,-0.8875,0.4375*
1,1,0.8750,0.8875,0.4375*
1,1,0.8750,0.8875,-0.4375*
1,1,0.8750,-0.8875,-0.4375*
%
%ADD26ROUNDEDRECTD26*%
G04:AMPARAMS|DCode=27|XSize=1.8mm|YSize=2.8mm|CornerRadius=0.18mm|HoleSize=0mm|Usage=FLASHONLY|Rotation=180.000|XOffset=0mm|YOffset=0mm|HoleType=Round|Shape=RoundedRectangle|*
%AMROUNDEDRECTD27*
21,1,1.8000,2.4400,0,0,180.0*
21,1,1.4400,2.8000,0,0,180.0*
1,1,0.3600,-0.7200,1.2200*
1,1,0.3600,0.7200,1.2200*
1,1,0.3600,0.7200,-1.2200*
1,1,0.3600,-0.7200,-1.2200*
%
%ADD27ROUNDEDRECTD27*%
G04:AMPARAMS|DCode=28|XSize=1.25mm|YSize=1mm|CornerRadius=0.25mm|HoleSize=0mm|Usage=FLASHONLY|Rotation=90.000|XOffset=0mm|YOffset=0mm|HoleType=Round|Shape=RoundedRectangle|*
%AMROUNDEDRECTD28*
21,1,1.2500,0.5000,0,0,90.0*
21,1,0.7500,1.0000,0,0,90.0*
1,1,0.5000,0.2500,0.3750*
1,1,0.5000,0.2500,-0.3750*
1,1,0.5000,-0.2500,-0.3750*
1,1,0.5000,-0.2500,0.3750*
%
%ADD28ROUNDEDRECTD28*%
%ADD29O,0.4000X1.9000*%
G04:AMPARAMS|DCode=30|XSize=0.9mm|YSize=0.8mm|CornerRadius=0.2mm|HoleSize=0mm|Usage=FLASHONLY|Rotation=180.000|XOffset=0mm|YOffset=0mm|HoleType=Round|Shape=RoundedRectangle|*
%AMROUNDEDRECTD30*
21,1,0.9000,0.4000,0,0,180.0*
21,1,0.5000,0.8000,0,0,180.0*
1,1,0.4000,-0.2500,0.2000*
1,1,0.4000,0.2500,0.2000*
1,1,0.4000,0.2500,-0.2000*
1,1,0.4000,-0.2500,-0.2000*
%
%ADD30ROUNDEDRECTD30*%
G04:AMPARAMS|DCode=31|XSize=0.7mm|YSize=1mm|CornerRadius=0.175mm|HoleSize=0mm|Usage=FLASHONLY|Rotation=0.000|XOffset=0mm|YOffset=0mm|HoleType=Round|Shape=RoundedRectangle|*
%AMROUNDEDRECTD31*
21,1,0.7000,0.6500,0,0,0.0*
21,1,0.3500,1.0000,0,0,0.0*
1,1,0.3500,0.1750,-0.3250*
1,1,0.3500,-0.1750,-0.3250*
1,1,0.3500,-0.1750,0.3250*
1,1,0.3500,0.1750,0.3250*
%
%ADD31ROUNDEDRECTD31*%
G04:AMPARAMS|DCode=32|XSize=0.8mm|YSize=0.85mm|CornerRadius=0.2mm|HoleSize=0mm|Usage=FLASHONLY|Rotation=180.000|XOffset=0mm|YOffset=0mm|HoleType=Round|Shape=RoundedRectangle|*
%AMROUNDEDRECTD32*
21,1,0.8000,0.4500,0,0,180.0*
21,1,0.4000,0.8500,0,0,180.0*
1,1,0.4000,-0.2000,0.2250*
1,1,0.4000,0.2000,0.2250*
1,1,0.4000,0.2000,-0.2250*
1,1,0.4000,-0.2000,-0.2250*
%
%ADD32ROUNDEDRECTD32*%
G04:AMPARAMS|DCode=33|XSize=0.6mm|YSize=2.2mm|CornerRadius=0.15mm|HoleSize=0mm|Usage=FLASHONLY|Rotation=0.000|XOffset=0mm|YOffset=0mm|HoleType=Round|Shape=RoundedRectangle|*
%AMROUNDEDRECTD33*
21,1,0.6000,1.9000,0,0,0.0*
21,1,0.3000,2.2000,0,0,0.0*
1,1,0.3000,0.1500,-0.9500*
1,1,0.3000,-0.1500,-0.9500*
1,1,0.3000,-0.1500,0.9500*
1,1,0.3000,0.1500,0.9500*
%
%ADD33ROUNDEDRECTD33*%
G04:AMPARAMS|DCode=34|XSize=2.2mm|YSize=2.8mm|CornerRadius=0.33mm|HoleSize=0mm|Usage=FLASHONLY|Rotation=90.000|XOffset=0mm|YOffset=0mm|HoleType=Round|Shape=RoundedRectangle|*
%AMROUNDEDRECTD34*
21,1,2.2000,2.1400,0,0,90.0*
21,1,1.5400,2.8000,0,0,90.0*
1,1,0.6600,1.0700,0.7700*
1,1,0.6600,1.0700,-0.7700*
1,1,0.6600,-1.0700,-0.7700*
1,1,0.6600,-1.0700,0.7700*
%
%ADD34ROUNDEDRECTD34*%
G04:AMPARAMS|DCode=35|XSize=1mm|YSize=0.8mm|CornerRadius=0.2mm|HoleSize=0mm|Usage=FLASHONLY|Rotation=90.000|XOffset=0mm|YOffset=0mm|HoleType=Round|Shape=RoundedRectangle|*
%AMROUNDEDRECTD35*
21,1,1.0000,0.4000,0,0,90.0*
21,1,0.6000,0.8000,0,0,90.0*
1,1,0.4000,0.2000,0.3000*
1,1,0.4000,0.2000,-0.3000*
1,1,0.4000,-0.2000,-0.3000*
1,1,0.4000,-0.2000,0.3000*
%
%ADD35ROUNDEDRECTD35*%
G04:AMPARAMS|DCode=36|XSize=0.5mm|YSize=0.65mm|CornerRadius=0.125mm|HoleSize=0mm|Usage=FLASHONLY|Rotation=180.000|XOffset=0mm|YOffset=0mm|HoleType=Round|Shape=RoundedRectangle|*
%AMROUNDEDRECTD36*
21,1,0.5000,0.4000,0,0,180.0*
21,1,0.2500,0.6500,0,0,180.0*
1,1,0.2500,-0.1250,0.2000*
1,1,0.2500,0.1250,0.2000*
1,1,0.2500,0.1250,-0.2000*
1,1,0.2500,-0.1250,-0.2000*
%
%ADD36ROUNDEDRECTD36*%
G04:AMPARAMS|DCode=37|XSize=0.3mm|YSize=1.9mm|CornerRadius=0.075mm|HoleSize=0mm|Usage=FLASHONLY|Rotation=270.000|XOffset=0mm|YOffset=0mm|HoleType=Round|Shape=RoundedRectangle|*
%AMROUNDEDRECTD37*
21,1,0.3000,1.7500,0,0,270.0*
21,1,0.1500,1.9000,0,0,270.0*
1,1,0.1500,-0.8750,-0.0750*
1,1,0.1500,-0.8750,0.0750*
1,1,0.1500,0.8750,0.0750*
1,1,0.1500,0.8750,-0.0750*
%
%ADD37ROUNDEDRECTD37*%
G04:AMPARAMS|DCode=38|XSize=0.3mm|YSize=1.9mm|CornerRadius=0.075mm|HoleSize=0mm|Usage=FLASHONLY|Rotation=180.000|XOffset=0mm|YOffset=0mm|HoleType=Round|Shape=RoundedRectangle|*
%AMROUNDEDRECTD38*
21,1,0.3000,1.7500,0,0,180.0*
21,1,0.1500,1.9000,0,0,180.0*
1,1,0.1500,-0.0750,0.8750*
1,1,0.1500,0.0750,0.8750*
1,1,0.1500,0.0750,-0.8750*
1,1,0.1500,-0.0750,-0.8750*
%
%ADD38ROUNDEDRECTD38*%
G04:AMPARAMS|DCode=39|XSize=6mm|YSize=6mm|CornerRadius=0.3mm|HoleSize=0mm|Usage=FLASHONLY|Rotation=270.000|XOffset=0mm|YOffset=0mm|HoleType=Round|Shape=RoundedRectangle|*
%AMROUNDEDRECTD39*
21,1,6.0000,5.4000,0,0,270.0*
21,1,5.4000,6.0000,0,0,270.0*
1,1,0.6000,-2.7000,-2.7000*
1,1,0.6000,-2.7000,2.7000*
1,1,0.6000,2.7000,2.7000*
1,1,0.6000,2.7000,-2.7000*
%
%ADD39ROUNDEDRECTD39*%
%ADD40C,0.3000*%
%ADD41C,0.2540*%
%ADD42C,1.0000*%
%ADD43C,0.4000*%
%ADD44C,0.7000*%
%ADD45C,0.5000*%
%ADD46C,0.2500*%
%ADD47C,0.2000*%
%ADD48C,2.0000*%
%ADD49C,1.6000*%
%ADD50C,2.5000*%
%ADD51C,2.0000*%
%ADD52C,1.3000*%
%ADD53C,2.2000*%
%ADD54C,0.6000*%
%ADD55C,1.0000*%
%ADD56C,0.7000*%
G36*
X0078862Y010223D02*
X007937Y0101722D01*
X007937Y0092324D01*
X0078862Y0091816D01*
X0077338Y0091816D01*
X007683Y0092324D01*
Y0101722D01*
X0077338Y010223D01*
X0078862Y010223D01*
D02*
G37*
G36*
X0069972D02*
X007048Y0101722D01*
X007048Y0092324D01*
X0069972Y0091816D01*
X0068448Y0091816D01*
X006794Y0092324D01*
Y0101722D01*
X0068448Y010223D01*
X0069972Y010223D01*
D02*
G37*
G36*
X0061082D02*
X006159Y0101722D01*
X006159Y0092324D01*
X0061082Y0091816D01*
X0059558Y0091816D01*
X005905Y0092324D01*
Y0101722D01*
X0059558Y010223D01*
X0061082Y010223D01*
D02*
G37*
G36*
X0097912Y010223D02*
X009842Y0101722D01*
X009842Y0092324D01*
X0097912Y0091816D01*
X0096388Y0091816D01*
X009588Y0092324D01*
Y0101722D01*
X0096388Y010223D01*
X0097912Y010223D01*
D02*
G37*
G36*
X0081402Y0105786D02*
Y0104262D01*
X0080894Y0103754D01*
X007683D01*
X0075814Y0102738D01*
Y010096D01*
X0075306Y0100452D01*
X0072004Y0100452D01*
X0071496Y010096D01*
X0071496Y0102992D01*
X0070734Y0103754D01*
X006794Y0103754D01*
X0066924Y0102738D01*
Y010096D01*
X0066416Y0100452D01*
X0063114D01*
X0062606Y010096D01*
Y0102738D01*
X006159Y0103754D01*
X005905D01*
X0058796Y0104008D01*
Y0105786D01*
X005905Y010604D01*
X0081148D01*
X0081402Y0105786D01*
D02*
G37*
G36*
X008953Y0101722D02*
X008953Y0098928D01*
X008953Y009588D01*
X0089276Y0095626D01*
X0087244Y0095626D01*
X008699Y009588D01*
X008699Y0101722D01*
X0087498Y010223D01*
X0089022D01*
X008953Y0101722D01*
D02*
G37*
G36*
X0106802Y010223D02*
X010731Y0101722D01*
X010731Y0092324D01*
X0106802Y0091816D01*
X0105278Y0091816D01*
X010477Y0092324D01*
Y0101722D01*
X0105278Y010223D01*
X0106802Y010223D01*
D02*
G37*
G36*
X0087498Y00908D02*
Y0088006D01*
X0087752Y0087752D01*
Y0086736D01*
X008699Y0085974D01*
Y0083434D01*
X008572Y0082164D01*
X0081402Y0082164D01*
X008064Y0082926D01*
X008064Y0090038D01*
X0081656Y0091054D01*
X0087244D01*
X0087498Y00908D01*
D02*
G37*
G36*
X0084196Y0060574D02*
Y0059558D01*
X0084704Y005905D01*
X0084704Y0058669D01*
X008445Y0058415D01*
X0084069D01*
X00836Y0058884D01*
X00836Y00607D01*
X008407Y00607D01*
X0084196Y0060574D01*
D02*
G37*
G36*
X0080894Y0058288D02*
X0080894Y0057272D01*
X0080259Y0056637D01*
X0079624Y0056637D01*
X007937Y0056891D01*
Y0058415D01*
X0079497Y0058542D01*
X008064D01*
X0080894Y0058288D01*
D02*
G37*
G36*
X00846Y00573D02*
X00846Y005539D01*
X0083942Y0054732D01*
X0083942Y0052319D01*
X0083688Y0052065D01*
X0082926D01*
X0082672Y0052319D01*
X0082672Y0054986D01*
X0083688Y0056002D01*
X0083688Y0057018D01*
X008407Y00574D01*
X00845D01*
X00846Y00573D01*
D02*
G37*
G36*
X0084704Y0062479D02*
X0084704Y0061336D01*
X008445Y0061082D01*
X0083942Y0061082D01*
X0083815Y0061209D01*
Y0062598D01*
X008395Y0062733D01*
X008445D01*
X0084704Y0062479D01*
D02*
G37*
G36*
X0084196Y0070734D02*
X0084196Y0069591D01*
X008445Y0069337D01*
X0084323Y006921D01*
X008318Y006921D01*
X0082164Y0070226D01*
Y0070734D01*
X0082418Y0070988D01*
X0083942Y0070988D01*
X0084196Y0070734D01*
D02*
G37*
G36*
X0096896Y0067686D02*
Y0066924D01*
X0096769Y0066797D01*
X0094245Y0066797D01*
X0093975Y0067067D01*
X0093975Y0068194D01*
X0094356Y0068575D01*
X0096007Y0068575D01*
X0096896Y0067686D01*
D02*
G37*
G36*
X0084704Y0065527D02*
X0084704Y0063241D01*
X008445Y0062987D01*
X0084045Y0062987D01*
X0083815Y0063217D01*
Y0065654D01*
X0083942Y0065781D01*
X008445D01*
X0084704Y0065527D01*
D02*
G37*
G36*
X0109342Y0105786D02*
Y0104262D01*
X0108834Y0103754D01*
X010477D01*
X0103754Y0102738D01*
Y010096D01*
X0103246Y0100452D01*
X0099944Y0100452D01*
X0099436Y010096D01*
X0099436Y0102992D01*
X0098674Y0103754D01*
X009588Y0103754D01*
X0094864Y0102738D01*
Y010096D01*
X0094356Y0100452D01*
X0091054D01*
X0090546Y010096D01*
Y0102738D01*
X008953Y0103754D01*
X008699D01*
X0086736Y0104008D01*
Y0105786D01*
X008699Y010604D01*
X0109088D01*
X0109342Y0105786D01*
D02*
G37*
G36*
X0094102Y014033D02*
Y0134234D01*
X0093848Y013398D01*
X0092324D01*
X009207Y0134234D01*
Y0136266D01*
X0091308Y0137028D01*
X008826D01*
X0088006Y0136774D01*
Y0135758D01*
X0087752Y0135504D01*
X0086482D01*
X0086228Y0135758D01*
X008318Y0135758D01*
X0082926Y0136012D01*
X0082926Y014033D01*
X0083434Y0140838D01*
X0093594D01*
X0094102Y014033D01*
D02*
G37*
G36*
X0089022Y0136012D02*
X0090546Y0136012D01*
X00908Y0135758D01*
X00908Y0131694D01*
X008826Y0129154D01*
X008318Y0129154D01*
X008064Y0131694D01*
Y0134234D01*
X0080894Y0134488D01*
X0082164D01*
X0082418Y0134742D01*
X0087752D01*
X008826Y0134742D01*
X0088514Y0134996D01*
Y0135758D01*
X0088768Y0136012D01*
X0089022Y0136012D01*
D02*
G37*
G36*
X012128Y0134488D02*
Y0133218D01*
X0121534Y0132964D01*
X0123566D01*
X0124074Y0132456D01*
Y0130424D01*
X0122042Y0128392D01*
X0115438D01*
X0113406Y0130424D01*
Y0134234D01*
X011366Y0134488D01*
X0115438D01*
X0115692Y0134742D01*
X0121026D01*
X012128Y0134488D01*
D02*
G37*
G36*
X01184859Y0140838D02*
X0121026Y0138298D01*
Y0138298D01*
X0122296Y0137028D01*
X0124074Y0137028D01*
X0124582Y013652D01*
X0124582Y0134488D01*
X0124328Y0134234D01*
X0122296D01*
X0122042Y0134488D01*
X0122042Y0134742D01*
X012128Y0135504D01*
X0119502Y0135504D01*
X0119248Y0135758D01*
X01162Y0135758D01*
X0115692Y0136266D01*
X0115692Y0140584D01*
X0115946Y0140838D01*
X01184859Y0140838D01*
D02*
G37*
G36*
X0111882Y0138806D02*
X011239Y0138298D01*
X011239Y0136266D01*
X0112136Y0136012D01*
X010985D01*
X0109342Y0135504D01*
X0102992D01*
X0102484Y0136012D01*
X0102484Y0138298D01*
X0102992Y0138806D01*
X0111882Y0138806D01*
D02*
G37*
G36*
X0078862D02*
X007937Y0138298D01*
X007937Y0136266D01*
X0079116Y0136012D01*
X007683D01*
X0076322Y0135504D01*
X0069972D01*
X0069464Y0136012D01*
X0069464Y0138298D01*
X0069972Y0138806D01*
X0078862Y0138806D01*
D02*
G37*
G36*
X0127884Y0138806D02*
Y0134742D01*
X0127376Y0134234D01*
X0125852D01*
X0125344Y0134742D01*
Y0137028D01*
X0124836Y0137536D01*
X0122804D01*
X0122296Y0138044D01*
Y0139314D01*
X0122804Y0139822D01*
X0126868D01*
X0127884Y0138806D01*
D02*
G37*
G36*
X0057526Y0130678D02*
Y012509D01*
X0057018Y0124582D01*
X0053716D01*
X0050414Y0127884D01*
X0050414Y0130678D01*
X0050922Y0131186D01*
X0057018D01*
X0057526Y0130678D01*
D02*
G37*
G36*
X0061082Y0130932D02*
X0061082Y0122042D01*
X0062606Y0120518D01*
Y0118232D01*
X0061844Y011747D01*
X005397D01*
X0053462Y0117978D01*
Y0120264D01*
X005397Y0120772D01*
X0057272Y0120772D01*
X0058542Y0122042D01*
X0058542Y0130932D01*
X005905Y013144D01*
X0060574D01*
X0061082Y0130932D01*
D02*
G37*
G36*
X0109342Y0111628D02*
Y010731D01*
X0109088Y0107056D01*
X0087752Y0107056D01*
X0087244Y0107564D01*
X0087244Y0110612D01*
X0087752Y011112D01*
X0092578Y011112D01*
X0095372Y0113914D01*
X0098674D01*
X009969Y011493D01*
X010604Y011493D01*
X0109342Y0111628D01*
D02*
G37*
G36*
X0081402Y0112136D02*
Y010731D01*
X0081148Y0107056D01*
X0059558D01*
X005905Y0107564D01*
Y0110358D01*
X0059812Y011112D01*
X006794D01*
X0070734Y0113914D01*
X0074036D01*
X0075052Y011493D01*
X0078608D01*
X0081402Y0112136D01*
D02*
G37*
G36*
X0077084Y0127376D02*
X007937Y012509D01*
X007937Y012001D01*
X00781Y011874D01*
X0074036Y011874D01*
X0072893Y0119883D01*
X0072893Y0122423D01*
X0072766Y012255D01*
Y0127122D01*
X007302Y0127376D01*
X0077084Y0127376D01*
D02*
G37*
G36*
X0049144Y0130678D02*
Y0124582D01*
X0048636Y0124074D01*
X0046858D01*
X004635Y0124582D01*
Y0130678D01*
X0046858Y0131186D01*
X0048636D01*
X0049144Y0130678D01*
D02*
G37*
G36*
X0076576Y0134742D02*
X007683Y0134488D01*
X00789234D01*
X0079116Y01342954D01*
Y0131694D01*
X0082672Y0128138D01*
X0091816Y0128138D01*
X0095118Y013144D01*
X0101468D01*
X0104516Y0134488D01*
X0107818D01*
X0108072Y0134742D01*
X0109596D01*
X010985Y0134488D01*
X0111882D01*
X0112136Y0134234D01*
X0112136Y013017D01*
X0110358Y0128392D01*
X0096896Y0128392D01*
X0096642Y0128138D01*
X0096642D01*
X0096642Y01270902D01*
Y012001D01*
X0096515Y0119883D01*
X0096261D01*
X0096134Y012001D01*
X0096134Y0122042D01*
X0095372Y0122804D01*
X0095372Y012382D01*
X009461Y0124582D01*
X0089022D01*
X0085466Y0121026D01*
Y0095118D01*
X0086228Y0094356D01*
X0089022Y0094356D01*
X00908Y0092578D01*
X00908Y0086736D01*
X0090292Y0086228D01*
X0088514D01*
X008826Y0086482D01*
Y0087244D01*
X0088514Y0087498D01*
Y0091308D01*
X0087752Y009207D01*
X008445Y009207D01*
X0082672Y0093848D01*
X0082672Y012382D01*
X0080132Y012636D01*
X0077592Y01289D01*
X007302Y01289D01*
X0072004Y0127884D01*
X0072004Y0127122D01*
X0072004Y0127122D01*
Y012001D01*
X0071877Y0119883D01*
X0071623D01*
X0071496Y012001D01*
X0071496Y0122042D01*
X0070734Y0122804D01*
X0070734Y012382D01*
X0070226Y0124328D01*
X0062352Y0124328D01*
X0062098Y0124582D01*
X0062098Y0127122D01*
X0062098Y0127122D01*
X0062098Y0133218D01*
X0063622Y0134742D01*
X0076576Y0134742D01*
D02*
G37*
G36*
X0101976Y0127376D02*
X0104262Y012509D01*
X0104262Y012001D01*
X0102992Y011874D01*
X0098928Y011874D01*
X0097785Y0119883D01*
X0097785Y0122423D01*
X0097658Y012255D01*
Y0127122D01*
X0097912Y0127376D01*
X0101976Y0127376D01*
D02*
G37*
D10*
X013779Y013191D02*
D03*
Y013351D02*
D03*
X007556Y0117686D02*
D03*
Y0119286D02*
D03*
Y0114638D02*
D03*
Y0116238D02*
D03*
X0100198Y0117686D02*
D03*
Y0119286D02*
D03*
Y0114638D02*
D03*
Y0116238D02*
D03*
X011493Y009889D02*
D03*
Y010049D02*
D03*
X0120264Y009508D02*
D03*
Y009668D02*
D03*
X011874Y009668D02*
D03*
Y009508D02*
D03*
X0114676Y0085174D02*
D03*
Y0086774D02*
D03*
X011239Y0085174D02*
D03*
Y0086774D02*
D03*
X0087752Y0074506D02*
D03*
Y0076106D02*
D03*
X0087752Y0071712D02*
D03*
Y0073312D02*
D03*
X0115184Y007857D02*
D03*
Y008017D02*
D03*
X011874Y007857D02*
D03*
Y008017D02*
D03*
X0116962Y008017D02*
D03*
Y007857D02*
D03*
D11*
X012843Y0111882D02*
D03*
X012683D02*
D03*
X012683Y012001D02*
D03*
X012843D02*
D03*
X012683Y0125852D02*
D03*
X012843D02*
D03*
X0118016Y0085212D02*
D03*
X0116416D02*
D03*
X007843Y0062606D02*
D03*
X007683D02*
D03*
X007843Y0061082D02*
D03*
X007683D02*
D03*
X00773759Y00727661D02*
D03*
X00757759D02*
D03*
X00773759Y00707341D02*
D03*
X00757759D02*
D03*
X00730579D02*
D03*
X00714579D02*
D03*
X00730579Y00727661D02*
D03*
X00714579D02*
D03*
X0073312Y0076322D02*
D03*
X0071712D02*
D03*
X013064Y004508D02*
D03*
X013224D02*
D03*
X013224Y0046858D02*
D03*
X013064D02*
D03*
X013224Y004889D02*
D03*
X013064D02*
D03*
X012589Y0054478D02*
D03*
X012429D02*
D03*
X012589Y0058542D02*
D03*
X012429D02*
D03*
X012589Y005651D02*
D03*
X012429D02*
D03*
X011794Y0046858D02*
D03*
X011954D02*
D03*
X012589Y0064638D02*
D03*
X012429D02*
D03*
X012589Y006667D02*
D03*
X012429D02*
D03*
X012589Y007048D02*
D03*
X012429D02*
D03*
X012589Y0060574D02*
D03*
X012429D02*
D03*
X012589Y0062606D02*
D03*
X012429D02*
D03*
D12*
X012693Y010985D02*
D03*
X012833D02*
D03*
X011804Y011874D02*
D03*
X011944D02*
D03*
X0088706Y008699D02*
D03*
X0087306D02*
D03*
X00758759Y00692101D02*
D03*
X00772759D02*
D03*
X00758759Y00742901D02*
D03*
X00772759D02*
D03*
D13*
X012825Y0107872D02*
D03*
X012955D02*
D03*
X012825Y0105732D02*
D03*
D14*
X01294D02*
D03*
X008953Y0070796D02*
D03*
Y0072196D02*
D03*
X0096388Y0065716D02*
D03*
Y0067116D02*
D03*
D15*
X01324Y011307D02*
D03*
Y011242D02*
D03*
Y011177D02*
D03*
Y011112D02*
D03*
Y011047D02*
D03*
Y010982D02*
D03*
Y010917D02*
D03*
X01381Y011307D02*
D03*
Y011242D02*
D03*
Y011177D02*
D03*
Y011112D02*
D03*
Y011047D02*
D03*
Y010982D02*
D03*
Y010917D02*
D03*
D16*
X01179652Y0120518D02*
D03*
X01195148D02*
D03*
X00978992Y0065654D02*
D03*
X00994488D02*
D03*
D17*
X0131275Y012226D02*
D03*
X0139225D02*
D03*
Y011776D02*
D03*
X0131275D02*
D03*
D18*
X0123312Y013185D02*
D03*
Y013865D02*
D03*
X009715Y010817D02*
D03*
Y010137D02*
D03*
X010604Y010817D02*
D03*
Y010137D02*
D03*
X008826Y010817D02*
D03*
Y010137D02*
D03*
X00781Y010817D02*
D03*
Y010137D02*
D03*
X006921Y010817D02*
D03*
Y010137D02*
D03*
X006032Y010817D02*
D03*
Y010137D02*
D03*
D19*
X0123312Y013525D02*
D03*
X009715Y010477D02*
D03*
X010604D02*
D03*
X008826D02*
D03*
X00781Y010477D02*
D03*
X006921D02*
D03*
X006032D02*
D03*
D20*
X0120518Y0134375D02*
D03*
Y0136125D02*
D03*
X0108834Y0134375D02*
D03*
Y0136125D02*
D03*
X0087244Y0134375D02*
D03*
Y0136125D02*
D03*
X0075814Y0134375D02*
D03*
Y0136125D02*
D03*
X010858Y0107423D02*
D03*
Y0105673D02*
D03*
X0099436Y0107423D02*
D03*
Y0105673D02*
D03*
X00908Y0107423D02*
D03*
Y0105673D02*
D03*
X008064Y0107423D02*
D03*
Y0105673D02*
D03*
X0071496Y0107423D02*
D03*
Y0105673D02*
D03*
X006286Y0107423D02*
D03*
Y0105673D02*
D03*
X006794Y0072625D02*
D03*
Y0070875D02*
D03*
D21*
X011747Y013675D02*
D03*
Y013375D02*
D03*
X010604Y013675D02*
D03*
Y013375D02*
D03*
X008445Y013675D02*
D03*
Y013375D02*
D03*
X007302Y013675D02*
D03*
Y013375D02*
D03*
X010223Y0105048D02*
D03*
Y0108048D02*
D03*
X007429Y0105048D02*
D03*
Y0108048D02*
D03*
D22*
X0114198Y01343D02*
D03*
X0111598Y013525D02*
D03*
X0114198Y01362D02*
D03*
X0111598D02*
D03*
Y01343D02*
D03*
X0114198Y013525D02*
D03*
X0081178Y01343D02*
D03*
X0078578Y013525D02*
D03*
X0081178Y01362D02*
D03*
X0078578D02*
D03*
Y01343D02*
D03*
X0081178Y013525D02*
D03*
D23*
X0089686Y013525D02*
D03*
X0096486D02*
D03*
X0056412Y013017D02*
D03*
X0063212D02*
D03*
D24*
X0093086Y013525D02*
D03*
X0059812Y013017D02*
D03*
D25*
X005524Y012567D02*
D03*
Y011943D02*
D03*
D26*
X0052056Y013017D02*
D03*
X0047756D02*
D03*
D27*
X006009Y0125852D02*
D03*
X006309D02*
D03*
X0073758D02*
D03*
X0070758D02*
D03*
X009865D02*
D03*
X009565D02*
D03*
X0086506Y008953D02*
D03*
X0089506D02*
D03*
D28*
X0071637Y0123058D02*
D03*
X0073387D02*
D03*
X0096275D02*
D03*
X0098025D02*
D03*
D29*
X0071791Y0116186D02*
D03*
X0072441D02*
D03*
X0073091D02*
D03*
X0073741D02*
D03*
X0071791Y0120786D02*
D03*
X0072441D02*
D03*
X0073091D02*
D03*
X0073741D02*
D03*
X0096429Y0116186D02*
D03*
X0097079D02*
D03*
X0097729D02*
D03*
X0098379D02*
D03*
X0096429Y0120786D02*
D03*
X0097079D02*
D03*
X0097729D02*
D03*
X0098379D02*
D03*
D30*
X0116708Y009518D02*
D03*
Y009658D02*
D03*
X0118486Y008883D02*
D03*
Y009023D02*
D03*
X0079878Y0058096D02*
D03*
Y0059496D02*
D03*
X0088514Y0051622D02*
D03*
Y0050222D02*
D03*
X00742899Y00724501D02*
D03*
Y00710501D02*
D03*
D31*
X0114864Y009708D02*
D03*
X0113914D02*
D03*
X0112964D02*
D03*
Y009468D02*
D03*
X0114864D02*
D03*
X0116642Y009073D02*
D03*
X0115692D02*
D03*
X0114742D02*
D03*
Y008833D02*
D03*
X0116642D02*
D03*
D32*
X012001Y00887552D02*
D03*
Y00903048D02*
D03*
X0083434Y00524588D02*
D03*
Y00509092D02*
D03*
X0091054Y0071242D02*
D03*
Y00727916D02*
D03*
X0085212Y00717372D02*
D03*
Y00732868D02*
D03*
D33*
X0086609Y0078302D02*
D03*
X0087879D02*
D03*
X0089149D02*
D03*
X0090419D02*
D03*
X0086609Y0084502D02*
D03*
X0087879D02*
D03*
X0089149D02*
D03*
X0090419D02*
D03*
D34*
X0082672Y0083902D02*
D03*
Y0078902D02*
D03*
D35*
X0083496Y005397D02*
D03*
X0084896D02*
D03*
X008515Y007048D02*
D03*
X008375D02*
D03*
D36*
X00867106Y007048D02*
D03*
X00877774D02*
D03*
D37*
X009411Y0066102D02*
D03*
Y0065602D02*
D03*
Y0065102D02*
D03*
Y0064602D02*
D03*
Y0064102D02*
D03*
Y0063602D02*
D03*
Y0063102D02*
D03*
Y0062602D02*
D03*
Y0062102D02*
D03*
Y0061602D02*
D03*
Y0061102D02*
D03*
Y0060602D02*
D03*
Y0060102D02*
D03*
Y0059602D02*
D03*
Y0059102D02*
D03*
Y0058602D02*
D03*
X008241D02*
D03*
Y0066102D02*
D03*
Y0065602D02*
D03*
Y0065102D02*
D03*
Y0064602D02*
D03*
Y0064102D02*
D03*
Y0063602D02*
D03*
Y0063102D02*
D03*
Y0062602D02*
D03*
Y0062102D02*
D03*
Y0058602D02*
D03*
Y0059102D02*
D03*
Y0059602D02*
D03*
Y0060102D02*
D03*
Y0060602D02*
D03*
Y0061102D02*
D03*
Y0061602D02*
D03*
D38*
X009151Y0068202D02*
D03*
X009101D02*
D03*
X009051D02*
D03*
X009001D02*
D03*
X008951D02*
D03*
X008901D02*
D03*
X008851D02*
D03*
X008801D02*
D03*
X008751D02*
D03*
X008701D02*
D03*
X008651D02*
D03*
X008601D02*
D03*
X008551D02*
D03*
X008501D02*
D03*
X008451D02*
D03*
X009201D02*
D03*
Y0056502D02*
D03*
D03*
X009151D02*
D03*
X009101D02*
D03*
X009051D02*
D03*
X009001D02*
D03*
X008951D02*
D03*
X008901D02*
D03*
X008851D02*
D03*
X008801D02*
D03*
X008751D02*
D03*
X008701D02*
D03*
X008651D02*
D03*
X008601D02*
D03*
X008551D02*
D03*
X008501D02*
D03*
X008451D02*
D03*
D39*
X008826Y0062352D02*
D03*
D40*
X009051Y0069936D02*
X0090546Y0069972D01*
X009051Y0068202D02*
Y0069936D01*
X013144Y0072512D02*
X0133218Y007429D01*
X012255Y0072512D02*
X013144D01*
X0133218Y007429D02*
Y0085212D01*
X0134488Y0086482D01*
Y0092832D01*
X0138806Y009715D01*
X01416D01*
X014287Y009842D01*
X0096138Y0062602D02*
X0096642Y0062098D01*
X009411Y0062602D02*
X0096138D01*
X0092352Y0060602D02*
X009411D01*
X009207Y006032D02*
X0092352Y0060602D01*
X009207Y006413D02*
X0092598Y0063602D01*
X009411D01*
X0092578Y0064892D02*
X0092788Y0065102D01*
X009411D01*
X008501Y0056502D02*
Y0058086D01*
X0085212Y0058288D01*
X008551Y0057824D02*
X0085974Y0058288D01*
X008551Y0056502D02*
Y0057824D01*
X008851Y0054482D02*
X0088514Y0054478D01*
X008851Y0054482D02*
Y0056502D01*
X008951Y0058014D02*
X0090038Y0058542D01*
X008951Y0056502D02*
Y0058014D01*
X0088514Y0058542D02*
X008901Y0058046D01*
Y0056502D02*
Y0058046D01*
X0084196Y0064384D02*
Y00654D01*
X0083994Y0065602D02*
X0084196Y00654D01*
X008241Y0065602D02*
X0083994D01*
X008241Y0063102D02*
X008393D01*
X0084196Y0063368D02*
Y0064384D01*
X008393Y0063102D02*
X0084196Y0063368D01*
Y0061336D02*
Y0062225D01*
X0083819Y0062602D02*
X0084196Y0062225D01*
X008241Y0062602D02*
X0083819D01*
X008241Y0060602D02*
X0083942D01*
X008241Y0060102D02*
X0083942D01*
X0080386Y0060574D02*
X0080914Y0061102D01*
X008241D01*
X0081335Y0058602D02*
X008241D01*
X0080829Y0058096D02*
X0081335Y0058602D01*
X0079878Y0058096D02*
X0080829D01*
X013779Y013351D02*
Y0134742D01*
X0137282Y013525D02*
X013779Y0134742D01*
X013271Y013525D02*
X0137282D01*
X012843Y0125852D02*
X0135758D01*
X013779Y0127884D01*
Y013191D01*
X014113D01*
X014287Y013017D01*
Y0112898D02*
Y013017D01*
X0141092Y011112D02*
X014287Y0112898D01*
X01381Y011112D02*
X0141092D01*
X009001Y0054478D02*
Y0056502D01*
D41*
X0133726Y0073528D02*
Y0084958D01*
X0131948Y007175D02*
X0133726Y0073528D01*
X0118994Y007175D02*
X0131948D01*
X012255Y007048D02*
X012429D01*
X0119248D02*
X012255D01*
X008551Y0066626D02*
X008572Y0066416D01*
X008551Y0066626D02*
Y0068202D01*
X00877774Y00702514D02*
Y007048D01*
X008751Y0069984D02*
X00877774Y00702514D01*
X008751Y0068202D02*
Y0069984D01*
X0091816Y0070226D02*
X0092832D01*
X009101Y006942D02*
X0091816Y0070226D01*
X009101Y0068202D02*
Y006942D01*
X008951Y0070776D02*
X008953Y0070796D01*
X008951Y0068202D02*
Y0070776D01*
X0087752Y0071712D02*
X00877774Y00716866D01*
X008515Y00716752D02*
X0085212Y00717372D01*
X008515Y007048D02*
Y00716752D01*
Y0069656D02*
Y007048D01*
X008501Y0069516D02*
X008515Y0069656D01*
X008501Y0068202D02*
Y0069516D01*
X0078354Y0076322D02*
X0081148Y0073528D01*
Y0066416D02*
Y0073528D01*
X0073312Y0076322D02*
X0078354D01*
X0134996Y009207D02*
X0138806Y009588D01*
X0134996Y0086228D02*
Y009207D01*
X0133726Y0084958D02*
X0134996Y0086228D01*
X0138806Y009588D02*
X014033D01*
X0138806Y009461D02*
X01416D01*
X0135504Y0091308D02*
X0138806Y009461D01*
X0135504Y0072258D02*
Y0091308D01*
X0138806Y009207D02*
X0141092D01*
X0136012Y0089276D02*
X0138806Y009207D01*
X0136012Y0072004D02*
Y0089276D01*
X0138806Y00908D02*
X014033D01*
X013652Y0088514D02*
X0138806Y00908D01*
X013652Y007175D02*
Y0088514D01*
X0115692Y0071242D02*
X011874Y007429D01*
X010731Y0071242D02*
X0115692D01*
X0116962Y0075306D02*
Y007857D01*
X0114422Y0072766D02*
X0116962Y0075306D01*
X0136774Y0067686D02*
X0138338Y006925D01*
X0136774Y0057274D02*
Y0067686D01*
X013075Y005125D02*
X0136774Y0057274D01*
X0136012Y006921D02*
X0138552Y007175D01*
X0136012Y0057526D02*
Y006921D01*
X0130678Y0052192D02*
X0136012Y0057526D01*
X01211Y005125D02*
X013075D01*
X0118232Y0048382D02*
X01211Y005125D01*
X011112Y0048382D02*
X0118232D01*
X0120518Y0052192D02*
X0130678D01*
X0118232Y0049906D02*
X0120518Y0052192D01*
X010731Y0049906D02*
X0118232D01*
X0138552Y007175D02*
X01416D01*
X014287Y007048D01*
X01445Y006975D02*
Y010441D01*
X0143178Y0105732D02*
X01445Y010441D01*
X01294Y0105732D02*
X0143178D01*
X0079878Y0059496D02*
X0079984Y0059602D01*
X008241D01*
X0081462Y0066102D02*
X008241D01*
X0081148Y0066416D02*
X0081462Y0066102D01*
X00978372Y0065716D02*
X00978992Y0065654D01*
X0096388Y0065716D02*
X00978372D01*
X0096274Y0065602D02*
X0096388Y0065716D01*
X009411Y0065602D02*
X0096274D01*
X0101976Y0066162D02*
Y0071496D01*
X0100416Y0064602D02*
X0101976Y0066162D01*
X009411Y0064602D02*
X0100416D01*
X0101976Y0071496D02*
X010477Y007429D01*
X010731D01*
X009411Y0064102D02*
X0101186D01*
X0102738Y0065654D01*
Y0070734D01*
X010477Y0072766D01*
X011112D01*
X010477Y0071242D02*
X010731D01*
X01035Y0069972D02*
X010477Y0071242D01*
X01035Y00654D02*
Y0069972D01*
X009411Y0063102D02*
X0101202D01*
X01035Y00654D01*
X011874Y007429D02*
Y007857D01*
X011112Y0072766D02*
X0114422D01*
X0115184Y0075814D02*
Y007857D01*
X011366Y007429D02*
X0115184Y0075814D01*
X010731Y007429D02*
X011366D01*
X012843Y012001D02*
X014033D01*
X01416Y011874D01*
Y0113406D02*
Y011874D01*
X0140584Y011239D02*
X01416Y0113406D01*
X014414Y011239D02*
X0145156Y0111374D01*
Y00654D02*
Y0111374D01*
X0139964Y011177D02*
X0140584Y011239D01*
X01381Y011177D02*
X0139964D01*
X0143886Y006413D02*
X0145156Y00654D01*
X01416Y006413D02*
X0143886D01*
X014033Y00654D02*
X01416Y006413D01*
X0120264Y0068448D02*
X0132456D01*
X0116962Y0065146D02*
X0120264Y0068448D01*
X010731Y0065146D02*
X0116962D01*
Y0069718D02*
X0118994Y007175D01*
X011112Y0069718D02*
X0116962D01*
X0134488Y0072766D02*
Y008445D01*
X0132202Y007048D02*
X0134488Y0072766D01*
X012589Y007048D02*
X0132202D01*
X0116962Y0068194D02*
X0119248Y007048D01*
X010731Y0068194D02*
X0116962D01*
X01416Y009461D02*
X014287Y009588D01*
X0132202Y0068956D02*
X0135504Y0072258D01*
X0119248Y0068956D02*
X0132202D01*
X0116962Y006667D02*
X0119248Y0068956D01*
X011112Y006667D02*
X0116962D01*
X0132456Y0068448D02*
X0136012Y0072004D01*
X01416Y008953D02*
X014287Y008826D01*
X01416Y008953D02*
Y0091562D01*
X0141092Y009207D02*
X01416Y0091562D01*
X014033Y00908D02*
X014033Y00908D01*
X013271Y006794D02*
X013652Y007175D01*
X012128Y006794D02*
X013271D01*
X0116962Y0063622D02*
X012128Y006794D01*
X011112Y0063622D02*
X0116962D01*
X011112Y0060574D02*
X0115184D01*
X012128Y006667D01*
X012429D01*
X010731Y005905D02*
X0115692D01*
X012128Y0064638D01*
X012429D01*
X011112Y0057526D02*
X01162D01*
X012128Y0062606D01*
X012429D01*
X010731Y0056002D02*
X0116708D01*
X012128Y0060574D01*
X012429D01*
X011112Y0054478D02*
X0117216D01*
X012128Y0058542D01*
X012429D01*
X010731Y0052954D02*
X0117724D01*
X012128Y005651D01*
X012429D01*
X012128Y0054478D02*
X012429D01*
X0118232Y005143D02*
X012128Y0054478D01*
X011112Y005143D02*
X0118232D01*
X0144Y006925D02*
X01445Y006975D01*
X01416Y006667D02*
X014287Y00654D01*
X0138552Y006667D02*
X01416D01*
X0138338Y006925D02*
X0144D01*
X0118016Y0085212D02*
X013144D01*
D42*
X0096486Y013525D02*
X009969D01*
X0082672Y0078902D02*
Y0079497D01*
Y0076576D02*
Y0078902D01*
Y0076576D02*
X0084196Y0075052D01*
X00781Y0078354D02*
X0082672Y0073782D01*
X00781Y0078354D02*
Y0080386D01*
X0129662Y0102738D02*
X0131694Y0100706D01*
Y0092578D02*
Y0100706D01*
X0127122Y0088006D02*
X0131694Y0092578D01*
X01289Y0101214D02*
X013017Y0099944D01*
Y009334D02*
Y0099944D01*
X0127122Y0090292D02*
X013017Y009334D01*
X0121788Y0090292D02*
X0127122D01*
X013064Y0043594D02*
X0130678Y0043556D01*
X013064Y0043594D02*
Y004508D01*
X0127376Y0102738D02*
X0129662D01*
X012693Y0103184D02*
X0127376Y0102738D01*
X012693Y0103184D02*
Y0107872D01*
X012825D01*
X012693D02*
Y0108834D01*
X0126106Y0101214D02*
X01289D01*
X0125344Y0101976D02*
X0126106Y0101214D01*
X0125344Y0101976D02*
Y012001D01*
X0115946Y011874D02*
X011804D01*
X011493Y0117724D02*
X0115946Y011874D01*
X011493Y011493D02*
Y0117724D01*
X011493Y011493D02*
X011493Y011493D01*
X0120772Y0124582D02*
X0125344Y012001D01*
X0120772Y0124582D02*
Y0125852D01*
X0118232Y012382D02*
Y0125852D01*
X01179652Y01235532D02*
X0118232Y012382D01*
X01179652Y0120518D02*
Y01235532D01*
X0116962Y008017D02*
Y0081656D01*
X012683Y0110904D02*
Y012001D01*
X0123312Y0125852D02*
X012683D01*
Y012001D02*
Y0125852D01*
X012693Y0108834D02*
Y010985D01*
Y0110804D01*
X012683Y0110904D02*
X012693Y0110804D01*
D43*
X0097729Y0116186D02*
Y0117287D01*
X0098128Y0117686D01*
X0100198D01*
X0097729Y0114859D02*
Y0116186D01*
Y0114859D02*
X0097912Y0114676D01*
X0096429D02*
Y0116186D01*
X0071791Y0114676D02*
Y0116186D01*
Y0113447D02*
Y0114676D01*
X0073091Y0114859D02*
X0073274Y0114676D01*
X0073091Y0114859D02*
Y0116186D01*
X0139822Y0113406D02*
Y0114168D01*
X0139486Y011307D02*
X0139822Y0113406D01*
X01381Y011307D02*
X0139486D01*
X013398Y0113406D02*
Y0114168D01*
X0133644Y011307D02*
X013398Y0113406D01*
X01324Y011307D02*
X0133644D01*
X012955Y0107872D02*
X013398D01*
X012693Y0108834D02*
X0129916D01*
X0130252Y010917D01*
X01324D01*
X0097079Y0113477D02*
Y0116186D01*
X0096429Y0113447D02*
Y0116186D01*
X0072441Y0113477D02*
Y0116186D01*
X007349Y0117686D02*
X007556D01*
X0073091Y0117287D02*
X007349Y0117686D01*
X0073091Y0116186D02*
Y0117287D01*
X0096388Y0122042D02*
X0096896D01*
X0097079Y0121859D01*
Y0120786D02*
Y0121859D01*
X007175Y0122042D02*
X0072258D01*
X0072441Y0121859D01*
Y0120786D02*
Y0121859D01*
X0131275Y0116543D02*
Y011776D01*
X0129662Y011493D02*
X0131275Y0116543D01*
X0129662Y011177D02*
Y011493D01*
X0131275Y011776D02*
X0139225D01*
X0129662Y011177D02*
X01324D01*
X0128542D02*
X0129662D01*
X01324Y011242D02*
X01381D01*
D44*
X0100198Y0116238D02*
Y0117686D01*
X009842Y0067305D02*
X0099055D01*
X00994488Y00669112D01*
Y0065654D02*
Y00669112D01*
X0091054Y00727916D02*
Y007429D01*
X0092832Y0070226D02*
X0098674D01*
X0104516Y0076068D01*
X0087752Y0073312D02*
Y0074506D01*
X0084742D02*
X0087752D01*
X0084196Y0075052D02*
X0084742Y0074506D01*
X00831672Y00732868D02*
X0085212D01*
X0082672Y0073782D02*
X00831672Y00732868D01*
X0120264Y0092832D02*
Y009508D01*
X0119756Y0092324D02*
X0120264Y0092832D01*
X011747Y0092324D02*
X0119756D01*
X012255Y011493D02*
Y012001D01*
X0122042Y0120518D02*
X012255Y012001D01*
X01195148Y0120518D02*
X0122042D01*
X011944Y011874D02*
X0122296D01*
X012255Y010731D02*
Y011493D01*
X0116642Y0091496D02*
X011747Y0092324D01*
X0116642Y009073D02*
Y0091496D01*
Y0086802D02*
X0116708Y0086736D01*
X0116642Y0086802D02*
Y008833D01*
X0114864Y009366D02*
Y009468D01*
Y009366D02*
X0115184Y009334D01*
X0116708D01*
X0116708Y009334D02*
X0116708Y009334D01*
X0116708Y009334D02*
Y009518D01*
X0114168Y0097912D02*
X0114864D01*
Y009708D02*
Y0097912D01*
Y0098824D01*
X0113914Y0097658D02*
X0114168Y0097912D01*
X0113914Y009708D02*
Y0097658D01*
X0114864Y0098824D02*
X011493Y009889D01*
X0112964Y0092898D02*
Y009468D01*
X011239Y0092324D02*
X0112964Y0092898D01*
X011239Y0086774D02*
Y0092324D01*
X01199352Y008883D02*
X012001Y00887552D01*
X0118486Y008883D02*
X01199352D01*
X0117786D02*
X0118486D01*
X0117286Y008833D02*
X0117786Y008883D01*
X0116642Y008833D02*
X0117286D01*
X0114676Y0086774D02*
X0114742Y008684D01*
Y008833D01*
X0116378Y0085174D02*
X0116416Y0085212D01*
X0114676Y0085174D02*
X0116378D01*
X011239D02*
X0114676D01*
X0104516Y0076068D02*
X0110358D01*
X011239Y00781D01*
Y0085174D01*
X007556Y0116238D02*
Y0117686D01*
X00730579Y00707341D02*
X00757759D01*
X00730579Y00727661D02*
X00757759D01*
X0071317Y0070875D02*
X00714579Y00707341D01*
X006794Y0070875D02*
X0071317D01*
X00713168Y0072625D02*
X00714579Y00727661D01*
X006794Y0072625D02*
X00713168D01*
X00773759Y00727661D02*
Y00741901D01*
X00772759Y00692101D02*
X00773759Y00693101D01*
Y00707341D01*
X00757759Y00693101D02*
X00758759Y00692101D01*
X00757759Y00693101D02*
Y00707341D01*
Y00741901D02*
X00758759Y00742901D01*
X00757759Y00727661D02*
Y00741901D01*
X0062352Y0074036D02*
X0065513Y0070875D01*
X0059558Y0074036D02*
X0062352D01*
X005905Y0073528D02*
X0059558Y0074036D01*
Y007175D02*
X006096D01*
X005905Y0072258D02*
X0059558Y007175D01*
X005905Y0072258D02*
Y0073528D01*
X0065513Y0070875D02*
X006794D01*
X0057145Y007556D02*
X006286D01*
X0065795Y0072625D01*
X006794D01*
Y00654D02*
X006794Y00654D01*
X006794Y00654D02*
Y0070875D01*
Y0072625D02*
Y00781D01*
D45*
X0139225Y012226D02*
Y0124417D01*
X0131186Y0124328D02*
X0131275Y0124239D01*
Y012226D02*
Y0124239D01*
X012825Y0104658D02*
Y0105732D01*
X0111628Y009715D02*
X0111698Y009708D01*
X0112964D01*
X011366Y00908D02*
X011373Y009073D01*
X0114742D01*
X007048Y0076322D02*
X0071712D01*
X0086482Y0071242D02*
Y0072004D01*
X00908Y0070988D02*
X0091054Y0071242D01*
X0089722Y0070988D02*
X00908D01*
X008953Y0070796D02*
X0089722Y0070988D01*
X0084958Y0052573D02*
Y0053908D01*
X0084896Y005397D02*
X0084958Y0053908D01*
X008501Y005475D02*
Y0054986D01*
X0079878Y0057018D02*
Y0057972D01*
X0079816Y0058034D02*
X0079878Y0057972D01*
X008953Y0072196D02*
Y0073274D01*
X0094294Y0067116D02*
X0096388D01*
X009411Y0066289D02*
Y0066932D01*
X0094294Y0067116D01*
X00867106Y007048D02*
Y00710134D01*
X0086482Y0071242D02*
X00867106Y00710134D01*
X00877774Y007048D02*
Y00716866D01*
X0087879Y0076233D02*
Y0078302D01*
X0121788Y0090292D02*
Y0090546D01*
X01215468Y00903048D02*
X0121788Y0090546D01*
X012001Y00903048D02*
X01215468D01*
X011874Y008017D02*
Y0081656D01*
X0115184Y008017D02*
Y0081656D01*
X0116708Y0097912D02*
X0116708Y0097912D01*
X0116708Y009658D02*
Y0097912D01*
X011874Y0093594D02*
Y009508D01*
X011874Y009508D02*
X011874Y009508D01*
X0118016Y009508D02*
X011874D01*
X0117724Y0095372D02*
X0118016Y009508D01*
X0117724Y0095372D02*
Y0096388D01*
X0117532Y009658D02*
X0117724Y0096388D01*
X0116708Y009658D02*
X0117532D01*
X011493Y010049D02*
Y010731D01*
X0129408Y010985D02*
X013017Y0110612D01*
X012833Y010985D02*
X0129408D01*
X0089149Y0084502D02*
Y0086547D01*
X0120264Y009668D02*
X0120264Y009668D01*
X011874Y009668D02*
X0120264D01*
X0120264Y009668D02*
X0120302Y0096642D01*
X0120048D02*
X012509D01*
X011588Y009175D02*
X0116642D01*
X0115692Y0091562D02*
X011588Y009175D01*
X0115692Y009073D02*
Y0091562D01*
X0118486Y0091308D02*
X0118486Y0091308D01*
X0118486Y009023D02*
Y0091308D01*
X0113406Y013525D02*
X0114198D01*
X0112456Y01343D02*
X0113406Y013525D01*
X0111598Y01343D02*
X0112456D01*
X0110358Y013525D02*
X0111598D01*
X0077338Y013525D02*
X0077338Y013525D01*
X0078578D01*
Y01343D02*
X0079436D01*
X0080386Y013525D01*
X0081178D01*
X0079816Y0058034D02*
X0079878Y0058096D01*
X012589Y006667D02*
X0127122D01*
X012589Y0054478D02*
X0127122D01*
X0125852Y005651D02*
X0127084D01*
X012589Y0058542D02*
X0127122D01*
X012589Y0060574D02*
X0127122D01*
X012589Y0062606D02*
X0127122D01*
X012589Y0064638D02*
X0127122D01*
X0088514Y0050222D02*
X0089784D01*
X0083434Y00524588D02*
Y0054038D01*
Y004975D02*
Y00509092D01*
X0084896Y005397D02*
Y0054636D01*
X008501Y005475D01*
X013224Y004508D02*
Y0046858D01*
D46*
X007989Y0061602D02*
X008241D01*
X007937Y0061082D02*
X007989Y0061602D01*
X007843Y0061082D02*
X007937D01*
X0079874Y0062102D02*
X008241D01*
X007937Y0062606D02*
X0079874Y0062102D01*
X007843Y0062606D02*
X007937D01*
X0081327Y0059102D02*
X008241D01*
X008064Y0058415D02*
X0081327Y0059102D01*
X008064Y0058096D02*
Y0058415D01*
X008451Y0068202D02*
Y006915D01*
X008375Y006991D02*
X008451Y006915D01*
X008375Y006991D02*
Y007048D01*
X008601Y0069627D02*
X0086101Y0069718D01*
X008601Y0068202D02*
Y0069627D01*
X008826Y0069718D02*
X008851Y0069468D01*
Y0068202D02*
Y0069468D01*
X0088833Y0072196D02*
X008953D01*
X0088641Y0072004D02*
X0088833Y0072196D01*
X0088641Y0070353D02*
Y0072004D01*
X0092645Y0066102D02*
X009411D01*
Y0066289D01*
X009207Y00654D02*
Y0065527D01*
X0092645Y0066102D01*
X0088641Y0070353D02*
X008901Y0069984D01*
Y0068202D02*
Y0069984D01*
X008701Y0068202D02*
Y0069952D01*
X00867106Y00702514D02*
X008701Y0069952D01*
X00867106Y00702514D02*
Y007048D01*
X009001Y0066698D02*
X0090292Y0066416D01*
X009001Y0066698D02*
Y0068202D01*
X0091689Y0066416D02*
X009207D01*
X009151Y0066595D02*
X0091689Y0066416D01*
X009151Y0066595D02*
Y0068202D01*
X009201Y0066476D02*
X009207Y0066416D01*
X009201Y0066476D02*
Y0068202D01*
X008801Y006692D02*
X0088514Y0066416D01*
X008801Y006692D02*
Y0068202D01*
X008651Y0066896D02*
X008699Y0066416D01*
X008651Y0066896D02*
Y0068202D01*
D47*
X0091943Y0053462D02*
X0103754D01*
X009051Y0054895D02*
X0091943Y0053462D01*
X009051Y0054895D02*
Y0056502D01*
X009207Y005397D02*
X0102738D01*
X009101Y005503D02*
X009207Y005397D01*
X009101Y005503D02*
Y0056502D01*
X0092197Y0054478D02*
X0101722D01*
X009151Y0055165D02*
X0092197Y0054478D01*
X009151Y0055165D02*
Y0056502D01*
X009201Y00553D02*
Y0056502D01*
Y00553D02*
X0092324Y0054986D01*
X0100706D01*
X008501D02*
Y0056502D01*
X0080132Y0065146D02*
Y007302D01*
X008064Y00654D02*
Y0073274D01*
X00773759Y00727661D02*
X0078138Y0072004D01*
X007937D01*
X00778838Y0071242D02*
X0078862D01*
X00773759Y00707341D02*
X00778838Y0071242D01*
X0078862D02*
X0079116Y0070988D01*
X007937Y0072004D02*
X0079624Y007175D01*
X00781Y0075814D02*
X008064Y0073274D01*
X0076322Y0075814D02*
X00781D01*
X0077846Y0075306D02*
X0080132Y007302D01*
X007683Y0075306D02*
X0077846D01*
X0079624Y0064638D02*
Y007175D01*
X00773759Y00721689D02*
Y00725121D01*
X0076576Y0071369D02*
X00773759Y00721689D01*
X0076576Y0068702D02*
Y0071369D01*
Y0072131D02*
Y0075052D01*
X00757759Y00713309D02*
X0076576Y0072131D01*
X00757759Y00707341D02*
Y00713309D01*
X0076576Y0075052D02*
X007683Y0075306D01*
X00758759Y00742901D02*
Y00753679D01*
X0076322Y0075814D01*
X008064Y00654D02*
X0080938Y0065102D01*
X008241D01*
X0080132Y0065146D02*
X0080676Y0064602D01*
X008241D01*
X0076576Y006794D02*
X0077338D01*
X0075814Y0067178D02*
X0076576Y006794D01*
X0075814Y006286D02*
Y0067178D01*
X0075306Y0067432D02*
X0076576Y0068702D01*
X0075306Y0061844D02*
Y0067432D01*
Y0061844D02*
X0076068Y0061082D01*
X007683D01*
X0075814Y006286D02*
X0076068Y0062606D01*
X007683D01*
X0077846Y0067178D02*
X0078354D01*
X0077592Y0067432D02*
X0077846Y0067178D01*
X0077592Y0067432D02*
Y0067686D01*
X0077338Y006794D02*
X0077592Y0067686D01*
X0078608Y0067432D02*
Y0068956D01*
X0078354Y0067178D02*
X0078608Y0067432D01*
X00783539Y00692101D02*
X0078608Y0068956D01*
X00772759Y00692101D02*
X00783539D01*
X0079116Y0064384D02*
Y0070988D01*
Y0064384D02*
X0079898Y0063602D01*
X0079624Y0064638D02*
X008016Y0064102D01*
X0079898Y0063602D02*
X008241D01*
X008016Y0064102D02*
X008241D01*
X009411Y0060102D02*
X0099726D01*
X010477Y0065146D01*
X010731D01*
X0100706Y0054986D02*
X010477Y005905D01*
X010731D01*
X009411Y0058602D02*
X0102798D01*
X010477Y0060574D01*
X011112D01*
X009411Y0059102D02*
X0101774D01*
X010477Y0062098D01*
X010731D01*
X009411Y0059602D02*
X010075D01*
X010477Y0063622D01*
X011112D01*
X0101722Y0054478D02*
X010477Y0057526D01*
X011112D01*
X0102738Y005397D02*
X010477Y0056002D01*
X010731D01*
X0103754Y0053462D02*
X010477Y0054478D01*
X011112D01*
X008801Y0055244D02*
Y0056502D01*
X0087752Y0054986D02*
X008801Y0055244D01*
X0087752Y0053716D02*
Y0054986D01*
Y0053716D02*
X0088514Y0052954D01*
X010731D01*
X008751Y0055252D02*
Y0056502D01*
X0087244Y0054986D02*
X008751Y0055252D01*
X0087244Y0053462D02*
Y0054986D01*
Y0053462D02*
X008826Y0052446D01*
X0103754D01*
X010477Y005143D01*
X011112D01*
X008701Y005526D02*
Y0056502D01*
X0086736Y0054986D02*
X008701Y005526D01*
X0086736Y00527D02*
Y0054986D01*
Y00527D02*
X0087814Y0051622D01*
X0088514D01*
X0103054D01*
X010477Y0049906D01*
X010731D01*
X008651Y0055268D02*
Y0056502D01*
X0086228Y0054986D02*
X008651Y0055268D01*
X0086228Y0050414D02*
Y0054986D01*
Y0050414D02*
X008826Y0048382D01*
X011112D01*
X008601Y0055263D02*
Y0056502D01*
X0085878Y0055131D02*
X008601Y0055263D01*
X0085878Y0050002D02*
Y0055131D01*
X0088006Y0047874D02*
X0103754D01*
X010477Y0046858D01*
X0085878Y0050002D02*
X0088006Y0047874D01*
X010477Y0046858D02*
X010731D01*
X0083496Y005454D02*
X008451Y0055554D01*
Y0056502D01*
X0083496Y005397D02*
Y005454D01*
X010731Y0046858D02*
X011794D01*
X011954D02*
X012509D01*
X012509Y0046858D01*
X013064D01*
Y004889D01*
X013224D02*
X013514D01*
X01375Y005125D01*
X013224Y004508D02*
X013224Y004508D01*
X01375Y005125D02*
Y0067142D01*
X0138298Y006794D01*
X014033D01*
D48*
X009334Y0077338D02*
Y007937D01*
X0091054Y0075052D02*
X009334Y0077338D01*
X0091054Y007429D02*
Y0075052D01*
X009334Y007937D02*
Y0095372D01*
Y007937D02*
X01035D01*
X0091562Y009715D02*
X009334Y0095372D01*
X008826Y009715D02*
X0091562D01*
X00781Y0080386D02*
Y0092578D01*
D49*
X014287Y00654D02*
D03*
Y006794D02*
D03*
Y007048D02*
D03*
Y007302D02*
D03*
Y007556D02*
D03*
Y00781D02*
D03*
Y006286D02*
D03*
Y01035D02*
D03*
Y010096D02*
D03*
Y009842D02*
D03*
Y009588D02*
D03*
Y009334D02*
D03*
Y00908D02*
D03*
Y008826D02*
D03*
Y008572D02*
D03*
Y008318D02*
D03*
Y008064D02*
D03*
X014033D02*
D03*
Y008318D02*
D03*
Y008572D02*
D03*
Y008826D02*
D03*
Y00908D02*
D03*
Y009334D02*
D03*
Y009588D02*
D03*
Y009842D02*
D03*
Y010096D02*
D03*
Y01035D02*
D03*
Y006286D02*
D03*
Y00781D02*
D03*
Y007556D02*
D03*
Y007302D02*
D03*
Y007048D02*
D03*
Y006794D02*
D03*
Y00654D02*
D03*
X0108834Y0125852D02*
D03*
X006096Y007175D02*
D03*
X0123312Y0125852D02*
D03*
X0118232D02*
D03*
X0120772D02*
D03*
X012636Y013525D02*
D03*
X009969Y013525D02*
D03*
X006921Y013144D02*
D03*
X006159Y012001D02*
D03*
X009715Y009715D02*
D03*
X010604D02*
D03*
X008826Y009715D02*
D03*
X00781D02*
D03*
X006921D02*
D03*
X006032D02*
D03*
Y008826D02*
D03*
X007556Y005143D02*
D03*
X011239Y008191D02*
D03*
X013271Y006286D02*
D03*
X013525Y00527D02*
D03*
X010731Y004381D02*
D03*
X011112Y0045334D02*
D03*
X010731Y0056002D02*
D03*
Y0049906D02*
D03*
Y0065146D02*
D03*
Y007429D02*
D03*
Y0071242D02*
D03*
Y0062098D02*
D03*
Y0046858D02*
D03*
Y0052954D02*
D03*
Y0068194D02*
D03*
Y005905D02*
D03*
X011112Y0057526D02*
D03*
Y0048382D02*
D03*
Y0069718D02*
D03*
Y0060574D02*
D03*
Y006667D02*
D03*
Y005143D02*
D03*
Y0063622D02*
D03*
Y0072766D02*
D03*
Y0054478D02*
D03*
D50*
X0057145Y007556D02*
D03*
X00527D02*
D03*
X005651Y006794D02*
D03*
X004762D02*
D03*
D51*
X004762Y012505D02*
D03*
Y012005D02*
D03*
X013017Y013271D02*
D03*
Y013779D02*
D03*
X013525D02*
D03*
Y013271D02*
D03*
X013271Y013525D02*
D03*
X012255Y0094102D02*
D03*
Y0099182D02*
D03*
X012763D02*
D03*
Y0094102D02*
D03*
X012509Y0096642D02*
D03*
X00654Y008191D02*
D03*
Y008699D02*
D03*
X007048D02*
D03*
Y008191D02*
D03*
X006794Y008445D02*
D03*
X00654Y005651D02*
D03*
Y006159D02*
D03*
X007048D02*
D03*
Y005651D02*
D03*
X006794Y005905D02*
D03*
X012255Y0044318D02*
D03*
Y0049398D02*
D03*
X012763D02*
D03*
Y0044318D02*
D03*
X012509Y0046858D02*
D03*
X006794Y00781D02*
D03*
Y00654D02*
D03*
D52*
X011493Y010731D02*
D03*
X012255D02*
D03*
X011493Y011493D02*
D03*
X012255D02*
D03*
D53*
X0082672Y0079497D02*
D03*
Y0083307D02*
D03*
D54*
X0121026Y013779D02*
D03*
X012001D02*
D03*
X011874Y013906D02*
D03*
X011747D02*
D03*
X01162D02*
D03*
X011747Y014033D02*
D03*
X01162D02*
D03*
X009334D02*
D03*
X009207D02*
D03*
X00908D02*
D03*
X008953D02*
D03*
X008826D02*
D03*
X008699D02*
D03*
X008572D02*
D03*
X008445D02*
D03*
Y013906D02*
D03*
X008572D02*
D03*
X008699D02*
D03*
X008826D02*
D03*
X008953D02*
D03*
X00908D02*
D03*
X009207D02*
D03*
X009334D02*
D03*
X012255Y0072512D02*
D03*
Y007048D02*
D03*
X0102992Y0124074D02*
D03*
Y012509D02*
D03*
Y012001D02*
D03*
Y0121026D02*
D03*
Y0122042D02*
D03*
Y0123058D02*
D03*
X0101976Y012509D02*
D03*
Y0124074D02*
D03*
Y0123058D02*
D03*
Y0122042D02*
D03*
Y0121026D02*
D03*
Y012001D02*
D03*
X010096Y012509D02*
D03*
Y0124074D02*
D03*
Y0123058D02*
D03*
Y0122042D02*
D03*
Y0121026D02*
D03*
Y0126106D02*
D03*
X0101976D02*
D03*
X0077084D02*
D03*
X0076068D02*
D03*
Y0121026D02*
D03*
Y0122042D02*
D03*
Y0123058D02*
D03*
Y0124074D02*
D03*
Y012509D02*
D03*
X0077084Y012001D02*
D03*
Y0121026D02*
D03*
Y0122042D02*
D03*
Y0123058D02*
D03*
Y0124074D02*
D03*
Y012509D02*
D03*
X00781D02*
D03*
Y0124074D02*
D03*
Y0123058D02*
D03*
Y0122042D02*
D03*
Y0121026D02*
D03*
Y012001D02*
D03*
X0097912Y0114676D02*
D03*
X0096429D02*
D03*
X0071791D02*
D03*
X0073274D02*
D03*
X012825Y0104658D02*
D03*
X0111628Y009715D02*
D03*
X011366Y00908D02*
D03*
X0096642Y0062098D02*
D03*
X009207Y006032D02*
D03*
Y006413D02*
D03*
X0092578Y0064892D02*
D03*
X0085212Y0058288D02*
D03*
X0085974D02*
D03*
X0090038Y0058542D02*
D03*
X0088514D02*
D03*
X008953Y006032D02*
D03*
X0088768D02*
D03*
X0088006D02*
D03*
X0090292D02*
D03*
X008572D02*
D03*
X0086482D02*
D03*
X0087244D02*
D03*
Y0063876D02*
D03*
X0086482D02*
D03*
X008572D02*
D03*
X0090292D02*
D03*
X0088006D02*
D03*
Y0064638D02*
D03*
X0088768D02*
D03*
Y0063876D02*
D03*
X008953Y0064638D02*
D03*
Y0063876D02*
D03*
X0090292Y0064638D02*
D03*
X008445Y008826D02*
D03*
X0083434D02*
D03*
Y0090292D02*
D03*
Y0089276D02*
D03*
X008445D02*
D03*
Y0090292D02*
D03*
X0084196Y0064384D02*
D03*
Y0061336D02*
D03*
X0084704Y0060193D02*
D03*
X0084323Y0058796D02*
D03*
X0080386Y0060574D02*
D03*
X0082672Y007048D02*
D03*
X009001Y0054478D02*
D03*
X0088514D02*
D03*
X0084958Y0052573D02*
D03*
X008572Y0066416D02*
D03*
X0086101Y0069718D02*
D03*
X008953Y0073274D02*
D03*
X009207Y0065527D02*
D03*
X0090292Y0066416D02*
D03*
X0090546Y0069972D02*
D03*
X009207Y0066416D02*
D03*
X008826Y0069718D02*
D03*
X0088514Y0066416D02*
D03*
X008699D02*
D03*
D55*
X0139225Y0124417D02*
D03*
X0131186Y0124328D02*
D03*
X0139822Y0114168D02*
D03*
X007048Y0076322D02*
D03*
X0093848Y0068067D02*
D03*
X009842Y0067305D02*
D03*
X010604Y0092578D02*
D03*
X009715D02*
D03*
X01035Y007937D02*
D03*
X0130678Y0043556D02*
D03*
X0127122Y0088006D02*
D03*
X0116962Y0081656D02*
D03*
X013017Y0110612D02*
D03*
X0116708Y0086736D02*
D03*
Y009334D02*
D03*
X00781Y0092578D02*
D03*
X006921D02*
D03*
X006032D02*
D03*
X009461Y010477D02*
D03*
X0092578D02*
D03*
Y0102992D02*
D03*
Y0101214D02*
D03*
X010096Y010096D02*
D03*
Y0102738D02*
D03*
X007302Y0102738D02*
D03*
Y010096D02*
D03*
X0064638Y0101214D02*
D03*
Y0102992D02*
D03*
Y010477D02*
D03*
X006667D02*
D03*
X0075814Y013779D02*
D03*
X0077338D02*
D03*
X0078608D02*
D03*
X0070226D02*
D03*
Y013652D02*
D03*
X0103246D02*
D03*
Y013779D02*
D03*
X0111628D02*
D03*
X0110358D02*
D03*
X0108834D02*
D03*
X0114168Y013271D02*
D03*
X0081148D02*
D03*
X0127122Y006667D02*
D03*
X0083434Y004975D02*
D03*
D56*
X0086482Y0072004D02*
D03*
X0079878Y0057018D02*
D03*
X011874Y0081656D02*
D03*
X0115184D02*
D03*
X0116708Y0097912D02*
D03*
X011874Y0093594D02*
D03*
X013398Y0114168D02*
D03*
Y0107872D02*
D03*
X0118486Y0091308D02*
D03*
X0110358Y013525D02*
D03*
X0077338D02*
D03*
X014414Y011239D02*
D03*
X0140584D02*
D03*
X0127122Y0054478D02*
D03*
X0127084Y005651D02*
D03*
X0127122Y0058542D02*
D03*
Y0060574D02*
D03*
Y0062606D02*
D03*
Y0064638D02*
D03*
X0134488Y008445D02*
D03*
X0089784Y0050222D02*
D03*
X0138552Y006667D02*
D03*
X013144Y0085212D02*
D03*
M02*
