%FSTAX44Y44*%
%MOMM*%
G71*
G01*
G75*
G04:AMPARAMS|DCode=10|XSize=0.8mm|YSize=1mm|CornerRadius=0.2mm|HoleSize=0mm|Usage=FLASHONLY|Rotation=270.000|XOffset=0mm|YOffset=0mm|HoleType=Round|Shape=RoundedRectangle|*
%AMROUNDEDRECTD10*
21,1,0.8000,0.6000,0,0,270.0*
21,1,0.4000,1.0000,0,0,270.0*
1,1,0.4000,-0.3000,-0.2000*
1,1,0.4000,-0.3000,0.2000*
1,1,0.4000,0.3000,0.2000*
1,1,0.4000,0.3000,-0.2000*
%
%ADD10ROUNDEDRECTD10*%
G04:AMPARAMS|DCode=11|XSize=0.8mm|YSize=1mm|CornerRadius=0.2mm|HoleSize=0mm|Usage=FLASHONLY|Rotation=0.000|XOffset=0mm|YOffset=0mm|HoleType=Round|Shape=RoundedRectangle|*
%AMROUNDEDRECTD11*
21,1,0.8000,0.6000,0,0,0.0*
21,1,0.4000,1.0000,0,0,0.0*
1,1,0.4000,0.2000,-0.3000*
1,1,0.4000,-0.2000,-0.3000*
1,1,0.4000,-0.2000,0.3000*
1,1,0.4000,0.2000,0.3000*
%
%ADD11ROUNDEDRECTD11*%
G04:AMPARAMS|DCode=12|XSize=0.9mm|YSize=0.8mm|CornerRadius=0.2mm|HoleSize=0mm|Usage=FLASHONLY|Rotation=90.000|XOffset=0mm|YOffset=0mm|HoleType=Round|Shape=RoundedRectangle|*
%AMROUNDEDRECTD12*
21,1,0.9000,0.4000,0,0,90.0*
21,1,0.5000,0.8000,0,0,90.0*
1,1,0.4000,0.2000,0.2500*
1,1,0.4000,0.2000,-0.2500*
1,1,0.4000,-0.2000,-0.2500*
1,1,0.4000,-0.2000,0.2500*
%
%ADD12ROUNDEDRECTD12*%
G04:AMPARAMS|DCode=13|XSize=0.45mm|YSize=0.8mm|CornerRadius=0.1125mm|HoleSize=0mm|Usage=FLASHONLY|Rotation=180.000|XOffset=0mm|YOffset=0mm|HoleType=Round|Shape=RoundedRectangle|*
%AMROUNDEDRECTD13*
21,1,0.4500,0.5750,0,0,180.0*
21,1,0.2250,0.8000,0,0,180.0*
1,1,0.2250,-0.1125,0.2875*
1,1,0.2250,0.1125,0.2875*
1,1,0.2250,0.1125,-0.2875*
1,1,0.2250,-0.1125,-0.2875*
%
%ADD13ROUNDEDRECTD13*%
G04:AMPARAMS|DCode=14|XSize=1mm|YSize=0.8mm|CornerRadius=0.2mm|HoleSize=0mm|Usage=FLASHONLY|Rotation=180.000|XOffset=0mm|YOffset=0mm|HoleType=Round|Shape=RoundedRectangle|*
%AMROUNDEDRECTD14*
21,1,1.0000,0.4000,0,0,180.0*
21,1,0.6000,0.8000,0,0,180.0*
1,1,0.4000,-0.3000,0.2000*
1,1,0.4000,0.3000,0.2000*
1,1,0.4000,0.3000,-0.2000*
1,1,0.4000,-0.3000,-0.2000*
%
%ADD14ROUNDEDRECTD14*%
G04:AMPARAMS|DCode=15|XSize=1.9mm|YSize=0.4mm|CornerRadius=0.1mm|HoleSize=0mm|Usage=FLASHONLY|Rotation=180.000|XOffset=0mm|YOffset=0mm|HoleType=Round|Shape=RoundedRectangle|*
%AMROUNDEDRECTD15*
21,1,1.9000,0.2000,0,0,180.0*
21,1,1.7000,0.4000,0,0,180.0*
1,1,0.2000,-0.8500,0.1000*
1,1,0.2000,0.8500,0.1000*
1,1,0.2000,0.8500,-0.1000*
1,1,0.2000,-0.8500,-0.1000*
%
%ADD15ROUNDEDRECTD15*%
G04:AMPARAMS|DCode=16|XSize=0.8mm|YSize=0.85mm|CornerRadius=0.2mm|HoleSize=0mm|Usage=FLASHONLY|Rotation=90.000|XOffset=0mm|YOffset=0mm|HoleType=Round|Shape=RoundedRectangle|*
%AMROUNDEDRECTD16*
21,1,0.8000,0.4500,0,0,90.0*
21,1,0.4000,0.8500,0,0,90.0*
1,1,0.4000,0.2250,0.2000*
1,1,0.4000,0.2250,-0.2000*
1,1,0.4000,-0.2250,-0.2000*
1,1,0.4000,-0.2250,0.2000*
%
%ADD16ROUNDEDRECTD16*%
G04:AMPARAMS|DCode=17|XSize=1.6mm|YSize=1.3mm|CornerRadius=0.325mm|HoleSize=0mm|Usage=FLASHONLY|Rotation=0.000|XOffset=0mm|YOffset=0mm|HoleType=Round|Shape=RoundedRectangle|*
%AMROUNDEDRECTD17*
21,1,1.6000,0.6500,0,0,0.0*
21,1,0.9500,1.3000,0,0,0.0*
1,1,0.6500,0.4750,-0.3250*
1,1,0.6500,-0.4750,-0.3250*
1,1,0.6500,-0.4750,0.3250*
1,1,0.6500,0.4750,0.3250*
%
%ADD17ROUNDEDRECTD17*%
G04:AMPARAMS|DCode=18|XSize=2mm|YSize=1.6mm|CornerRadius=0.4mm|HoleSize=0mm|Usage=FLASHONLY|Rotation=90.000|XOffset=0mm|YOffset=0mm|HoleType=Round|Shape=RoundedRectangle|*
%AMROUNDEDRECTD18*
21,1,2.0000,0.8000,0,0,90.0*
21,1,1.2000,1.6000,0,0,90.0*
1,1,0.8000,0.4000,0.6000*
1,1,0.8000,0.4000,-0.6000*
1,1,0.8000,-0.4000,-0.6000*
1,1,0.8000,-0.4000,0.6000*
%
%ADD18ROUNDEDRECTD18*%
G04:AMPARAMS|DCode=19|XSize=2mm|YSize=2.6mm|CornerRadius=0.5mm|HoleSize=0mm|Usage=FLASHONLY|Rotation=90.000|XOffset=0mm|YOffset=0mm|HoleType=Round|Shape=RoundedRectangle|*
%AMROUNDEDRECTD19*
21,1,2.0000,1.6000,0,0,90.0*
21,1,1.0000,2.6000,0,0,90.0*
1,1,1.0000,0.8000,0.5000*
1,1,1.0000,0.8000,-0.5000*
1,1,1.0000,-0.8000,-0.5000*
1,1,1.0000,-0.8000,0.5000*
%
%ADD19ROUNDEDRECTD19*%
G04:AMPARAMS|DCode=20|XSize=1.25mm|YSize=1mm|CornerRadius=0.25mm|HoleSize=0mm|Usage=FLASHONLY|Rotation=180.000|XOffset=0mm|YOffset=0mm|HoleType=Round|Shape=RoundedRectangle|*
%AMROUNDEDRECTD20*
21,1,1.2500,0.5000,0,0,180.0*
21,1,0.7500,1.0000,0,0,180.0*
1,1,0.5000,-0.3750,0.2500*
1,1,0.5000,0.3750,0.2500*
1,1,0.5000,0.3750,-0.2500*
1,1,0.5000,-0.3750,-0.2500*
%
%ADD20ROUNDEDRECTD20*%
G04:AMPARAMS|DCode=21|XSize=1.8mm|YSize=2.8mm|CornerRadius=0.18mm|HoleSize=0mm|Usage=FLASHONLY|Rotation=90.000|XOffset=0mm|YOffset=0mm|HoleType=Round|Shape=RoundedRectangle|*
%AMROUNDEDRECTD21*
21,1,1.8000,2.4400,0,0,90.0*
21,1,1.4400,2.8000,0,0,90.0*
1,1,0.3600,1.2200,0.7200*
1,1,0.3600,1.2200,-0.7200*
1,1,0.3600,-1.2200,-0.7200*
1,1,0.3600,-1.2200,0.7200*
%
%ADD21ROUNDEDRECTD21*%
G04:AMPARAMS|DCode=22|XSize=0.7mm|YSize=1mm|CornerRadius=0.175mm|HoleSize=0mm|Usage=FLASHONLY|Rotation=270.000|XOffset=0mm|YOffset=0mm|HoleType=Round|Shape=RoundedRectangle|*
%AMROUNDEDRECTD22*
21,1,0.7000,0.6500,0,0,270.0*
21,1,0.3500,1.0000,0,0,270.0*
1,1,0.3500,-0.3250,-0.1750*
1,1,0.3500,-0.3250,0.1750*
1,1,0.3500,0.3250,0.1750*
1,1,0.3500,0.3250,-0.1750*
%
%ADD22ROUNDEDRECTD22*%
G04:AMPARAMS|DCode=23|XSize=2mm|YSize=1.6mm|CornerRadius=0.4mm|HoleSize=0mm|Usage=FLASHONLY|Rotation=0.000|XOffset=0mm|YOffset=0mm|HoleType=Round|Shape=RoundedRectangle|*
%AMROUNDEDRECTD23*
21,1,2.0000,0.8000,0,0,0.0*
21,1,1.2000,1.6000,0,0,0.0*
1,1,0.8000,0.6000,-0.4000*
1,1,0.8000,-0.6000,-0.4000*
1,1,0.8000,-0.6000,0.4000*
1,1,0.8000,0.6000,0.4000*
%
%ADD23ROUNDEDRECTD23*%
G04:AMPARAMS|DCode=24|XSize=2mm|YSize=2.6mm|CornerRadius=0.5mm|HoleSize=0mm|Usage=FLASHONLY|Rotation=0.000|XOffset=0mm|YOffset=0mm|HoleType=Round|Shape=RoundedRectangle|*
%AMROUNDEDRECTD24*
21,1,2.0000,1.6000,0,0,0.0*
21,1,1.0000,2.6000,0,0,0.0*
1,1,1.0000,0.5000,-0.8000*
1,1,1.0000,-0.5000,-0.8000*
1,1,1.0000,-0.5000,0.8000*
1,1,1.0000,0.5000,0.8000*
%
%ADD24ROUNDEDRECTD24*%
G04:AMPARAMS|DCode=25|XSize=2.4mm|YSize=3mm|CornerRadius=0.24mm|HoleSize=0mm|Usage=FLASHONLY|Rotation=270.000|XOffset=0mm|YOffset=0mm|HoleType=Round|Shape=RoundedRectangle|*
%AMROUNDEDRECTD25*
21,1,2.4000,2.5200,0,0,270.0*
21,1,1.9200,3.0000,0,0,270.0*
1,1,0.4800,-1.2600,-0.9600*
1,1,0.4800,-1.2600,0.9600*
1,1,0.4800,1.2600,0.9600*
1,1,0.4800,1.2600,-0.9600*
%
%ADD25ROUNDEDRECTD25*%
G04:AMPARAMS|DCode=26|XSize=2.65mm|YSize=1.75mm|CornerRadius=0.4375mm|HoleSize=0mm|Usage=FLASHONLY|Rotation=180.000|XOffset=0mm|YOffset=0mm|HoleType=Round|Shape=RoundedRectangle|*
%AMROUNDEDRECTD26*
21,1,2.6500,0.8750,0,0,180.0*
21,1,1.7750,1.7500,0,0,180.0*
1,1,0.8750,-0.8875,0.4375*
1,1,0.8750,0.8875,0.4375*
1,1,0.8750,0.8875,-0.4375*
1,1,0.8750,-0.8875,-0.4375*
%
%ADD26ROUNDEDRECTD26*%
G04:AMPARAMS|DCode=27|XSize=1.8mm|YSize=2.8mm|CornerRadius=0.18mm|HoleSize=0mm|Usage=FLASHONLY|Rotation=180.000|XOffset=0mm|YOffset=0mm|HoleType=Round|Shape=RoundedRectangle|*
%AMROUNDEDRECTD27*
21,1,1.8000,2.4400,0,0,180.0*
21,1,1.4400,2.8000,0,0,180.0*
1,1,0.3600,-0.7200,1.2200*
1,1,0.3600,0.7200,1.2200*
1,1,0.3600,0.7200,-1.2200*
1,1,0.3600,-0.7200,-1.2200*
%
%ADD27ROUNDEDRECTD27*%
G04:AMPARAMS|DCode=28|XSize=1.25mm|YSize=1mm|CornerRadius=0.25mm|HoleSize=0mm|Usage=FLASHONLY|Rotation=90.000|XOffset=0mm|YOffset=0mm|HoleType=Round|Shape=RoundedRectangle|*
%AMROUNDEDRECTD28*
21,1,1.2500,0.5000,0,0,90.0*
21,1,0.7500,1.0000,0,0,90.0*
1,1,0.5000,0.2500,0.3750*
1,1,0.5000,0.2500,-0.3750*
1,1,0.5000,-0.2500,-0.3750*
1,1,0.5000,-0.2500,0.3750*
%
%ADD28ROUNDEDRECTD28*%
%ADD29O,0.4000X1.9000*%
G04:AMPARAMS|DCode=30|XSize=0.9mm|YSize=0.8mm|CornerRadius=0.2mm|HoleSize=0mm|Usage=FLASHONLY|Rotation=180.000|XOffset=0mm|YOffset=0mm|HoleType=Round|Shape=RoundedRectangle|*
%AMROUNDEDRECTD30*
21,1,0.9000,0.4000,0,0,180.0*
21,1,0.5000,0.8000,0,0,180.0*
1,1,0.4000,-0.2500,0.2000*
1,1,0.4000,0.2500,0.2000*
1,1,0.4000,0.2500,-0.2000*
1,1,0.4000,-0.2500,-0.2000*
%
%ADD30ROUNDEDRECTD30*%
G04:AMPARAMS|DCode=31|XSize=0.7mm|YSize=1mm|CornerRadius=0.175mm|HoleSize=0mm|Usage=FLASHONLY|Rotation=0.000|XOffset=0mm|YOffset=0mm|HoleType=Round|Shape=RoundedRectangle|*
%AMROUNDEDRECTD31*
21,1,0.7000,0.6500,0,0,0.0*
21,1,0.3500,1.0000,0,0,0.0*
1,1,0.3500,0.1750,-0.3250*
1,1,0.3500,-0.1750,-0.3250*
1,1,0.3500,-0.1750,0.3250*
1,1,0.3500,0.1750,0.3250*
%
%ADD31ROUNDEDRECTD31*%
G04:AMPARAMS|DCode=32|XSize=0.8mm|YSize=0.85mm|CornerRadius=0.2mm|HoleSize=0mm|Usage=FLASHONLY|Rotation=180.000|XOffset=0mm|YOffset=0mm|HoleType=Round|Shape=RoundedRectangle|*
%AMROUNDEDRECTD32*
21,1,0.8000,0.4500,0,0,180.0*
21,1,0.4000,0.8500,0,0,180.0*
1,1,0.4000,-0.2000,0.2250*
1,1,0.4000,0.2000,0.2250*
1,1,0.4000,0.2000,-0.2250*
1,1,0.4000,-0.2000,-0.2250*
%
%ADD32ROUNDEDRECTD32*%
G04:AMPARAMS|DCode=33|XSize=0.6mm|YSize=2.2mm|CornerRadius=0.15mm|HoleSize=0mm|Usage=FLASHONLY|Rotation=0.000|XOffset=0mm|YOffset=0mm|HoleType=Round|Shape=RoundedRectangle|*
%AMROUNDEDRECTD33*
21,1,0.6000,1.9000,0,0,0.0*
21,1,0.3000,2.2000,0,0,0.0*
1,1,0.3000,0.1500,-0.9500*
1,1,0.3000,-0.1500,-0.9500*
1,1,0.3000,-0.1500,0.9500*
1,1,0.3000,0.1500,0.9500*
%
%ADD33ROUNDEDRECTD33*%
G04:AMPARAMS|DCode=34|XSize=2.2mm|YSize=2.8mm|CornerRadius=0.33mm|HoleSize=0mm|Usage=FLASHONLY|Rotation=90.000|XOffset=0mm|YOffset=0mm|HoleType=Round|Shape=RoundedRectangle|*
%AMROUNDEDRECTD34*
21,1,2.2000,2.1400,0,0,90.0*
21,1,1.5400,2.8000,0,0,90.0*
1,1,0.6600,1.0700,0.7700*
1,1,0.6600,1.0700,-0.7700*
1,1,0.6600,-1.0700,-0.7700*
1,1,0.6600,-1.0700,0.7700*
%
%ADD34ROUNDEDRECTD34*%
G04:AMPARAMS|DCode=35|XSize=1mm|YSize=0.8mm|CornerRadius=0.2mm|HoleSize=0mm|Usage=FLASHONLY|Rotation=90.000|XOffset=0mm|YOffset=0mm|HoleType=Round|Shape=RoundedRectangle|*
%AMROUNDEDRECTD35*
21,1,1.0000,0.4000,0,0,90.0*
21,1,0.6000,0.8000,0,0,90.0*
1,1,0.4000,0.2000,0.3000*
1,1,0.4000,0.2000,-0.3000*
1,1,0.4000,-0.2000,-0.3000*
1,1,0.4000,-0.2000,0.3000*
%
%ADD35ROUNDEDRECTD35*%
G04:AMPARAMS|DCode=36|XSize=0.5mm|YSize=0.65mm|CornerRadius=0.125mm|HoleSize=0mm|Usage=FLASHONLY|Rotation=180.000|XOffset=0mm|YOffset=0mm|HoleType=Round|Shape=RoundedRectangle|*
%AMROUNDEDRECTD36*
21,1,0.5000,0.4000,0,0,180.0*
21,1,0.2500,0.6500,0,0,180.0*
1,1,0.2500,-0.1250,0.2000*
1,1,0.2500,0.1250,0.2000*
1,1,0.2500,0.1250,-0.2000*
1,1,0.2500,-0.1250,-0.2000*
%
%ADD36ROUNDEDRECTD36*%
G04:AMPARAMS|DCode=37|XSize=0.3mm|YSize=1.9mm|CornerRadius=0.075mm|HoleSize=0mm|Usage=FLASHONLY|Rotation=270.000|XOffset=0mm|YOffset=0mm|HoleType=Round|Shape=RoundedRectangle|*
%AMROUNDEDRECTD37*
21,1,0.3000,1.7500,0,0,270.0*
21,1,0.1500,1.9000,0,0,270.0*
1,1,0.1500,-0.8750,-0.0750*
1,1,0.1500,-0.8750,0.0750*
1,1,0.1500,0.8750,0.0750*
1,1,0.1500,0.8750,-0.0750*
%
%ADD37ROUNDEDRECTD37*%
G04:AMPARAMS|DCode=38|XSize=0.3mm|YSize=1.9mm|CornerRadius=0.075mm|HoleSize=0mm|Usage=FLASHONLY|Rotation=180.000|XOffset=0mm|YOffset=0mm|HoleType=Round|Shape=RoundedRectangle|*
%AMROUNDEDRECTD38*
21,1,0.3000,1.7500,0,0,180.0*
21,1,0.1500,1.9000,0,0,180.0*
1,1,0.1500,-0.0750,0.8750*
1,1,0.1500,0.0750,0.8750*
1,1,0.1500,0.0750,-0.8750*
1,1,0.1500,-0.0750,-0.8750*
%
%ADD38ROUNDEDRECTD38*%
G04:AMPARAMS|DCode=39|XSize=6mm|YSize=6mm|CornerRadius=0.3mm|HoleSize=0mm|Usage=FLASHONLY|Rotation=270.000|XOffset=0mm|YOffset=0mm|HoleType=Round|Shape=RoundedRectangle|*
%AMROUNDEDRECTD39*
21,1,6.0000,5.4000,0,0,270.0*
21,1,5.4000,6.0000,0,0,270.0*
1,1,0.6000,-2.7000,-2.7000*
1,1,0.6000,-2.7000,2.7000*
1,1,0.6000,2.7000,2.7000*
1,1,0.6000,2.7000,-2.7000*
%
%ADD39ROUNDEDRECTD39*%
%ADD40C,0.3000*%
%ADD41C,0.2540*%
%ADD42C,1.0000*%
%ADD43C,0.4000*%
%ADD44C,0.7000*%
%ADD45C,0.5000*%
%ADD46C,0.2500*%
%ADD47C,0.2000*%
%ADD48C,2.0000*%
%ADD49C,1.6000*%
%ADD50C,2.5000*%
%ADD51C,2.0000*%
%ADD52C,1.3000*%
%ADD53C,2.2000*%
%ADD54C,0.6000*%
%ADD55C,1.0000*%
%ADD56C,0.7000*%
%ADD57C,1.0160*%
%ADD58C,2.0160*%
G04:AMPARAMS|DCode=59|XSize=2.524mm|YSize=2.524mm|CornerRadius=0mm|HoleSize=0mm|Usage=FLASHONLY|Rotation=0.000|XOffset=0mm|YOffset=0mm|HoleType=Round|Shape=Relief|Width=0.254mm|Gap=0.254mm|Entries=4|*
%AMTHD59*
7,0,0,2.5240,2.0160,0.2540,45*
%
%ADD59THD59*%
%ADD60C,2.6160*%
%ADD61C,2.2160*%
%ADD62C,2.6160*%
G04:AMPARAMS|DCode=63|XSize=3.124mm|YSize=3.124mm|CornerRadius=0mm|HoleSize=0mm|Usage=FLASHONLY|Rotation=0.000|XOffset=0mm|YOffset=0mm|HoleType=Round|Shape=Relief|Width=0.254mm|Gap=0.254mm|Entries=4|*
%AMTHD63*
7,0,0,3.1240,2.6160,0.2540,45*
%
%ADD63THD63*%
%ADD64C,2.3160*%
G04:AMPARAMS|DCode=65|XSize=2.824mm|YSize=2.824mm|CornerRadius=0mm|HoleSize=0mm|Usage=FLASHONLY|Rotation=0.000|XOffset=0mm|YOffset=0mm|HoleType=Round|Shape=Relief|Width=0.254mm|Gap=0.254mm|Entries=4|*
%AMTHD65*
7,0,0,2.8240,2.3160,0.2540,45*
%
%ADD65THD65*%
%ADD66C,1.8160*%
G04:AMPARAMS|DCode=67|XSize=2.324mm|YSize=2.324mm|CornerRadius=0mm|HoleSize=0mm|Usage=FLASHONLY|Rotation=0.000|XOffset=0mm|YOffset=0mm|HoleType=Round|Shape=Relief|Width=0.254mm|Gap=0.254mm|Entries=4|*
%AMTHD67*
7,0,0,2.3240,1.8160,0.2540,45*
%
%ADD67THD67*%
%ADD68C,6.0960*%
G04:AMPARAMS|DCode=69|XSize=1.824mm|YSize=1.824mm|CornerRadius=0mm|HoleSize=0mm|Usage=FLASHONLY|Rotation=0.000|XOffset=0mm|YOffset=0mm|HoleType=Round|Shape=Relief|Width=0.254mm|Gap=0.254mm|Entries=4|*
%AMTHD69*
7,0,0,1.8240,1.3160,0.2540,45*
%
%ADD69THD69*%
%ADD70C,1.3160*%
G04:AMPARAMS|DCode=71|XSize=2.124mm|YSize=2.124mm|CornerRadius=0mm|HoleSize=0mm|Usage=FLASHONLY|Rotation=0.000|XOffset=0mm|YOffset=0mm|HoleType=Round|Shape=Relief|Width=0.254mm|Gap=0.254mm|Entries=4|*
%AMTHD71*
7,0,0,2.1240,1.6160,0.2540,45*
%
%ADD71THD71*%
%ADD72C,1.6160*%
D10*
X013779Y013191D02*
D03*
Y013351D02*
D03*
X007556Y0117686D02*
D03*
Y0119286D02*
D03*
Y0114638D02*
D03*
Y0116238D02*
D03*
X0100198Y0117686D02*
D03*
Y0119286D02*
D03*
Y0114638D02*
D03*
Y0116238D02*
D03*
X011493Y009889D02*
D03*
Y010049D02*
D03*
X0120264Y009508D02*
D03*
Y009668D02*
D03*
X011874Y009668D02*
D03*
Y009508D02*
D03*
X0114676Y0085174D02*
D03*
Y0086774D02*
D03*
X011239Y0085174D02*
D03*
Y0086774D02*
D03*
X0087752Y0074506D02*
D03*
Y0076106D02*
D03*
X0087752Y0071712D02*
D03*
Y0073312D02*
D03*
X0115184Y007857D02*
D03*
Y008017D02*
D03*
X011874Y007857D02*
D03*
Y008017D02*
D03*
X0116962Y008017D02*
D03*
Y007857D02*
D03*
D11*
X012843Y0111882D02*
D03*
X012683D02*
D03*
X012683Y012001D02*
D03*
X012843D02*
D03*
X012683Y0125852D02*
D03*
X012843D02*
D03*
X0118016Y0085212D02*
D03*
X0116416D02*
D03*
X007843Y0062606D02*
D03*
X007683D02*
D03*
X007843Y0061082D02*
D03*
X007683D02*
D03*
X00773759Y00727661D02*
D03*
X00757759D02*
D03*
X00773759Y00707341D02*
D03*
X00757759D02*
D03*
X00730579D02*
D03*
X00714579D02*
D03*
X00730579Y00727661D02*
D03*
X00714579D02*
D03*
X0073312Y0076322D02*
D03*
X0071712D02*
D03*
X013064Y004508D02*
D03*
X013224D02*
D03*
X013224Y0046858D02*
D03*
X013064D02*
D03*
X013224Y004889D02*
D03*
X013064D02*
D03*
X012589Y0054478D02*
D03*
X012429D02*
D03*
X012589Y0058542D02*
D03*
X012429D02*
D03*
X012589Y005651D02*
D03*
X012429D02*
D03*
X011794Y0046858D02*
D03*
X011954D02*
D03*
X012589Y0064638D02*
D03*
X012429D02*
D03*
X012589Y006667D02*
D03*
X012429D02*
D03*
X012589Y007048D02*
D03*
X012429D02*
D03*
X012589Y0060574D02*
D03*
X012429D02*
D03*
X012589Y0062606D02*
D03*
X012429D02*
D03*
D12*
X012693Y010985D02*
D03*
X012833D02*
D03*
X011804Y011874D02*
D03*
X011944D02*
D03*
X0088706Y008699D02*
D03*
X0087306D02*
D03*
X00758759Y00692101D02*
D03*
X00772759D02*
D03*
X00758759Y00742901D02*
D03*
X00772759D02*
D03*
D13*
X012825Y0107872D02*
D03*
X012955D02*
D03*
X012825Y0105732D02*
D03*
D14*
X01294D02*
D03*
X008953Y0070796D02*
D03*
Y0072196D02*
D03*
X0096388Y0065716D02*
D03*
Y0067116D02*
D03*
D15*
X01324Y011307D02*
D03*
Y011242D02*
D03*
Y011177D02*
D03*
Y011112D02*
D03*
Y011047D02*
D03*
Y010982D02*
D03*
Y010917D02*
D03*
X01381Y011307D02*
D03*
Y011242D02*
D03*
Y011177D02*
D03*
Y011112D02*
D03*
Y011047D02*
D03*
Y010982D02*
D03*
Y010917D02*
D03*
D16*
X01179652Y0120518D02*
D03*
X01195148D02*
D03*
X00978992Y0065654D02*
D03*
X00994488D02*
D03*
D17*
X0131275Y012226D02*
D03*
X0139225D02*
D03*
Y011776D02*
D03*
X0131275D02*
D03*
D18*
X0123312Y013185D02*
D03*
Y013865D02*
D03*
X009715Y010817D02*
D03*
Y010137D02*
D03*
X010604Y010817D02*
D03*
Y010137D02*
D03*
X008826Y010817D02*
D03*
Y010137D02*
D03*
X00781Y010817D02*
D03*
Y010137D02*
D03*
X006921Y010817D02*
D03*
Y010137D02*
D03*
X006032Y010817D02*
D03*
Y010137D02*
D03*
D19*
X0123312Y013525D02*
D03*
X009715Y010477D02*
D03*
X010604D02*
D03*
X008826D02*
D03*
X00781Y010477D02*
D03*
X006921D02*
D03*
X006032D02*
D03*
D20*
X0120518Y0134375D02*
D03*
Y0136125D02*
D03*
X0108834Y0134375D02*
D03*
Y0136125D02*
D03*
X0087244Y0134375D02*
D03*
Y0136125D02*
D03*
X0075814Y0134375D02*
D03*
Y0136125D02*
D03*
X010858Y0107423D02*
D03*
Y0105673D02*
D03*
X0099436Y0107423D02*
D03*
Y0105673D02*
D03*
X00908Y0107423D02*
D03*
Y0105673D02*
D03*
X008064Y0107423D02*
D03*
Y0105673D02*
D03*
X0071496Y0107423D02*
D03*
Y0105673D02*
D03*
X006286Y0107423D02*
D03*
Y0105673D02*
D03*
X006794Y0072625D02*
D03*
Y0070875D02*
D03*
D21*
X011747Y013675D02*
D03*
Y013375D02*
D03*
X010604Y013675D02*
D03*
Y013375D02*
D03*
X008445Y013675D02*
D03*
Y013375D02*
D03*
X007302Y013675D02*
D03*
Y013375D02*
D03*
X010223Y0105048D02*
D03*
Y0108048D02*
D03*
X007429Y0105048D02*
D03*
Y0108048D02*
D03*
D22*
X0114198Y01343D02*
D03*
X0111598Y013525D02*
D03*
X0114198Y01362D02*
D03*
X0111598D02*
D03*
Y01343D02*
D03*
X0114198Y013525D02*
D03*
X0081178Y01343D02*
D03*
X0078578Y013525D02*
D03*
X0081178Y01362D02*
D03*
X0078578D02*
D03*
Y01343D02*
D03*
X0081178Y013525D02*
D03*
D23*
X0089686Y013525D02*
D03*
X0096486D02*
D03*
X0056412Y013017D02*
D03*
X0063212D02*
D03*
D24*
X0093086Y013525D02*
D03*
X0059812Y013017D02*
D03*
D25*
X005524Y012567D02*
D03*
Y011943D02*
D03*
D26*
X0052056Y013017D02*
D03*
X0047756D02*
D03*
D27*
X006009Y0125852D02*
D03*
X006309D02*
D03*
X0073758D02*
D03*
X0070758D02*
D03*
X009865D02*
D03*
X009565D02*
D03*
X0086506Y008953D02*
D03*
X0089506D02*
D03*
D28*
X0071637Y0123058D02*
D03*
X0073387D02*
D03*
X0096275D02*
D03*
X0098025D02*
D03*
D29*
X0071791Y0116186D02*
D03*
X0072441D02*
D03*
X0073091D02*
D03*
X0073741D02*
D03*
X0071791Y0120786D02*
D03*
X0072441D02*
D03*
X0073091D02*
D03*
X0073741D02*
D03*
X0096429Y0116186D02*
D03*
X0097079D02*
D03*
X0097729D02*
D03*
X0098379D02*
D03*
X0096429Y0120786D02*
D03*
X0097079D02*
D03*
X0097729D02*
D03*
X0098379D02*
D03*
D30*
X0116708Y009518D02*
D03*
Y009658D02*
D03*
X0118486Y008883D02*
D03*
Y009023D02*
D03*
X0079878Y0058096D02*
D03*
Y0059496D02*
D03*
X0088514Y0051622D02*
D03*
Y0050222D02*
D03*
X00742899Y00724501D02*
D03*
Y00710501D02*
D03*
D31*
X0114864Y009708D02*
D03*
X0113914D02*
D03*
X0112964D02*
D03*
Y009468D02*
D03*
X0114864D02*
D03*
X0116642Y009073D02*
D03*
X0115692D02*
D03*
X0114742D02*
D03*
Y008833D02*
D03*
X0116642D02*
D03*
D32*
X012001Y00887552D02*
D03*
Y00903048D02*
D03*
X0083434Y00524588D02*
D03*
Y00509092D02*
D03*
X0091054Y0071242D02*
D03*
Y00727916D02*
D03*
X0085212Y00717372D02*
D03*
Y00732868D02*
D03*
D33*
X0086609Y0078302D02*
D03*
X0087879D02*
D03*
X0089149D02*
D03*
X0090419D02*
D03*
X0086609Y0084502D02*
D03*
X0087879D02*
D03*
X0089149D02*
D03*
X0090419D02*
D03*
D34*
X0082672Y0083902D02*
D03*
Y0078902D02*
D03*
D35*
X0083496Y005397D02*
D03*
X0084896D02*
D03*
X008515Y007048D02*
D03*
X008375D02*
D03*
D36*
X00867106Y007048D02*
D03*
X00877774D02*
D03*
D37*
X009411Y0066102D02*
D03*
Y0065602D02*
D03*
Y0065102D02*
D03*
Y0064602D02*
D03*
Y0064102D02*
D03*
Y0063602D02*
D03*
Y0063102D02*
D03*
Y0062602D02*
D03*
Y0062102D02*
D03*
Y0061602D02*
D03*
Y0061102D02*
D03*
Y0060602D02*
D03*
Y0060102D02*
D03*
Y0059602D02*
D03*
Y0059102D02*
D03*
Y0058602D02*
D03*
X008241D02*
D03*
Y0066102D02*
D03*
Y0065602D02*
D03*
Y0065102D02*
D03*
Y0064602D02*
D03*
Y0064102D02*
D03*
Y0063602D02*
D03*
Y0063102D02*
D03*
Y0062602D02*
D03*
Y0062102D02*
D03*
Y0058602D02*
D03*
Y0059102D02*
D03*
Y0059602D02*
D03*
Y0060102D02*
D03*
Y0060602D02*
D03*
Y0061102D02*
D03*
Y0061602D02*
D03*
D38*
X009151Y0068202D02*
D03*
X009101D02*
D03*
X009051D02*
D03*
X009001D02*
D03*
X008951D02*
D03*
X008901D02*
D03*
X008851D02*
D03*
X008801D02*
D03*
X008751D02*
D03*
X008701D02*
D03*
X008651D02*
D03*
X008601D02*
D03*
X008551D02*
D03*
X008501D02*
D03*
X008451D02*
D03*
X009201D02*
D03*
Y0056502D02*
D03*
D03*
X009151D02*
D03*
X009101D02*
D03*
X009051D02*
D03*
X009001D02*
D03*
X008951D02*
D03*
X008901D02*
D03*
X008851D02*
D03*
X008801D02*
D03*
X008751D02*
D03*
X008701D02*
D03*
X008651D02*
D03*
X008601D02*
D03*
X008551D02*
D03*
X008501D02*
D03*
X008451D02*
D03*
D39*
X008826Y0062352D02*
D03*
D49*
X014287Y00654D02*
D03*
Y006794D02*
D03*
Y007048D02*
D03*
Y007302D02*
D03*
Y007556D02*
D03*
Y00781D02*
D03*
Y006286D02*
D03*
Y01035D02*
D03*
Y010096D02*
D03*
Y009842D02*
D03*
Y009588D02*
D03*
Y009334D02*
D03*
Y00908D02*
D03*
Y008826D02*
D03*
Y008572D02*
D03*
Y008318D02*
D03*
Y008064D02*
D03*
X014033D02*
D03*
Y008318D02*
D03*
Y008572D02*
D03*
Y008826D02*
D03*
Y00908D02*
D03*
Y009334D02*
D03*
Y009588D02*
D03*
Y009842D02*
D03*
Y010096D02*
D03*
Y01035D02*
D03*
Y006286D02*
D03*
Y00781D02*
D03*
Y007556D02*
D03*
Y007302D02*
D03*
Y007048D02*
D03*
Y006794D02*
D03*
Y00654D02*
D03*
X0108834Y0125852D02*
D03*
X006096Y007175D02*
D03*
X0123312Y0125852D02*
D03*
X0118232D02*
D03*
X0120772D02*
D03*
X012636Y013525D02*
D03*
X009969Y013525D02*
D03*
X006921Y013144D02*
D03*
X006159Y012001D02*
D03*
X009715Y009715D02*
D03*
X010604D02*
D03*
X008826Y009715D02*
D03*
X00781D02*
D03*
X006921D02*
D03*
X006032D02*
D03*
Y008826D02*
D03*
X007556Y005143D02*
D03*
X011239Y008191D02*
D03*
X013271Y006286D02*
D03*
X013525Y00527D02*
D03*
X010731Y004381D02*
D03*
X011112Y0045334D02*
D03*
X010731Y0056002D02*
D03*
Y0049906D02*
D03*
Y0065146D02*
D03*
Y007429D02*
D03*
Y0071242D02*
D03*
Y0062098D02*
D03*
Y0046858D02*
D03*
Y0052954D02*
D03*
Y0068194D02*
D03*
Y005905D02*
D03*
X011112Y0057526D02*
D03*
Y0048382D02*
D03*
Y0069718D02*
D03*
Y0060574D02*
D03*
Y006667D02*
D03*
Y005143D02*
D03*
Y0063622D02*
D03*
Y0072766D02*
D03*
Y0054478D02*
D03*
D50*
X0057145Y007556D02*
D03*
X00527D02*
D03*
X005651Y006794D02*
D03*
X004762D02*
D03*
D51*
X004762Y012505D02*
D03*
Y012005D02*
D03*
X013017Y013271D02*
D03*
Y013779D02*
D03*
X013525D02*
D03*
Y013271D02*
D03*
X013271Y013525D02*
D03*
X012255Y0094102D02*
D03*
Y0099182D02*
D03*
X012763D02*
D03*
Y0094102D02*
D03*
X012509Y0096642D02*
D03*
X00654Y008191D02*
D03*
Y008699D02*
D03*
X007048D02*
D03*
Y008191D02*
D03*
X006794Y008445D02*
D03*
X00654Y005651D02*
D03*
Y006159D02*
D03*
X007048D02*
D03*
Y005651D02*
D03*
X006794Y005905D02*
D03*
X012255Y0044318D02*
D03*
Y0049398D02*
D03*
X012763D02*
D03*
Y0044318D02*
D03*
X012509Y0046858D02*
D03*
X006794Y00781D02*
D03*
Y00654D02*
D03*
D52*
X011493Y010731D02*
D03*
X012255D02*
D03*
X011493Y011493D02*
D03*
X012255D02*
D03*
D53*
X0082672Y0079497D02*
D03*
Y0083307D02*
D03*
M02*
