M48
;Layer_Color=9474304
;FILE_FORMAT=4:4
METRIC,LZ
;TYPE=PLATED
T1F00S00C0.3000
T2F00S00C0.6000
T3F00S00C0.8000
T4F00S00C1.0000
T5F00S00C1.2000
T6F00S00C1.3000
T7F00S00C1.6000
T8F00S00C5.0800
%
T01
X0127122Y0054478
X0127084Y005651
X0127122Y0058542
Y0060574
Y0062606
Y0064638
X012255Y007048
Y0072512
X0138552Y006667
X0096642Y0062098
X009207Y006032
X0090292
X008953
X0088768
X0088006
X0087244
X0086482
X008572
X0084704Y0060193
X0084196Y0061336
X0084323Y0058796
X0085212Y0058288
X0085974
X0088514Y0058542
X0090038
X009001Y0054478
X0088514
X0084958Y0052573
X0089784Y0050222
X008953Y0063876
X0090292
Y0064638
X008953
X0088768
X0088006
Y0063876
X0087244
X0086482
X008572
X0084196Y0064384
X008572Y0066416
X008699
X0088514
X0090292
X009207
Y0065527
X0092578Y0064892
X009207Y006413
X0088768Y0063876
X008826Y0069718
X0086101
X0086482Y0072004
X008953Y0073274
X0090546Y0069972
X0082672Y007048
X0080386Y0060574
X0079878Y0057018
X0073274Y0114676
X0071791
X0096429
X0097912
X0111628Y009715
X0116708Y0097912
X011874Y0093594
X0118486Y0091308
X011366Y00908
X0115184Y0081656
X011874
X008445Y008826
X0083434
Y0089276
Y0090292
X008445
Y0089276
X013144Y0085212
X0134488Y008445
X013398Y0107872
Y0114168
X0140584Y011239
X014414
X012825Y0104658
X0121026Y013779
X012001
X011874Y013906
X011747
X01162
Y014033
X011747
X0110358Y013525
X0102992Y012509
Y0124074
Y0123058
Y0122042
Y0121026
Y012001
X0101976
Y0121026
Y0122042
Y0123058
Y0124074
Y012509
X010096
Y0124074
Y0123058
Y0122042
Y0121026
Y0126106
X0101976
X009334Y013906
Y014033
X009207
X00908
X008953
X008826
X008699
X008572
X008445
Y013906
X008572
X008699
X008826
X008953
X00908
X009207
X0077338Y013525
X0077084Y0126106
X0076068
Y012509
Y0124074
Y0123058
Y0122042
Y0121026
X0077084
Y012001
X00781
Y0121026
Y0122042
X0077084
Y0123058
Y0124074
Y012509
X00781
Y0124074
Y0123058
T02
X0130678Y0043556
X0127122Y006667
X009842Y0067305
X0093848Y0068067
X01035Y007937
X0083434Y004975
X007048Y0076322
X006921Y0092578
X00781
X007302Y010096
Y0102738
X006667Y010477
X0064638
Y0102992
Y0101214
X006032Y0092578
X009715Y0092578
X010604
X0116708Y009334
Y0086736
X0116962Y0081656
X010096Y010096
Y0102738
X009461Y010477
X0092578
Y0102992
Y0101214
X013017Y0110612
X0139822Y0114168
X0127122Y0088006
X0131186Y0124328
X0139225Y0124417
X0114168Y013271
X0111628Y013779
X0110358
X0108834
X0103246
Y013652
X0081148Y013271
X0078608Y013779
X0077338
X0075814
X0070226
Y013652
T03
X011493Y010731
Y011493
X012255
Y010731
T04
X013525Y00527
X013271Y006286
X014033Y006286
X014287
Y00654
Y006794
Y007048
Y007302
Y007556
Y00781
X014033
Y007556
Y007302
Y007048
Y006794
Y00654
X011112Y006667
Y0069718
Y0072766
X010731Y007429
Y0071242
Y0068194
Y0065146
Y0062098
Y005905
Y0056002
Y0052954
Y0049906
Y0046858
Y004381
X011112Y0045334
Y0048382
Y005143
Y0054478
Y0057526
Y0060574
Y0063622
X007556Y005143
X00781Y009715
X006921
X006032
Y008826
X008826Y009715
X009715Y009715
X010604
X011239Y008191
X014033Y008318
X014287
Y008572
Y008826
Y00908
Y009334
Y009588
Y009842
Y010096
Y01035
X014033
Y010096
Y009842
Y009588
Y009334
Y00908
Y008826
Y008572
Y008064
X014287
X0123312Y0125852
X0120772
X012636Y013525
X0118232Y0125852
X0108834
X009969Y013525
X006921Y013144
X006159Y012001
T05
X006096Y007175
T06
X012255Y0044318
Y0049398
X012763
Y0044318
X012509Y0046858
X007048Y005651
X00654
Y006159
X007048
X006794Y005905
X006794Y00654
Y00781
X007048Y008191
X00654
Y008699
X007048
X006794Y008445
X0082672Y0083307
Y0079497
X012255Y0094102
Y0099182
X012763
Y0094102
X012509Y0096642
X013017Y013271
Y013779
X013525
Y013271
X013271Y013525
X004762Y012505
Y012005
T07
X004762Y006794
X005651
X0057145Y007556
X00527
T08
X014168Y0045
X0045Y0045
X014168Y01366
X0045Y01366
M30
